<?xml version="1.0" standalone="no"?>
<!DOCTYPE svg PUBLIC "-//W3C//DTD SVG 1.1//EN" "http://www.w3.org/Graphics/SVG/1.1/DTD/svg11.dtd" >
<svg xmlns="http://www.w3.org/2000/svg">
<metadata>
Created by FontPrep 20130207 at Tue Feb 10 13:46:30 2015
 By Hwang, Mee
Copyright (c) 2003 - 2013, 2014 Monotype GmbH and Monotype ITC Inc. All rights reserved.
</metadata>
<defs>
<font id="74a962224c748506e9404a91c79a884c" horiz-adv-x='1024' >
  <font-face 
    font-family="AvenirNextPForBBG-Light"
    font-weight="300"
    font-stretch="normal"
    units-per-em="2048"
    panose-1="2 11 3 3 2 2 2 2 2 4"
    ascent="1548"
    descent="-500"
    x-height="954"
    cap-height="1450"
    bbox="-346 -512 2134 1935"
    underline-thickness="102"
    underline-position="-153"
    unicode-range="U+000D-FB04"
  />
<missing-glyph horiz-adv-x="1048" 
d="M1049 0h-1049v1470h1049v-1470zM946 102v1264h-844v-1264h844zM555 479h-94l-4 35q0 111 23 163q24 51 92 119t88 101t20 91t-46 107q-46 50 -110 50q-145 0 -168 -195l-102 17q14 141 88 211t186 70t185 -74q72 -74 71 -195q0 -68 -26 -123t-103 -123q-76 -69 -88 -103
t-12 -151zM569 240h-114v137h114v-137z" />
    <glyph glyph-name="napostrophe" unicode="&#x22;n" horiz-adv-x="1183" 
d="M88 1141h-92l119 379h116zM1001 0h-110v541q0 344 -270 344q-133 -1 -225 -105t-91 -295v-485h-112v735q0 135 -9 219h107q8 -106 8 -190h4q41 96 137 156t205 59q178 0 267 -109t89 -288v-582z" />
    <glyph glyph-name="f_f" unicode="ff" horiz-adv-x="1144" 
d="M891 0h-111v860h-436v-860h-113v860h-198v94h198v285q0 164 80 249t221 85q66 0 109 -14l-18 -97q-49 14 -93 15q-186 0 -186 -250v-273h436v285q0 164 80 249t221 85q63 0 109 -14l-21 -97q-47 14 -92 15q-186 0 -186 -250v-273h235v-94h-235v-860z" />
    <glyph glyph-name="fi" unicode="fi" horiz-adv-x="1083" 
d="M918 1333q0 -35 -26 -59t-58 -25q-32 0 -58 25q-24 26 -24 60t24 59q25 25 58 25q32 0 58 -26q26 -24 26 -59zM891 0h-113v954h113v-954zM344 0h-113v860h-198v94h198v285q0 164 80 249t221 85q66 0 109 -14l-18 -93q-37 10 -93 11q-186 0 -186 -250v-273h234v-94h-234
v-860z" />
    <glyph glyph-name="fl" unicode="fl" horiz-adv-x="1083" 
d="M889 0h-111v1548h111v-1548zM344 0h-113v860h-198v94h198v285q0 164 80 249t221 85q66 0 109 -14l-18 -93q-37 10 -93 11q-186 0 -186 -250v-273h234v-94h-234v-860z" />
    <glyph glyph-name="f_f_i" unicode="ffi" horiz-adv-x="1632" 
d="M1466 1333q0 -35 -26 -59t-58 -25q-34 0 -58 25q-24 26 -24 60t25 59t57 25t59 -25q25 -25 25 -60zM1440 0h-113v954h113v-954zM891 0h-111v860h-436v-860h-113v860h-198v94h198v285q0 164 80 249t221 85q66 0 109 -14l-18 -97q-49 14 -93 15q-186 0 -186 -250v-273h436
v285q0 164 80 249t221 85q63 0 109 -14l-21 -97q-47 14 -92 15q-186 0 -186 -250v-273h235v-94h-235v-860z" />
    <glyph glyph-name="f_f_l" unicode="ffl" horiz-adv-x="1632" 
d="M1438 0h-111v1548h111v-1548zM891 0h-111v860h-436v-860h-113v860h-198v94h198v285q0 164 80 249t221 85q66 0 109 -14l-18 -97q-49 14 -93 15q-186 0 -186 -250v-273h436v285q0 164 80 249t221 85q63 0 109 -14l-21 -97q-47 14 -92 15q-186 0 -186 -250v-273h235v-94
h-235v-860z" />
    <glyph glyph-name=".notdef" horiz-adv-x="1048" 
d="M1049 0h-1049v1470h1049v-1470zM946 102v1264h-844v-1264h844zM555 479h-94l-4 35q0 111 23 163q24 51 92 119t88 101t20 91t-46 107q-46 50 -110 50q-145 0 -168 -195l-102 17q14 141 88 211t186 70t185 -74q72 -74 71 -195q0 -68 -26 -123t-103 -123q-76 -69 -88 -103
t-12 -151zM569 240h-114v137h114v-137z" />
    <glyph glyph-name=".null" horiz-adv-x="0" 
 />
    <glyph glyph-name="nonmarkingreturn" horiz-adv-x="681" 
 />
    <glyph glyph-name="NULL" horiz-adv-x="0" 
 />
    <glyph glyph-name="NULL" horiz-adv-x="0" 
 />
    <glyph glyph-name="CR" unicode="&#xd;" horiz-adv-x="512" 
 />
    <glyph glyph-name="space" unicode=" " horiz-adv-x="520" 
 />
    <glyph glyph-name="exclam" unicode="!" horiz-adv-x="638" 
d="M227 81q0 37 27 65q28 28 66 28t65 -28t27 -65q0 -38 -27 -66q-27 -27 -66 -27t-65 28t-27 65zM379 395h-117v1055h117v-1055z" />
    <glyph glyph-name="quotedbl" unicode="&#x22;" horiz-adv-x="829" 
d="M612 973h-100v477h100v-477zM315 973h-98v477h98v-477z" />
    <glyph glyph-name="numbersign" unicode="#" horiz-adv-x="1134" 
d="M690 551l47 352h-295l-47 -352h295zM68 455v96h227l49 352h-223v96h237l60 451h98l-59 -451h295l61 451h98l-59 -451h197v-96h-211l-47 -352h204v-96h-219l-61 -455h-99l62 455h-297l-62 -455h-98l62 455h-215z" />
    <glyph glyph-name="dollar" unicode="$" horiz-adv-x="1093" 
d="M584 -172h-82v147q-256 6 -416 209l82 64q68 -88 158 -132t176 -46v622q-161 51 -278 137t-116 258q1 173 112 275q112 102 282 113v147h82v-147q240 -4 374 -164l-73 -70q-119 141 -301 141v-600q252 -89 334 -186q82 -96 81 -236q1 -170 -117 -275t-298 -110v-147z
M883 369q0 207 -299 303v-602q123 6 211 81t88 218zM221 1100q0 -209 281 -289v571q-119 -6 -200 -83t-81 -199z" />
    <glyph glyph-name="percent" unicode="%" horiz-adv-x="1697" 
d="M430 -61l-84 45l918 1527l82 -45zM1511 326q0 106 -72 179q-73 73 -176 73t-177 -73t-72 -179q0 -106 72 -179q72 -71 176 -71t177 71q72 73 72 179zM1612 326q0 -144 -102 -246t-248 -102q-144 0 -246 100q-102 102 -102 248t100 246q102 102 248 102t248 -102t102 -246
zM435 872q103 0 176 72t73 178t-73 180t-176 72q-103 0 -176 -72t-73 -180q0 -106 73 -178t176 -72zM86 1123q0 145 101 247t247 102t248 -101q102 -102 102 -248t-101 -247q-101 -102 -247 -102t-248 102t-102 247z" />
    <glyph glyph-name="ampersand" unicode="&#x26;" horiz-adv-x="1441" 
d="M561 70q222 0 369 233l-406 428q-289 -135 -288 -358q0 -133 94 -218t231 -85zM846 1164q0 102 -64 164t-160 62q-97 0 -164 -65q-67 -66 -67 -172q0 -137 166 -299q137 68 213 138t76 172zM555 -29q-188 0 -312 108t-124 296q0 152 88 254t250 178q-181 190 -181 345
t100 245t246 90t242 -86t96 -222q0 -137 -88 -225t-247 -170l368 -385l211 377h131l-262 -452l309 -324h-159l-215 227q-176 -256 -453 -256z" />
    <glyph glyph-name="quotesingle" unicode="'" horiz-adv-x="532" 
d="M315 973h-98v477h98v-477z" />
    <glyph glyph-name="parenleft" unicode="(" horiz-adv-x="614" 
d="M92 590q0 252 78 494t209 419l88 -53q-121 -170 -195 -400q-146 -455 -1 -914q73 -226 196 -406l-88 -54q-287 418 -287 914z" />
    <glyph glyph-name="parenright" unicode=")" horiz-adv-x="614" 
d="M414 590q0 230 -74 460t-195 400l88 53q131 -178 210 -420q79 -241 79 -493t-79 -494t-210 -420l-88 54q121 170 195 400t74 460z" />
    <glyph glyph-name="asterisk" unicode="*" horiz-adv-x="909" 
d="M406 1450h98v-309l301 96l33 -92l-303 -94l192 -260l-78 -60l-194 266l-195 -266l-78 60l193 260l-303 94l32 92l302 -96v309z" />
    <glyph glyph-name="plus" unicode="+" horiz-adv-x="1159" 
d="M631 1094v-424h375v-97h-375v-423h-101v423h-376v97h376v424h101z" />
    <glyph glyph-name="comma" unicode="," horiz-adv-x="520" 
d="M201 -285h-92l131 478h116z" />
    <glyph glyph-name="hyphen" unicode="-" horiz-adv-x="643" 
d="M537 457h-431v94h431v-94z" />
    <glyph glyph-name="period" unicode="." horiz-adv-x="520" 
d="M260 -12q-40 0 -66 28t-26 65t27 65t65 28t66 -28q26 -28 26 -66t-26 -65q-27 -27 -66 -27z" />
    <glyph glyph-name="slash" unicode="/" horiz-adv-x="757" 
d="M117 -35l-97 31l625 1493l92 -33z" />
    <glyph glyph-name="zero" unicode="0" horiz-adv-x="1325" 
d="M652 -31q-280 -1 -407 183q-126 184 -126 574t130 572t415 182q286 0 414 -182q128 -184 128 -584t-137 -572q-137 -173 -417 -173zM660 72q225 0 329 145q105 145 105 512t-106 508t-332 141q-227 0 -326 -149q-98 -149 -98 -511t101 -504q102 -142 327 -142z" />
    <glyph glyph-name="one" unicode="1" horiz-adv-x="704" 
d="M451 0h-111v1350h-262v100h373v-1450z" />
    <glyph glyph-name="two" unicode="2" horiz-adv-x="1167" 
d="M1049 0h-940v80l366 352q244 232 331 374t87 272t-89 216t-218 86t-216 -99t-89 -269h-115q0 209 123 339t304 130t300 -116t119 -279q0 -164 -98 -314t-345 -391l-295 -281h775v-100z" />
    <glyph glyph-name="three" unicode="3" horiz-adv-x="1161" 
d="M1032 422q0 -193 -128 -322t-340 -129t-343 131t-131 340h109q4 -164 101 -268t264 -104t260 99q94 99 94 254t-106 255t-282 100h-92v90h80q156 0 232 70t76 181t-69 189q-69 76 -185 76t-188 -66t-81 -181h-110q9 155 117 249t264 94t260 -96q106 -96 106 -247
q0 -106 -57 -191q-58 -84 -156 -115v-4q143 -43 224 -155t81 -250z" />
    <glyph glyph-name="four" unicode="4" horiz-adv-x="1128" 
d="M815 387v924h-4l-645 -924h649zM920 0h-107v291h-776v80l758 1081h125v-1065h155v-96h-155v-291z" />
    <glyph glyph-name="five" unicode="5" horiz-adv-x="1200" 
d="M1004 1350h-619l-96 -484q113 96 319 96t343 -136q139 -138 139 -356t-144 -359t-351 -141q-206 0 -345 126q-139 127 -164 346h113q23 -158 128 -266t265 -106q160 0 272 110t113 286q0 175 -110 290t-273 114q-213 0 -338 -151l-94 22l139 709h703v-100z" />
    <glyph glyph-name="six" unicode="6" horiz-adv-x="1243" 
d="M229 472q-1 -180 105 -292t281 -112t287 116t112 286q0 171 -109 286q-109 114 -275 114t-284 -110q-117 -110 -117 -288zM1124 475q0 -209 -143 -357t-366 -148t-359 142q-136 144 -137 347q0 100 33 186t122 213l424 592h121l-391 -543l4 -2q90 57 211 58
q205 1 343 -139t138 -349z" />
    <glyph glyph-name="seven" unicode="7" horiz-adv-x="991" 
d="M88 1350v100h854v-96l-627 -1354h-116l630 1350h-741z" />
    <glyph glyph-name="eight" unicode="8" horiz-adv-x="1155" 
d="M572 1389q-118 0 -194 -79t-75 -187q0 -107 80 -185t193 -78q112 0 194 74t82 194q0 119 -81 190t-199 71zM578 63q145 -1 245 103q101 104 101 251t-100 251t-246 104q-144 0 -245 -103t-101 -251t100 -252q101 -103 246 -103zM1036 412q0 -184 -133 -314t-324 -129
q-191 0 -326 128q-134 128 -134 315q0 139 81 255t214 158q-96 41 -156 127q-59 86 -59 187q0 141 109 241q110 100 270 100t270 -98q110 -100 108 -243q0 -100 -59 -187q-60 -86 -156 -127q137 -47 216 -159t79 -254z" />
    <glyph glyph-name="nine" unicode="9" horiz-adv-x="1243" 
d="M613 580q167 0 284 110t117 288q0 179 -106 292q-106 112 -280 112q-175 0 -287 -116t-112 -286q1 -172 109 -286t275 -114zM119 975q0 209 143 357q142 148 366 148t360 -142q136 -144 136 -347q0 -100 -32 -186t-123 -213l-424 -592h-121l391 543l-4 2
q-90 -57 -211 -58q-205 -1 -343 139t-138 349z" />
    <glyph glyph-name="colon" unicode=":" horiz-adv-x="602" 
d="M301 -12q-39 0 -65 28t-27 65q0 37 27 65q28 28 66 28t65 -28t27 -66t-27 -65t-66 -27zM393 868q-1 -36 -27 -64t-65 -28t-65 28t-27 64q0 36 27 66q28 29 66 29t64 -29t27 -66z" />
    <glyph glyph-name="semicolon" unicode=";" horiz-adv-x="602" 
d="M229 -285h-96l131 478h121zM393 868q-1 -36 -27 -64t-65 -28t-65 28t-27 64q0 36 27 66q28 29 66 29t64 -29t27 -66z" />
    <glyph glyph-name="less" unicode="&#x3c;" horiz-adv-x="1159" 
d="M1026 1100v-101l-770 -378l770 -379v-101l-893 439v82z" />
    <glyph glyph-name="equal" unicode="=" horiz-adv-x="1159" 
d="M133 510h893v-98h-893v98zM133 829h893v-96h-893v96z" />
    <glyph glyph-name="greater" unicode="&#x3e;" horiz-adv-x="1159" 
d="M133 999v101l893 -438v-82l-893 -439v101l770 379z" />
    <glyph glyph-name="question" unicode="?" horiz-adv-x="980" 
d="M501 -12q-40 0 -66 28q-25 28 -25 65t26 65t65 28t65 -28t26 -66t-26 -64q-26 -28 -65 -28zM547 397h-115v119q0 96 40 166t118 137l61 53q61 52 93 108t32 136q0 121 -79 191q-79 69 -197 69t-194 -70q-77 -70 -95 -186l-111 21q31 158 140 248q108 90 270 90
q162 1 272 -95t111 -262q0 -118 -45 -188t-141 -149t-128 -134t-32 -159v-95z" />
    <glyph glyph-name="at" unicode="@" horiz-adv-x="1638" 
d="M856 -39q-346 0 -561 216t-215 544t225 548t537 220t522 -176q209 -176 209 -477q0 -232 -113 -370t-286 -138q-86 0 -131 44q-44 44 -44 115h-6q-31 -59 -101 -109t-161 -50q-129 0 -204 89t-74 226q0 186 114 335q115 148 293 148q80 0 137 -39t76 -102h8l27 109h102
l-100 -412q-20 -92 -20 -152q0 -106 114 -106t187 116q72 116 71 285q0 260 -170 411q-170 150 -448 150t-461 -192q-182 -192 -182 -480t184 -471t481 -184q334 1 561 234l62 -74q-240 -258 -633 -258zM571 637q0 -85 42 -149t133 -64t160 72q124 129 124 323q0 89 -41 149
t-133 60q-127 0 -206 -123t-79 -268z" />
    <glyph glyph-name="A" unicode="A" horiz-adv-x="1413" 
d="M1051 498l-342 829l-349 -829h691zM1386 0h-129l-163 391h-777l-163 -391h-129l628 1450h117z" />
    <glyph glyph-name="B" unicode="B" horiz-adv-x="1288" 
d="M317 100h306q182 0 297 74q114 74 114 228t-106 230q-106 77 -281 77h-330v-609zM317 807h312q137 1 236 67t100 205q-1 139 -103 205t-264 66h-281v-543zM635 0h-434v1450h420q184 0 313 -74q149 -83 149 -289q-1 -123 -75 -207t-193 -112v-4q141 -14 239 -110t99 -257
q0 -190 -144 -294q-145 -103 -374 -103z" />
    <glyph glyph-name="C" unicode="C" horiz-adv-x="1476" 
d="M876 -39q-330 0 -540 216t-211 548q0 332 213 548t536 216q160 0 291 -55t209 -156l-84 -78q-66 82 -176 133t-237 51q-283 0 -456 -191t-173 -467t173 -468t451 -192t449 213l80 -64q-195 -254 -525 -254z" />
    <glyph glyph-name="D" unicode="D" horiz-adv-x="1558" 
d="M317 104h312q317 0 499 174t183 447q-1 272 -183 446t-499 175h-312v-1242zM659 0h-458v1450h458q307 0 533 -177q110 -87 176 -229t66 -319q0 -176 -66 -318q-122 -262 -423 -362q-136 -45 -286 -45z" />
    <glyph glyph-name="E" unicode="E" horiz-adv-x="1210" 
d="M1110 0h-909v1450h882v-104h-768v-541h719v-103h-719v-598h795v-104z" />
    <glyph glyph-name="F" unicode="F" horiz-adv-x="1148" 
d="M317 0h-116v1450h860v-104h-744v-543h691v-103h-691v-700z" />
    <glyph glyph-name="G" unicode="G" horiz-adv-x="1605" 
d="M1300 643h-348v102h465v-647q-229 -137 -547 -137t-532 217q-213 217 -213 548t214 547q215 216 535 216t512 -189l-73 -79q-165 163 -441 163t-450 -190t-174 -466t174 -470q174 -193 463 -192q249 0 415 98v479z" />
    <glyph glyph-name="H" unicode="H" horiz-adv-x="1478" 
d="M1280 0h-117v698h-846v-698h-116v1450h116v-643h846v643h117v-1450z" />
    <glyph glyph-name="I" unicode="I" horiz-adv-x="516" 
d="M317 0h-116v1450h116v-1450z" />
    <glyph glyph-name="J" unicode="J" horiz-adv-x="999" 
d="M694 420v1030h117v-1038q0 -180 -79 -303q-90 -146 -302 -146q-145 0 -246 77q-100 77 -131 198l109 30q24 -90 92 -146t164 -56q276 0 276 354z" />
    <glyph glyph-name="K" unicode="K" horiz-adv-x="1247" 
d="M317 0h-116v1450h116v-655l703 655h168l-733 -659l772 -791h-170l-740 774v-774z" />
    <glyph glyph-name="L" unicode="L" horiz-adv-x="1036" 
d="M1006 0h-805v1450h116v-1346h689v-104z" />
    <glyph glyph-name="M" unicode="M" horiz-adv-x="1826" 
d="M1626 0h-117v1300h-4l-559 -1300h-65l-559 1300h-5v-1300h-116v1450h180l534 -1255l531 1255h180v-1450z" />
    <glyph glyph-name="N" unicode="N" horiz-adv-x="1572" 
d="M1372 0h-147l-903 1290h-5v-1290h-116v1450h147l903 -1282h4v1282h117v-1450z" />
    <glyph glyph-name="O" unicode="O" horiz-adv-x="1755" 
d="M248 726q0 -276 174 -468t456 -192t456 191t173 467q0 276 -175 468q-176 192 -456 192t-454 -191t-174 -467zM1630 725q0 -332 -214 -548t-538 -216q-325 0 -539 216t-214 548t214 548t539 216q324 0 538 -216t214 -548z" />
    <glyph glyph-name="P" unicode="P" horiz-adv-x="1183" 
d="M317 784h287q166 0 263 73t98 214q-1 141 -99 210t-264 69h-285v-566zM317 0h-116v1450h403q215 0 346 -94t131 -282t-129 -288t-342 -100h-293v-686z" />
    <glyph glyph-name="Q" unicode="Q" horiz-adv-x="1751" 
d="M1690 0h-830q-315 0 -525 209t-210 533t210 535q210 212 526 212q317 0 527 -213t209 -535q0 -209 -105 -381t-286 -251v-5h484v-104zM248 744q0 -268 170 -456q170 -186 443 -186t445 190t171 453q0 263 -171 451q-170 188 -444 188t-444 -186t-170 -454z" />
    <glyph glyph-name="R" unicode="R" horiz-adv-x="1224" 
d="M317 795h285q184 0 284 70q99 71 99 206q0 279 -385 279h-283v-555zM317 694v-694h-116v1450h417q483 0 484 -379q0 -164 -111 -260t-274 -109l428 -702h-141l-414 694h-273z" />
    <glyph glyph-name="S" unicode="S" horiz-adv-x="1159" 
d="M1028 371q0 -197 -137 -303t-326 -107q-278 0 -438 209l82 72q152 -178 356 -179q137 0 241 81q103 81 103 232t-150 230q-67 35 -148 63q-81 29 -163 59t-148 72q-67 42 -109 116t-41 180q0 188 137 290t321 103q266 0 398 -172l-84 -76q-121 147 -320 148
q-131 0 -233 -77q-103 -77 -103 -229t152 -225q68 -33 214 -81t245 -108q67 -42 109 -118t42 -180z" />
    <glyph glyph-name="T" unicode="T" horiz-adv-x="1148" 
d="M633 0h-117v1346h-487v104h1091v-104h-487v-1346z" />
    <glyph glyph-name="U" unicode="U" horiz-adv-x="1468" 
d="M1163 557v893h117v-907q0 -219 -112 -389q-58 -88 -170 -140t-264 -53q-152 0 -264 52q-112 53 -170 141q-112 171 -112 389v907h117v-893q0 -362 254 -462q75 -29 185 -29t197 43q153 75 202 271q20 83 20 177z" />
    <glyph glyph-name="V" unicode="V" horiz-adv-x="1265" 
d="M696 0h-131l-551 1450h127l490 -1305h4l489 1305h125z" />
    <glyph glyph-name="W" unicode="W" horiz-adv-x="1980" 
d="M1513 0h-141l-381 1294h-4l-379 -1294h-141l-430 1450h123l377 -1296h4l377 1296h145l379 -1296h6l373 1296h123z" />
    <glyph glyph-name="X" unicode="X" horiz-adv-x="1292" 
d="M1243 0h-145l-453 670l-450 -670h-146l526 762l-479 688h146l405 -598l402 598h137l-473 -686z" />
    <glyph glyph-name="Y" unicode="Y" horiz-adv-x="1193" 
d="M655 0h-116v627l-531 823h146l446 -723l449 723h135l-529 -823v-627z" />
    <glyph glyph-name="Z" unicode="Z" horiz-adv-x="1185" 
d="M1114 0h-1036v102l878 1244h-856v104h998v-104l-877 -1242h893v-104z" />
    <glyph glyph-name="bracketleft" unicode="[" horiz-adv-x="614" 
d="M451 -319h-318v1818h318v-90h-211v-1638h211v-90z" />
    <glyph glyph-name="backslash" unicode="\" horiz-adv-x="757" 
d="M737 -4l-94 -31l-623 1491l95 33z" />
    <glyph glyph-name="bracketright" unicode="]" horiz-adv-x="614" 
d="M481 -319h-317v90h211v1638h-211v90h317v-1818z" />
    <glyph glyph-name="asciicircum" unicode="^" horiz-adv-x="1363" 
d="M1190 543h-103l-405 796l-406 -796h-102l467 907h82z" />
    <glyph glyph-name="underscore" unicode="_" horiz-adv-x="1024" 
d="M1024 -250h-1024v84h1024v-84z" />
    <glyph glyph-name="grave" unicode="`" 
d="M352 1155h-96l-258 295h147z" />
    <glyph glyph-name="a" unicode="a" horiz-adv-x="1079" 
d="M795 412v77h-72q-489 0 -490 -225q0 -102 71 -150t169 -48q156 0 239 102t83 244zM801 176h-4q-113 -203 -351 -203q-127 0 -227 72t-100 213q0 199 185 263q153 55 394 57h97v43q0 266 -271 266q-168 0 -284 -113l-62 74q135 131 357 131q166 0 266 -88t100 -258v-418
q1 -129 17 -215h-101q-16 98 -16 176z" />
    <glyph glyph-name="b" unicode="b" horiz-adv-x="1298" 
d="M685 70q171 0 274 116t104 291q1 174 -103 292t-275 118t-282 -118t-111 -292t111 -291q111 -116 282 -116zM305 0h-110v1548h110v-788h6q59 104 163 162t218 57q217 0 352 -142q136 -141 136 -359t-136 -361t-352 -144q-115 1 -219 57t-162 158h-6v-188z" />
    <glyph glyph-name="c" unicode="c" horiz-adv-x="1011" 
d="M610 -27q-220 -1 -354 141q-135 142 -135 362t138 362t357 141q219 0 338 -150l-73 -67q-43 55 -115 88t-150 33q-170 0 -275 -116t-105 -290t104 -289t272 -115t279 115l70 -63q-131 -152 -351 -152z" />
    <glyph glyph-name="d" unicode="d" horiz-adv-x="1298" 
d="M236 477q0 -175 103 -291t274 -116t281 116t110 291q0 174 -110 292t-281 118t-274 -118t-103 -292zM1104 0h-113v188h-4q-59 -102 -163 -158t-218 -57q-215 -1 -351 143t-136 360t136 360t351 143q115 0 218 -57t163 -162h4v788h113v-1548z" />
    <glyph glyph-name="e" unicode="e" horiz-adv-x="1161" 
d="M602 -27q-209 -1 -346 143t-137 361t136 359t344 143q208 0 326 -134t117 -333v-57h-809q5 -158 107 -272t266 -113q191 -1 328 161l74 -59q-154 -199 -406 -199zM591 887q-153 1 -251 -107t-104 -237h696q-6 154 -97 249t-244 95z" />
    <glyph glyph-name="f" unicode="f" horiz-adv-x="595" 
d="M344 0h-113v860h-198v94h198v285q0 164 80 249t221 85q66 0 109 -14l-18 -93q-37 10 -93 11q-186 0 -186 -250v-273h234v-94h-234v-860z" />
    <glyph glyph-name="g" unicode="g" horiz-adv-x="1290" 
d="M236 485q0 -167 103 -283t274 -116t281 114t110 282t-111 286q-111 119 -281 119t-273 -117t-103 -285zM991 23v186h-4q-53 -101 -159 -159t-222 -58q-217 0 -352 138t-135 350t136 356t351 143q117 0 220 -57t161 -162h4v194h113v-931q0 -195 -100 -349
q-52 -80 -156 -126t-248 -46q-272 0 -448 189l71 76q156 -166 370 -166t306 118t92 304z" />
    <glyph glyph-name="h" unicode="h" horiz-adv-x="1185" 
d="M1004 0h-111v541q0 344 -272 344q-131 -1 -223 -105t-93 -295v-485h-110v1548h110v-780h4q47 102 137 156t199 55q180 0 269 -110t90 -287v-582z" />
    <glyph glyph-name="i" unicode="i" horiz-adv-x="497" 
d="M332 1333q0 -35 -26 -59t-58 -25q-32 0 -58 25q-24 26 -24 60t24 59q25 25 58 25q32 0 58 -26q26 -24 26 -59zM305 0h-112v954h112v-954z" />
    <glyph glyph-name="j" unicode="j" horiz-adv-x="499" 
d="M334 1333q0 -35 -26 -59t-58 -25q-32 0 -58 25q-24 26 -24 60t25 59t57 25t58 -26q26 -24 26 -59zM45 -397q90 0 120 56t30 163v1132h110v-1147q0 -139 -57 -219t-201 -80q-61 1 -96 13l16 92q41 -10 78 -10z" />
    <glyph glyph-name="k" unicode="k" horiz-adv-x="1005" 
d="M305 502v-502h-110v1548h110v-1028h6l455 434h160l-488 -438l539 -516h-164l-502 502h-6z" />
    <glyph glyph-name="l" unicode="l" horiz-adv-x="499" 
d="M305 0h-110v1548h110v-1548z" />
    <glyph glyph-name="m" unicode="m" horiz-adv-x="1812" 
d="M1630 0h-110v541q0 156 -62 251t-202 95q-138 0 -216 -111t-77 -278v-498h-113v561q0 326 -244 326q-123 -1 -212 -107t-89 -295v-485h-112v735q0 135 -9 219h107q8 -106 8 -190h4q41 98 130 156t192 59q229 0 305 -227h4q47 109 135 168t207 59q176 0 265 -110t89 -287
v-582z" />
    <glyph glyph-name="n" unicode="n" horiz-adv-x="1183" 
d="M1001 0h-110v541q0 344 -270 344q-133 -1 -225 -105t-91 -295v-485h-112v735q0 135 -9 219h107q8 -106 8 -190h4q41 96 137 156t205 59q178 0 267 -109t89 -288v-582z" />
    <glyph glyph-name="o" unicode="o" horiz-adv-x="1247" 
d="M624 74q175 0 281 114t107 289q0 174 -106 290t-282 116t-282 -116t-106 -290t106 -289q107 -114 282 -114zM121 478q0 218 140 360q139 142 361 141q222 1 363 -141t141 -360t-141 -361t-361 -143t-362 142q-142 144 -141 362z" />
    <glyph glyph-name="p" unicode="p" horiz-adv-x="1294" 
d="M682 70q170 0 273 116t104 291q1 174 -103 292t-274 118t-280 -118t-110 -292t110 -291q110 -116 280 -116zM303 -492h-110v1446h110v-190h6q59 106 161 160t218 55q217 0 353 -142q137 -141 137 -359t-134 -361t-352 -144q-119 1 -223 55t-160 156h-6v-676z" />
    <glyph glyph-name="q" unicode="q" horiz-adv-x="1294" 
d="M236 477q0 -175 103 -291t273 -116t280 116t109 291q0 174 -109 292q-110 118 -280 118t-273 -118t-103 -292zM1104 -492h-113v680h-6q-55 -100 -159 -157t-220 -58q-215 -1 -351 143t-136 361t135 359t352 143q115 0 218 -57t161 -162h6v194h113v-1446z" />
    <glyph glyph-name="r" unicode="r" horiz-adv-x="710" 
d="M305 0h-112v735q0 135 -9 219h107q8 -106 8 -190h4q39 100 124 158t189 57q51 0 76 -8l-12 -103q-29 8 -78 9q-133 -1 -215 -105t-82 -283v-489z" />
    <glyph glyph-name="s" unicode="s" horiz-adv-x="890" 
d="M451 887q-86 0 -151 -42q-64 -42 -64 -122t55 -118q55 -37 199 -69t225 -96q80 -64 80 -191q1 -128 -101 -201t-245 -73q-242 0 -363 179l88 63q43 -67 116 -107t165 -40q93 0 161 46t68 129t-57 124t-139 60t-162 43q-82 24 -140 83q-57 59 -57 158q0 131 95 199t216 67
q243 0 336 -162l-86 -61q-78 131 -239 131z" />
    <glyph glyph-name="t" unicode="t" horiz-adv-x="641" 
d="M219 229v631h-201v94h199v273h113v-273h272v-94h-272v-604q0 -174 144 -176q66 0 124 26l6 -96q-74 -26 -162 -26t-156 58q-67 58 -67 187z" />
    <glyph glyph-name="u" unicode="u" horiz-adv-x="1183" 
d="M883 188h-4q-39 -96 -135 -155t-205 -60q-180 0 -270 110q-89 110 -89 288v583h113v-540q0 -346 270 -346q131 0 223 105t93 296v485h110v-735q0 -117 10 -219h-108q-8 102 -8 188z" />
    <glyph glyph-name="v" unicode="v" horiz-adv-x="966" 
d="M549 0h-127l-385 954h125l323 -837h4l320 837h119z" />
    <glyph glyph-name="w" unicode="w" horiz-adv-x="1499" 
d="M1145 0h-125l-270 811h-5l-268 -811h-125l-295 954h119l240 -815h4l272 815h113l276 -815h4l238 815h117z" />
    <glyph glyph-name="x" unicode="x" horiz-adv-x="970" 
d="M932 0h-146l-303 420l-309 -420h-133l375 496l-346 458h143l272 -381l273 381h135l-342 -454z" />
    <glyph glyph-name="y" unicode="y" horiz-adv-x="962" 
d="M178 -395q60 0 102 44q41 44 74 130l82 215l-399 960h125l332 -841l4 4l307 837h121l-475 -1220q-45 -113 -109 -170t-170 -58q-51 0 -113 15l15 100q44 -16 104 -16z" />
    <glyph glyph-name="z" unicode="z" horiz-adv-x="903" 
d="M827 0h-753v82l588 778h-558v94h701v-84l-586 -774h608v-96z" />
    <glyph glyph-name="braceleft" unicode="{" horiz-adv-x="614" 
d="M500 -319h-119q-98 0 -160 60q-61 60 -61 196v374q0 229 -160 230v98q160 0 160 229v375q0 135 61 195t160 61h119v-90h-99q-133 0 -133 -182v-377q0 -127 -54 -188t-114 -70v-4q60 -8 114 -70t54 -188v-377q0 -182 133 -182h99v-90z" />
    <glyph glyph-name="bar" unicode="|" horiz-adv-x="454" 
d="M276 -512h-98v2048h98v-2048z" />
    <glyph glyph-name="braceright" unicode="}" horiz-adv-x="614" 
d="M233 -319h-118v90h98q133 0 133 182v377q0 127 54 188t114 70v4q-60 8 -114 70t-54 188v377q0 182 -133 182h-98v90h118q97 0 159 -60t63 -196v-375q0 -229 159 -229v-98q-160 0 -159 -230v-374q0 -135 -62 -195t-160 -61z" />
    <glyph glyph-name="asciitilde" unicode="~" horiz-adv-x="1363" 
d="M905 492q-115 0 -207 61t-137 79t-96 19q-125 0 -209 -155l-72 65q127 190 277 191q113 0 233 -81t207 -81q115 0 209 158l70 -68q-119 -188 -275 -188z" />
    <glyph glyph-name="uni00A0" unicode="&#xa0;" horiz-adv-x="520" 
 />
    <glyph glyph-name="exclamdown" unicode="&#xa1;" horiz-adv-x="638" 
d="M319 811q-39 0 -65 28q-26 27 -27 65q0 38 27 66q28 28 66 28t65 -28t27 -66t-27 -66t-66 -27zM379 -465h-117v1055h117v-1055z" />
    <glyph glyph-name="cent" unicode="&#xa2;" horiz-adv-x="1085" 
d="M248 476q0 -154 85 -265q85 -110 226 -133v799q-143 -25 -227 -136t-84 -265zM649 -147h-90v124q-195 19 -311 157t-115 341q0 203 118 341t308 159v131h90v-127q205 -10 318 -150l-74 -67q-88 111 -244 121v-809q152 8 254 114l70 -63q-123 -143 -324 -152v-120z" />
    <glyph glyph-name="sterling" unicode="&#xa3;" horiz-adv-x="1062" 
d="M946 0h-864v98h213v602h-197v99h197v217q0 203 101 337t315 134q178 0 290 -113l-71 -82q-88 94 -212 94t-194 -63t-92 -142t-20 -175v-207h346v-99h-346v-602h534v-98z" />
    <glyph glyph-name="currency" unicode="&#xa4;" horiz-adv-x="1724" 
d="M864 223q176 0 286 118t110 291t-109 290q-109 116 -287 116t-286 -116t-109 -290q-1 -173 109 -291t286 -118zM865 1149q196 0 331 -117q20 18 55 54t77 78t54 55l74 -72l-184 -184q108 -137 108 -333t-116 -335l192 -193l-72 -71q-170 172 -194 192
q-136 -109 -326 -109t-327 113l-199 -196l-70 71l197 197q-113 131 -113 329t105 330l-189 189l72 72l188 -189q141 119 337 119z" />
    <glyph glyph-name="yen" unicode="&#xa5;" horiz-adv-x="1146" 
d="M629 0h-111v367h-354v90h354v231h-354v88h319l-467 674h144l418 -633l413 633h139l-462 -674h315v-88h-354v-231h354v-90h-354v-367z" />
    <glyph glyph-name="brokenbar" unicode="&#xa6;" horiz-adv-x="454" 
d="M276 -356h-96v704h96v-704zM276 678h-96v704h96v-704z" />
    <glyph glyph-name="section" unicode="&#xa7;" horiz-adv-x="1175" 
d="M862 572q0 88 -55 138t-166 97l-113 47q-82 -8 -146 -60t-65 -142t55 -137q56 -46 179 -95l121 -53q78 12 134 64t56 141zM203 638q0 106 65 179q66 72 164 101q-78 41 -126 98t-48 155q0 152 106 235t244 83t222 -48t122 -126l-94 -53q-63 129 -237 129q-107 1 -177 -55
t-70 -155t70 -152q47 -35 152 -81l143 -67q115 -53 176 -121t61 -173t-60 -177t-150 -97q168 -90 168 -254q0 -163 -109 -247t-254 -84q-294 0 -399 206l104 56q76 -164 283 -164q102 0 180 53t78 164q0 137 -190 219l-205 98q-109 48 -164 110t-55 168z" />
    <glyph glyph-name="dieresis" unicode="&#xa8;" 
d="M430 1243q-38 0 -62 27q-24 26 -24 62t25 63t61 27t63 -28q25 -26 25 -62t-26 -62t-62 -27zM61 1243q-37 0 -63 27q-26 26 -25 62q0 36 26 63q27 27 63 27t61 -28q25 -26 25 -62t-26 -62q-24 -26 -61 -27z" />
    <glyph glyph-name="copyright" unicode="&#xa9;" horiz-adv-x="1638" 
d="M1497 724q0 280 -198 478q-199 198 -479 199q-280 0 -480 -199q-200 -198 -199 -478q0 -280 200 -478q201 -198 481 -197q280 -1 478 197t197 478zM1597 724q0 -320 -227 -544t-550 -225q-323 0 -551 224t-228 545t228 546t551 225t550 -225q227 -226 227 -546zM844 268
q-197 0 -327 131t-130 331t130 331t327 131q94 0 180 -40t137 -110l-86 -65q-37 49 -99 83t-130 34q-154 0 -250 -106t-96 -258q0 -151 94 -257q94 -107 248 -107t248 123l84 -57q-54 -74 -140 -119t-190 -45z" />
    <glyph glyph-name="ordfeminine" unicode="&#xaa;" horiz-adv-x="731" 
d="M514 1133v38h-31q-299 0 -299 -124q0 -102 138 -103q88 0 140 54t52 135zM516 981h-4q-68 -113 -213 -113q-84 0 -147 43q-64 43 -64 119q-1 141 137 178q117 31 289 31v18q0 70 -43 106t-117 36q-111 0 -180 -70l-53 62q90 84 224 84q135 -1 197 -61t62 -161v-252
q0 -77 8 -118h-86q-10 45 -10 98z" />
    <glyph glyph-name="guillemotleft" unicode="&#xab;" horiz-adv-x="987" 
d="M842 123l-78 -53l-277 419l277 420l78 -53l-236 -367zM479 123l-78 -53l-276 419l276 420l76 -53l-233 -367z" />
    <glyph glyph-name="logicalnot" unicode="&#xac;" horiz-adv-x="1159" 
d="M1016 829v-561h-101v465h-782v96h883z" />
    <glyph glyph-name="uni00AD" unicode="&#xad;" horiz-adv-x="643" 
d="M537 457h-431v94h431v-94z" />
    <glyph glyph-name="registered" unicode="&#xae;" horiz-adv-x="1228" 
d="M518 1036h84q127 0 127 88q0 82 -111 82h-100v-170zM518 973v-221h-78v522h181q82 0 134 -37t52 -105t-35 -103q-35 -36 -90 -46l145 -231h-96l-131 221h-82zM1016 1011q0 165 -118 283t-284 117q-166 0 -284 -118q-118 -119 -117 -283q0 -164 118 -283
q117 -119 283 -119t284 119t118 284zM1081 1010q0 -193 -136 -327t-331 -134q-194 0 -330 134t-137 327q1 192 137 328t330 136t331 -135q136 -136 136 -329z" />
    <glyph glyph-name="macron" unicode="&#xaf;" 
d="M510 1241h-528v90h528v-90z" />
    <glyph glyph-name="degree" unicode="&#xb0;" horiz-adv-x="819" 
d="M631 1169q0 92 -65 157q-64 65 -156 65t-157 -65t-65 -157q0 -93 65 -157t157 -64t156 64t65 157zM713 1169q0 -129 -87 -216t-216 -87t-216 87t-88 216q0 129 88 216t216 87q129 0 216 -86q87 -88 87 -217z" />
    <glyph glyph-name="plusminus" unicode="&#xb1;" horiz-adv-x="1159" 
d="M135 98v99h887v-99h-887zM133 709v98h395v344h101v-344h397v-98h-397v-336h-101v336h-395z" />
    <glyph glyph-name="twosuperior" unicode="&#xb2;" horiz-adv-x="737" 
d="M651 924h-575v65l321 316q80 76 115 132t35 126q0 69 -48 117t-134 48q-85 0 -135 -58t-50 -163h-92q0 143 79 223t203 80t198 -68t75 -181q0 -76 -41 -146t-141 -166l-246 -243h436v-82z" />
    <glyph glyph-name="threesuperior" unicode="&#xb3;" horiz-adv-x="735" 
d="M342 1370h-57v74h53q84 0 128 39t44 102t-41 105t-105 43q-64 0 -105 -39q-40 -39 -42 -103h-86q2 99 71 159t165 60q97 0 165 -60t68 -151q0 -125 -117 -182q76 -31 124 -95t48 -144q0 -121 -82 -198t-207 -77q-126 0 -212 79t-88 216h88q2 -98 61 -156t148 -59
q89 0 146 54q56 55 56 137t-60 139q-61 57 -163 57z" />
    <glyph glyph-name="acute" unicode="&#xb4;" 
d="M236 1155h-97l207 295h148z" />
    <glyph glyph-name="mu" unicode="&#xb5;" horiz-adv-x="1138" 
d="M856 0v182h-4q-45 -90 -139 -149t-197 -60q-160 0 -248 95v-535h-106v1421h106v-540q0 -170 62 -256t204 -86q144 0 233 106t89 291v485h109v-735q0 -88 8 -219h-117z" />
    <glyph glyph-name="paragraph" unicode="&#xb6;" horiz-adv-x="1228" 
d="M1036 -258h-108v1620h-273v-1620h-108v920q-188 0 -310 108t-122 268q0 196 124 304t341 108h456v-1708z" />
    <glyph glyph-name="periodcentered" unicode="&#xb7;" horiz-adv-x="579" 
d="M383 606q0 -36 -27 -64q-28 -28 -66 -28t-65 28t-27 64t27 66q27 28 66 28t65 -28t27 -66z" />
    <glyph glyph-name="cedilla" unicode="&#xb8;" 
d="M360 -297q0 88 -122 88q-57 0 -105 -20l-31 26l131 203h74l-102 -160q31 10 91 10t111 -38q52 -38 52 -118q0 -81 -72 -122t-170 -41t-186 41l26 63q69 -33 139 -33t117 26q47 24 47 75z" />
    <glyph glyph-name="onesuperior" unicode="&#xb9;" horiz-adv-x="524" 
d="M326 924h-95v786h-188v80h283v-866z" />
    <glyph glyph-name="ordmasculine" unicode="&#xba;" horiz-adv-x="731" 
d="M156 1171q0 -95 56 -161t154 -66q97 0 153 66t56 162t-55 161q-55 66 -153 66q-99 0 -155 -66t-56 -162zM59 1172q0 132 87 218q86 86 220 85q134 1 220 -85t86 -218t-86 -218t-219 -86t-221 86q-87 86 -87 218z" />
    <glyph glyph-name="guillemotright" unicode="&#xbb;" horiz-adv-x="987" 
d="M223 70l-78 53l236 366l-236 367l78 55l277 -422zM586 70l-78 53l235 366l-235 367l78 55l276 -422z" />
    <glyph glyph-name="onequarter" unicode="&#xbc;" horiz-adv-x="1486" 
d="M1214 248v497h-2l-350 -497h352zM1300 0h-86v170h-456v61l450 635h92v-618h91v-78h-91v-170zM346 584h-94v786h-189v80h283v-866zM307 -61l-86 45l918 1527l84 -45z" />
    <glyph glyph-name="onehalf" unicode="&#xbd;" horiz-adv-x="1552" 
d="M1462 0h-575v66l321 315q80 76 115 132t35 126t-48 118t-134 48q-86 -1 -136 -59t-49 -162h-92q0 143 79 223t203 80q125 0 199 -68t74 -184q0 -76 -41 -147t-141 -162l-252 -246h442v-80zM330 582h-94v788h-189v80h283v-868zM281 -61l-86 45l917 1527l84 -45z" />
    <glyph glyph-name="threequarters" unicode="&#xbe;" horiz-adv-x="1697" 
d="M1427 248v497h-2l-350 -497h352zM1513 0h-86v170h-456v61l450 635h92v-618h91v-78h-91v-170zM399 1030h-57v74h53q84 0 128 39t44 102t-41 105t-105 43q-65 0 -105 -39t-42 -103h-86q2 99 71 159t165 60t165 -60t68 -150q0 -125 -116 -183q76 -31 124 -95t48 -144
q0 -121 -82 -198t-207 -77t-212 79t-89 216h88q2 -98 61 -156q58 -58 148 -59q90 0 146 54q56 55 56 137t-60 139q-61 57 -163 57zM549 -61l-86 45l917 1527l84 -45z" />
    <glyph glyph-name="questiondown" unicode="&#xbf;" horiz-adv-x="980" 
d="M487 811q-39 0 -65 28q-26 27 -25 65q0 38 26 66q27 28 65 28t65 -28t27 -66t-27 -66t-66 -27zM96 -137q0 81 29 147t60 100q32 34 113 102t113 122q32 55 31 160v94h115v-119q0 -96 -40 -166t-118 -137l-61 -53q-125 -105 -125 -235t79 -200q78 -70 196 -70t195 72
q77 70 93 185l111 -19q-29 -158 -137 -248t-271 -92q-163 0 -273 96t-110 261z" />
    <glyph glyph-name="Agrave" unicode="&#xc0;" horiz-adv-x="1413" 
d="M766 1565h-96l-258 295h147zM1051 498l-342 829l-349 -829h691zM1386 0h-129l-163 391h-777l-163 -391h-129l628 1450h117z" />
    <glyph glyph-name="Aacute" unicode="&#xc1;" horiz-adv-x="1413" 
d="M754 1565h-97l207 295h148zM1051 498l-342 829l-349 -829h691zM1386 0h-129l-163 391h-777l-163 -391h-129l628 1450h117z" />
    <glyph glyph-name="Acircumflex" unicode="&#xc2;" horiz-adv-x="1413" 
d="M991 1565h-108l-176 235l-177 -235h-108l219 295h131zM1051 498l-342 829l-349 -829h691zM1386 0h-129l-163 391h-777l-163 -391h-129l628 1450h117z" />
    <glyph glyph-name="Atilde" unicode="&#xc3;" horiz-adv-x="1413" 
d="M850 1606q-47 0 -145 48t-132 48q-74 0 -96 -103h-71q31 193 167 193q45 0 145 -48t132 -48q71 0 94 100h72q-31 -190 -166 -190zM1051 498l-342 829l-349 -829h691zM1386 0h-129l-163 391h-777l-163 -391h-129l628 1450h117z" />
    <glyph glyph-name="Adieresis" unicode="&#xc4;" horiz-adv-x="1413" 
d="M895 1653q-37 1 -61 27t-25 62q0 36 25 62q26 26 62 27q36 0 62 -27q26 -26 25 -62q1 -36 -25 -62t-63 -27zM526 1653q-36 1 -62 27t-26 62t26 62t62 27q36 0 62 -27q24 -26 24 -62t-24 -63q-25 -26 -62 -26zM1051 498l-342 829l-349 -829h691zM1386 0h-129l-163 391
h-777l-163 -391h-129l628 1450h117z" />
    <glyph glyph-name="Aring" unicode="&#xc5;" horiz-adv-x="1413" 
d="M842 1741q0 55 -39 94t-94 39t-95 -39t-39 -94q0 -55 39 -94q38 -39 94 -39t95 39t39 94zM905 1741q0 -82 -58 -138q-58 -57 -138 -57q-81 0 -139 56t-58 139q0 82 58 138t138 56t139 -56q58 -56 58 -138zM1051 498l-342 829l-349 -829h691zM1386 0h-129l-163 391h-777
l-163 -391h-129l628 1450h117z" />
    <glyph glyph-name="AE" unicode="&#xc6;" horiz-adv-x="2013" 
d="M1047 514v832h-13l-536 -832h549zM1903 0h-856v410h-611l-266 -410h-133l942 1450h895v-104h-711v-541h662v-103h-662v-598h740v-104z" />
    <glyph glyph-name="Ccedilla" unicode="&#xc7;" horiz-adv-x="1476" 
d="M956 -297q0 88 -122 88q-57 0 -105 -20l-31 26l107 166q-301 23 -491 235q-189 212 -189 536t213 539q213 216 536 216q160 0 291 -55t209 -156l-84 -78q-66 82 -176 133t-237 51q-283 0 -456 -191t-173 -467t173 -468t451 -192t449 213l80 -64q-193 -252 -522 -254
l-78 -121q31 10 91 10t110 -38q52 -38 52 -118q0 -81 -71 -122q-72 -41 -170 -41t-186 41l26 63q69 -33 139 -33t117 26q47 24 47 75z" />
    <glyph glyph-name="Egrave" unicode="&#xc8;" horiz-adv-x="1210" 
d="M745 1565h-96l-258 295h148zM1110 0h-909v1450h882v-104h-768v-541h719v-103h-719v-598h795v-104z" />
    <glyph glyph-name="Eacute" unicode="&#xc9;" horiz-adv-x="1210" 
d="M653 1565h-96l207 295h147zM1110 0h-909v1450h882v-104h-768v-541h719v-103h-719v-598h795v-104z" />
    <glyph glyph-name="Ecircumflex" unicode="&#xca;" horiz-adv-x="1210" 
d="M930 1565h-109l-176 235l-176 -235h-109l220 295h131zM1110 0h-909v1450h882v-104h-768v-541h719v-103h-719v-598h795v-104z" />
    <glyph glyph-name="Edieresis" unicode="&#xcb;" horiz-adv-x="1210" 
d="M831 1653q-37 1 -61 27t-25 62q0 36 25 62q26 26 62 27q36 0 62 -27q26 -26 26 -62t-26 -62t-63 -27zM463 1653q-37 1 -63 27t-26 62t26 62t63 27q37 0 61 -27q24 -26 25 -62q-1 -36 -25 -62t-61 -27zM1110 0h-909v1450h882v-104h-768v-541h719v-103h-719v-598h795v-104z
" />
    <glyph glyph-name="Igrave" unicode="&#xcc;" horiz-adv-x="516" 
d="M315 1565h-96l-258 295h148zM317 0h-116v1450h116v-1450z" />
    <glyph glyph-name="Iacute" unicode="&#xcd;" horiz-adv-x="516" 
d="M295 1565h-96l207 295h147zM317 0h-116v1450h116v-1450z" />
    <glyph glyph-name="Icircumflex" unicode="&#xce;" horiz-adv-x="516" 
d="M541 1565h-109l-176 235l-176 -235h-109l219 295h132zM317 0h-116v1450h116v-1450z" />
    <glyph glyph-name="Idieresis" unicode="&#xcf;" horiz-adv-x="516" 
d="M442 1653q-38 1 -62 27t-24 62t25 62t61 27q36 0 63 -27q25 -26 25 -62t-25 -63q-26 -26 -63 -26zM74 1653q-37 1 -63 27q-25 26 -25 62t26 62t62 27q38 0 62 -27q24 -26 24 -62t-24 -62t-62 -27zM317 0h-116v1450h116v-1450z" />
    <glyph glyph-name="Eth" unicode="&#xd0;" horiz-adv-x="1558" 
d="M305 106h307q320 0 502 174t182 446q0 273 -181 445t-503 172h-307v-536h535v-90h-535v-611zM649 0h-461v717h-153v90h153v643h461q308 0 532 -177q109 -87 175 -229t66 -319q0 -176 -66 -318q-121 -263 -421 -362q-136 -45 -286 -45z" />
    <glyph glyph-name="Ntilde" unicode="&#xd1;" horiz-adv-x="1572" 
d="M934 1606q-48 0 -146 48t-131 48q-74 0 -96 -103h-72q31 193 168 193q45 0 145 -48t132 -48q71 0 94 100h72q-31 -190 -166 -190zM1372 0h-147l-903 1290h-5v-1290h-116v1450h147l903 -1282h4v1282h117v-1450z" />
    <glyph glyph-name="Ograve" unicode="&#xd2;" horiz-adv-x="1755" 
d="M1004 1565h-97l-258 295h148zM248 726q0 -276 174 -468t456 -192t456 191t173 467q0 276 -175 468q-176 192 -456 192t-454 -191t-174 -467zM1630 725q0 -332 -214 -548t-538 -216q-325 0 -539 216t-214 548t214 548t539 216q324 0 538 -216t214 -548z" />
    <glyph glyph-name="Oacute" unicode="&#xd3;" horiz-adv-x="1755" 
d="M874 1565h-96l207 295h148zM248 726q0 -276 174 -468t456 -192t456 191t173 467q0 276 -175 468q-176 192 -456 192t-454 -191t-174 -467zM1630 725q0 -332 -214 -548t-538 -216q-325 0 -539 216t-214 548t214 548t539 216q324 0 538 -216t214 -548z" />
    <glyph glyph-name="Ocircumflex" unicode="&#xd4;" horiz-adv-x="1755" 
d="M1161 1565h-108l-176 235l-177 -235h-108l219 295h131zM248 726q0 -276 174 -468t456 -192t456 191t173 467q0 276 -175 468q-176 192 -456 192t-454 -191t-174 -467zM1630 725q0 -332 -214 -548t-538 -216q-325 0 -539 216t-214 548t214 548t539 216q324 0 538 -216
t214 -548z" />
    <glyph glyph-name="Otilde" unicode="&#xd5;" horiz-adv-x="1755" 
d="M1018 1606q-48 0 -146 48t-131 48q-74 0 -96 -103h-72q31 193 168 193q45 0 145 -48t132 -48q71 0 94 100h72q-31 -190 -166 -190zM248 726q0 -276 174 -468t456 -192t456 191t173 467q0 276 -175 468q-176 192 -456 192t-454 -191t-174 -467zM1630 725q0 -332 -214 -548
t-538 -216q-325 0 -539 216t-214 548t214 548t539 216q324 0 538 -216t214 -548z" />
    <glyph glyph-name="Odieresis" unicode="&#xd6;" horiz-adv-x="1755" 
d="M1063 1653q-37 1 -62 27t-25 62t26 62q24 26 61 27q37 0 63 -27q26 -26 25 -62q1 -36 -25 -62t-63 -27zM694 1653q-36 1 -62 27t-26 62t26 62t62 27q36 0 62 -27q24 -26 24 -62t-24 -63q-25 -26 -62 -26zM248 726q0 -276 174 -468t456 -192t456 191t173 467
q0 276 -175 468q-176 192 -456 192t-454 -191t-174 -467zM1630 725q0 -332 -214 -548t-538 -216q-325 0 -539 216t-214 548t214 548t539 216q324 0 538 -216t214 -548z" />
    <glyph glyph-name="multiply" unicode="&#xd7;" horiz-adv-x="1159" 
d="M242 1032l338 -338l338 338l69 -69l-338 -340l338 -338l-69 -70l-338 338l-338 -338l-68 70l338 338l-338 340z" />
    <glyph glyph-name="Oslash" unicode="&#xd8;" horiz-adv-x="1755" 
d="M877 1384q-283 0 -456 -191t-173 -466t160 -453l876 967q-164 143 -407 143zM877 66q285 0 457 191t173 467q0 276 -164 456l-876 -967q168 -147 410 -147zM125 730q0 327 214 543t538 216q281 0 481 -166l151 164l62 -55l-150 -166q209 -215 209 -544t-214 -545
t-539 -216q-283 0 -486 170l-151 -164l-62 58l150 165q-203 213 -203 540z" />
    <glyph glyph-name="Ugrave" unicode="&#xd9;" horiz-adv-x="1468" 
d="M842 1565h-97l-258 295h148zM1163 557v893h117v-907q0 -219 -112 -389q-58 -88 -170 -140t-264 -53q-152 0 -264 52q-112 53 -170 141q-112 171 -112 389v907h117v-893q0 -362 254 -462q75 -29 185 -29t197 43q153 75 202 271q20 83 20 177z" />
    <glyph glyph-name="Uacute" unicode="&#xda;" horiz-adv-x="1468" 
d="M733 1565h-96l207 295h147zM1163 557v893h117v-907q0 -219 -112 -389q-58 -88 -170 -140t-264 -53q-152 0 -264 52q-112 53 -170 141q-112 171 -112 389v907h117v-893q0 -362 254 -462q75 -29 185 -29t197 43q153 75 202 271q20 83 20 177z" />
    <glyph glyph-name="Ucircumflex" unicode="&#xdb;" horiz-adv-x="1468" 
d="M1018 1565h-109l-176 235l-176 -235h-108l219 295h131zM1163 557v893h117v-907q0 -219 -112 -389q-58 -88 -170 -140t-264 -53q-152 0 -264 52q-112 53 -170 141q-112 171 -112 389v907h117v-893q0 -362 254 -462q75 -29 185 -29t197 43q153 75 202 271q20 83 20 177z
" />
    <glyph glyph-name="Udieresis" unicode="&#xdc;" horiz-adv-x="1468" 
d="M920 1653q-37 1 -62 27q-24 26 -24 62t24 62t62 27q36 0 62 -27q26 -26 26 -62t-26 -62t-62 -27zM551 1653q-37 1 -63 27t-26 62t26 62t63 27q37 0 61 -27q24 -26 25 -62q-1 -36 -25 -62t-61 -27zM1163 557v893h117v-907q0 -219 -112 -389q-58 -88 -170 -140t-264 -53
q-152 0 -264 52q-112 53 -170 141q-112 171 -112 389v907h117v-893q0 -362 254 -462q75 -29 185 -29t197 43q153 75 202 271q20 83 20 177z" />
    <glyph glyph-name="Yacute" unicode="&#xdd;" horiz-adv-x="1193" 
d="M645 1565h-96l207 295h147zM655 0h-116v627l-531 823h146l446 -723l449 723h135l-529 -823v-627z" />
    <glyph glyph-name="Thorn" unicode="&#xde;" horiz-adv-x="1183" 
d="M317 469h279q168 0 264 72t96 212t-98 208t-266 67h-275v-559zM317 0h-116v1450h116v-320h287q215 0 346 -94t131 -282t-129 -288t-342 -99h-293v-367z" />
    <glyph glyph-name="germandbls" unicode="&#xdf;" horiz-adv-x="1218" 
d="M614 72q172 0 274 102q101 102 101 282t-110 275q-111 96 -295 96h-23v99h23q135 0 219 72t84 202q0 131 -79 203q-78 72 -184 72q-193 0 -259 -115t-66 -254v-1106h-111v1110q0 184 93 317q47 68 132 107t199 39q162 0 275 -98t112 -263q0 -252 -249 -329v-4
q158 -17 257 -133t99 -313t-131 -327t-350 -129q-66 1 -109 9v94q61 -8 98 -8z" />
    <glyph glyph-name="agrave" unicode="&#xe0;" horiz-adv-x="1079" 
d="M662 1155h-97l-258 295h148zM795 412v77h-72q-489 0 -490 -225q0 -102 71 -150t169 -48q156 0 239 102t83 244zM801 176h-4q-113 -203 -351 -203q-127 0 -227 72t-100 213q0 199 185 263q153 55 394 57h97v43q0 266 -271 266q-168 0 -284 -113l-62 74q135 131 357 131
q166 0 266 -88t100 -258v-418q1 -129 17 -215h-101q-16 98 -16 176z" />
    <glyph glyph-name="aacute" unicode="&#xe1;" horiz-adv-x="1079" 
d="M547 1155h-96l206 295h148zM795 412v77h-72q-489 0 -490 -225q0 -102 71 -150t169 -48q156 0 239 102t83 244zM801 176h-4q-113 -203 -351 -203q-127 0 -227 72t-100 213q0 199 185 263q153 55 394 57h97v43q0 266 -271 266q-168 0 -284 -113l-62 74q135 131 357 131
q166 0 266 -88t100 -258v-418q1 -129 17 -215h-101q-16 98 -16 176z" />
    <glyph glyph-name="acircumflex" unicode="&#xe2;" horiz-adv-x="1079" 
d="M821 1155h-108l-176 236l-177 -236h-108l219 295h131zM795 412v77h-72q-489 0 -490 -225q0 -102 71 -150t169 -48q156 0 239 102t83 244zM801 176h-4q-113 -203 -351 -203q-127 0 -227 72t-100 213q0 199 185 263q153 55 394 57h97v43q0 266 -271 266q-168 0 -284 -113
l-62 74q135 131 357 131q166 0 266 -88t100 -258v-418q1 -129 17 -215h-101q-16 98 -16 176z" />
    <glyph glyph-name="atilde" unicode="&#xe3;" horiz-adv-x="1079" 
d="M674 1196q-48 0 -146 48t-131 48q-74 0 -96 -102h-72q31 193 168 192q45 0 145 -48t132 -48q71 0 94 100h72q-31 -190 -166 -190zM795 412v77h-72q-489 0 -490 -225q0 -102 71 -150t169 -48q156 0 239 102t83 244zM801 176h-4q-113 -203 -351 -203q-127 0 -227 72
t-100 213q0 199 185 263q153 55 394 57h97v43q0 266 -271 266q-168 0 -284 -113l-62 74q135 131 357 131q166 0 266 -88t100 -258v-418q1 -129 17 -215h-101q-16 98 -16 176z" />
    <glyph glyph-name="adieresis" unicode="&#xe4;" horiz-adv-x="1079" 
d="M721 1243q-37 0 -62 27q-25 26 -25 62t25 63t62 27t63 -28q26 -26 25 -62q1 -36 -25 -62t-63 -27zM352 1243q-36 0 -62 27q-26 26 -26 62t26 63t62 27t62 -28q24 -26 24 -62t-24 -62t-62 -27zM795 412v77h-72q-489 0 -490 -225q0 -102 71 -150t169 -48q156 0 239 102
t83 244zM801 176h-4q-113 -203 -351 -203q-127 0 -227 72t-100 213q0 199 185 263q153 55 394 57h97v43q0 266 -271 266q-168 0 -284 -113l-62 74q135 131 357 131q166 0 266 -88t100 -258v-418q1 -129 17 -215h-101q-16 98 -16 176z" />
    <glyph glyph-name="aring" unicode="&#xe5;" horiz-adv-x="1079" 
d="M668 1331q0 55 -39 94t-94 39t-95 -39t-39 -94q0 -55 39 -94q38 -39 94 -39t95 39t39 94zM731 1331q0 -82 -58 -138t-138 -56t-139 56q-58 56 -58 138t58 138q58 57 138 57t139 -56q58 -56 58 -139zM795 412v77h-72q-489 0 -490 -225q0 -102 71 -150t169 -48
q156 0 239 102t83 244zM801 176h-4q-113 -203 -351 -203q-127 0 -227 72t-100 213q0 199 185 263q153 55 394 57h97v43q0 266 -271 266q-168 0 -284 -113l-62 74q135 131 357 131q166 0 266 -88t100 -258v-418q1 -129 17 -215h-101q-16 98 -16 176z" />
    <glyph glyph-name="ae" unicode="&#xe6;" horiz-adv-x="1787" 
d="M1240 887q-142 -1 -238 -109t-99 -233h653q-2 152 -88 247t-228 95zM795 379v76h-74q-361 0 -447 -97q-39 -43 -38 -108q0 -98 68 -141t173 -43q160 0 239 87t79 226zM1251 -25q-139 0 -241 68t-150 184q-84 -254 -399 -254q-139 0 -240 69q-100 69 -100 206
q0 178 181 240q148 51 382 57h111v49q0 135 -69 214t-198 79q-168 0 -295 -113l-63 72q66 59 165 96t217 37t203 -59t115 -164q56 102 154 162t215 61q205 0 317 -134t113 -333q0 -45 -2 -57h-768q2 -158 99 -272t253 -113q98 0 178 46t127 120l80 -64q-150 -197 -385 -197z
" />
    <glyph glyph-name="ccedilla" unicode="&#xe7;" horiz-adv-x="1011" 
d="M584 -209q-57 0 -105 -20l-30 26l114 178q-203 15 -323 155t-121 352q0 212 138 354t358 143q220 0 339 -150l-73 -67q-43 55 -116 90t-149 35q-170 0 -275 -118t-105 -292t104 -291q104 -116 270 -116t281 118l70 -63q-123 -143 -326 -152l-84 -133q31 10 91 10t111 -38
q52 -38 52 -118q0 -81 -72 -122t-170 -41t-186 41l26 63q69 -33 139 -33t117 26q47 24 48 75q0 88 -123 88z" />
    <glyph glyph-name="egrave" unicode="&#xe8;" horiz-adv-x="1161" 
d="M682 1155h-96l-258 295h147zM602 -27q-209 -1 -346 143t-137 361t136 359t344 143q208 0 326 -134t117 -333v-57h-809q5 -158 107 -272t266 -113q191 -1 328 161l74 -59q-154 -199 -406 -199zM591 887q-153 1 -251 -107t-104 -237h696q-6 154 -97 249t-244 95z" />
    <glyph glyph-name="eacute" unicode="&#xe9;" horiz-adv-x="1161" 
d="M614 1155h-96l207 295h147zM602 -27q-209 -1 -346 143t-137 361t136 359t344 143q208 0 326 -134t117 -333v-57h-809q5 -158 107 -272t266 -113q191 -1 328 161l74 -59q-154 -199 -406 -199zM591 887q-153 1 -251 -107t-104 -237h696q-6 154 -97 249t-244 95z" />
    <glyph glyph-name="ecircumflex" unicode="&#xea;" horiz-adv-x="1161" 
d="M889 1155h-109l-176 236l-176 -236h-109l220 295h131zM602 -27q-209 -1 -346 143t-137 361t136 359t344 143q208 0 326 -134t117 -333v-57h-809q5 -158 107 -272t266 -113q191 -1 328 161l74 -59q-154 -199 -406 -199zM591 887q-153 1 -251 -107t-104 -237h696
q-6 154 -97 249t-244 95z" />
    <glyph glyph-name="edieresis" unicode="&#xeb;" horiz-adv-x="1161" 
d="M786 1243q-38 0 -62 27q-24 26 -24 62t25 63t61 27t63 -28q25 -26 25 -62t-26 -62t-62 -27zM418 1243q-37 0 -63 27q-25 26 -25 62t25 63q26 27 63 27q38 0 62 -28q24 -26 24 -62t-24 -62t-62 -27zM602 -27q-209 -1 -346 143t-137 361t136 359t344 143q208 0 326 -134
t117 -333v-57h-809q5 -158 107 -272t266 -113q191 -1 328 161l74 -59q-154 -199 -406 -199zM591 887q-153 1 -251 -107t-104 -237h696q-6 154 -97 249t-244 95z" />
    <glyph glyph-name="igrave" unicode="&#xec;" horiz-adv-x="497" 
d="M303 1155h-96l-258 295h147zM305 0h-112v954h112v-954z" />
    <glyph glyph-name="iacute" unicode="&#xed;" horiz-adv-x="497" 
d="M289 1155h-96l206 295h148zM305 0h-112v954h112v-954z" />
    <glyph glyph-name="icircumflex" unicode="&#xee;" horiz-adv-x="497" 
d="M537 1155h-109l-176 236l-176 -236h-109l219 295h131zM305 0h-112v954h112v-954z" />
    <glyph glyph-name="idieresis" unicode="&#xef;" horiz-adv-x="497" 
d="M434 1243q-38 0 -62 27q-24 26 -24 62t25 63t61 27t63 -28q25 -26 25 -62t-26 -62t-62 -27zM66 1243q-37 0 -63 27q-26 26 -26 62t26 63t63 27q38 0 62 -28q24 -26 24 -62t-24 -62t-62 -27zM305 0h-112v954h112v-954z" />
    <glyph glyph-name="eth" unicode="&#xf0;" horiz-adv-x="1247" 
d="M1114 516q0 -228 -129 -385q-129 -158 -361 -158q-232 -1 -375 143t-143 362t142 360t362 141q183 0 326 -129l6 4q-55 125 -144 246t-186 205l-229 -119l-57 59l225 119q-84 80 -203 160l94 61q121 -90 203 -168l211 111l68 -58l-211 -114q165 -156 283 -384t118 -456z
M611 72q175 0 281 115q105 116 105 290t-105 289q-104 115 -280 115t-282 -115t-106 -289q0 -173 106 -289t281 -116z" />
    <glyph glyph-name="ntilde" unicode="&#xf1;" horiz-adv-x="1183" 
d="M739 1196q-47 0 -145 48t-131 48q-74 0 -96 -102h-72q31 193 168 192q45 0 145 -48t131 -48q72 0 95 100h71q-31 -190 -166 -190zM1001 0h-110v541q0 344 -270 344q-133 -1 -225 -105t-91 -295v-485h-112v735q0 135 -9 219h107q8 -106 8 -190h4q41 96 137 156t205 59
q178 0 267 -109t89 -288v-582z" />
    <glyph glyph-name="ograve" unicode="&#xf2;" horiz-adv-x="1247" 
d="M705 1155h-97l-258 295h148zM624 74q175 0 281 114t107 289q0 174 -106 290t-282 116t-282 -116t-106 -290t106 -289q107 -114 282 -114zM121 478q0 218 140 360q139 142 361 141q222 1 363 -141t141 -360t-141 -361t-361 -143t-362 142q-142 144 -141 362z" />
    <glyph glyph-name="oacute" unicode="&#xf3;" horiz-adv-x="1247" 
d="M639 1155h-96l207 295h147zM624 74q175 0 281 114t107 289q0 174 -106 290t-282 116t-282 -116t-106 -290t106 -289q107 -114 282 -114zM121 478q0 218 140 360q139 142 361 141q222 1 363 -141t141 -360t-141 -361t-361 -143t-362 142q-142 144 -141 362z" />
    <glyph glyph-name="ocircumflex" unicode="&#xf4;" horiz-adv-x="1247" 
d="M907 1155h-108l-176 236l-177 -236h-108l219 295h131zM624 74q175 0 281 114t107 289q0 174 -106 290t-282 116t-282 -116t-106 -290t106 -289q107 -114 282 -114zM121 478q0 218 140 360q139 142 361 141q222 1 363 -141t141 -360t-141 -361t-361 -143t-362 142
q-142 144 -141 362z" />
    <glyph glyph-name="otilde" unicode="&#xf5;" horiz-adv-x="1247" 
d="M764 1196q-48 0 -146 48t-131 48q-74 0 -96 -102h-72q31 193 168 192q45 0 145 -48t132 -48q71 0 94 100h72q-31 -190 -166 -190zM624 74q175 0 281 114t107 289q0 174 -106 290t-282 116t-282 -116t-106 -290t106 -289q107 -114 282 -114zM121 478q0 218 140 360
q139 142 361 141q222 1 363 -141t141 -360t-141 -361t-361 -143t-362 142q-142 144 -141 362z" />
    <glyph glyph-name="odieresis" unicode="&#xf6;" horiz-adv-x="1247" 
d="M809 1243q-37 0 -61 27q-24 26 -25 62q0 36 25 63q26 27 62 27t62 -28q26 -26 25 -62q1 -36 -25 -62t-63 -27zM440 1243q-36 0 -62 27q-26 26 -26 62t26 63t62 27t62 -28q24 -26 24 -62t-24 -62t-62 -27zM624 74q175 0 281 114t107 289q0 174 -106 290t-282 116
t-282 -116t-106 -290t106 -289q107 -114 282 -114zM121 478q0 218 140 360q139 142 361 141q222 1 363 -141t141 -360t-141 -361t-361 -143t-362 142q-142 144 -141 362z" />
    <glyph glyph-name="divide" unicode="&#xf7;" horiz-adv-x="1159" 
d="M481 287q0 41 28 71t70 29q41 -1 71 -31t30 -70t-29 -71t-71 -31t-70 31q-29 31 -29 72zM581 1057q43 0 71 -31t28 -71q0 -41 -30 -71t-70 -30t-70 31q-29 31 -29 71t29 70q29 31 71 31zM1026 670v-99h-893v99h893z" />
    <glyph glyph-name="oslash" unicode="&#xf8;" horiz-adv-x="1247" 
d="M630 66q168 0 278 118q108 118 108 287q0 170 -86 270l-572 -581q104 -94 272 -94zM617 889q-170 0 -278 -118t-108 -286t78 -268l572 582q-94 90 -264 90zM119 489q0 207 141 349q140 142 348 141q208 0 342 -111l131 136l54 -54l-131 -135q124 -139 124 -347t-143 -351
t-350 -143t-344 116l-135 -137l-56 51l136 139q-117 139 -117 346z" />
    <glyph glyph-name="ugrave" unicode="&#xf9;" horiz-adv-x="1183" 
d="M670 1155h-97l-258 295h148zM883 188h-4q-39 -96 -135 -155t-205 -60q-180 0 -270 110q-89 110 -89 288v583h113v-540q0 -346 270 -346q131 0 223 105t93 296v485h110v-735q0 -117 10 -219h-108q-8 102 -8 188z" />
    <glyph glyph-name="uacute" unicode="&#xfa;" horiz-adv-x="1183" 
d="M592 1155h-96l206 295h148zM883 188h-4q-39 -96 -135 -155t-205 -60q-180 0 -270 110q-89 110 -89 288v583h113v-540q0 -346 270 -346q131 0 223 105t93 296v485h110v-735q0 -117 10 -219h-108q-8 102 -8 188z" />
    <glyph glyph-name="ucircumflex" unicode="&#xfb;" horiz-adv-x="1183" 
d="M868 1155h-108l-176 236l-176 -236h-109l219 295h131zM883 188h-4q-39 -96 -135 -155t-205 -60q-180 0 -270 110q-89 110 -89 288v583h113v-540q0 -346 270 -346q131 0 223 105t93 296v485h110v-735q0 -117 10 -219h-108q-8 102 -8 188z" />
    <glyph glyph-name="udieresis" unicode="&#xfc;" horiz-adv-x="1183" 
d="M770 1243q-38 0 -62 27q-24 26 -24 62t25 63t61 27t63 -28q25 -26 25 -62t-26 -62t-62 -27zM401 1243q-37 0 -63 27q-26 26 -25 62q0 36 26 63q27 27 63 27t61 -28q25 -26 25 -62t-26 -62q-24 -26 -61 -27zM883 188h-4q-39 -96 -135 -155t-205 -60q-180 0 -270 110
q-89 110 -89 288v583h113v-540q0 -346 270 -346q131 0 223 105t93 296v485h110v-735q0 -117 10 -219h-108q-8 102 -8 188z" />
    <glyph glyph-name="yacute" unicode="&#xfd;" horiz-adv-x="962" 
d="M514 1155h-96l207 295h147zM178 -395q60 0 102 44q41 44 74 130l82 215l-399 960h125l332 -841l4 4l307 837h121l-475 -1220q-45 -113 -109 -170t-170 -58q-51 0 -113 15l15 100q44 -16 104 -16z" />
    <glyph glyph-name="thorn" unicode="&#xfe;" horiz-adv-x="1292" 
d="M677 72q171 0 275 116t104 288q0 173 -104 289t-275 116t-277 -116t-107 -288q0 -172 106 -289q107 -116 278 -116zM303 -492h-108v2040h108v-788h4q59 104 161 162t216 57q211 0 350 -142q140 -141 140 -359t-140 -361t-350 -144q-117 1 -218 57t-159 158h-4v-680z" />
    <glyph glyph-name="ydieresis" unicode="&#xff;" horiz-adv-x="962" 
d="M680 1243q-37 0 -62 27q-24 26 -24 62t24 63q25 27 62 27q36 0 62 -28q26 -26 26 -62t-26 -62t-62 -27zM311 1243q-37 0 -63 27q-26 26 -25 62q0 36 26 63q27 27 63 27t61 -28q25 -26 25 -62t-26 -62q-24 -26 -61 -27zM178 -395q60 0 102 44q41 44 74 130l82 215
l-399 960h125l332 -841l4 4l307 837h121l-475 -1220q-45 -113 -109 -170t-170 -58q-51 0 -113 15l15 100q44 -16 104 -16z" />
    <glyph glyph-name="Amacron" unicode="&#x100;" horiz-adv-x="1413" 
d="M975 1651h-529v90h529v-90zM1051 498l-342 829l-349 -829h691zM1386 0h-129l-163 391h-777l-163 -391h-129l628 1450h117z" />
    <glyph glyph-name="amacron" unicode="&#x101;" horiz-adv-x="1079" 
d="M811 1241h-528v90h528v-90zM795 412v77h-72q-489 0 -490 -225q0 -102 71 -150t169 -48q156 0 239 102t83 244zM801 176h-4q-113 -203 -351 -203q-127 0 -227 72t-100 213q0 199 185 263q153 55 394 57h97v43q0 266 -271 266q-168 0 -284 -113l-62 74q135 131 357 131
q166 0 266 -88t100 -258v-418q1 -129 17 -215h-101q-16 98 -16 176z" />
    <glyph glyph-name="Abreve" unicode="&#x102;" horiz-adv-x="1413" 
d="M710 1587q-120 0 -198 71t-88 195h76q14 -84 72 -130t139 -46q182 0 215 176h73q-10 -125 -89 -195q-80 -70 -200 -71zM1051 498l-342 829l-349 -829h691zM1386 0h-129l-163 391h-777l-163 -391h-129l628 1450h117z" />
    <glyph glyph-name="abreve" unicode="&#x103;" horiz-adv-x="1079" 
d="M551 1268q182 0 215 176h74q-10 -125 -89 -196q-79 -70 -200 -70t-199 70t-88 196h76q14 -84 72 -130t139 -46zM795 412v77h-72q-489 0 -490 -225q0 -102 71 -150t169 -48q156 0 239 102t83 244zM801 176h-4q-113 -203 -351 -203q-127 0 -227 72t-100 213q0 199 185 263
q153 55 394 57h97v43q0 266 -271 266q-168 0 -284 -113l-62 74q135 131 357 131q166 0 266 -88t100 -258v-418q1 -129 17 -215h-101q-16 98 -16 176z" />
    <glyph glyph-name="Aogonek" unicode="&#x104;" horiz-adv-x="1413" 
d="M1051 498l-342 829l-349 -829h691zM1272 -457q-90 0 -144 48q-53 48 -53 124q0 127 182 285l-163 391h-777l-163 -391h-129l628 1450h117l616 -1450q-10 -10 -47 -26t-41 -21q-125 -131 -124 -213q0 -49 32 -79q32 -29 90 -29q60 0 105 49l33 -66q-72 -72 -162 -72z" />
    <glyph glyph-name="aogonek" unicode="&#x105;" horiz-adv-x="1079" 
d="M795 412v77h-72q-489 0 -490 -225q0 -102 71 -150t169 -48q156 0 239 102t83 244zM830 -457q-89 0 -142 48t-53 124q0 127 184 285h-2q-16 98 -16 176h-4q-113 -203 -351 -203q-127 0 -227 72t-100 213q0 319 569 320h107v43q0 266 -271 266q-168 0 -284 -113l-62 74
q135 131 357 131q166 0 266 -88t100 -258v-418q0 -129 17 -215h-17q-90 -92 -128 -147t-38 -109t31 -83q32 -29 92 -29t103 49l34 -66q-76 -72 -165 -72z" />
    <glyph glyph-name="Cacute" unicode="&#x106;" horiz-adv-x="1476" 
d="M866 1565h-96l207 295h147zM876 -39q-330 0 -540 216t-211 548q0 332 213 548t536 216q160 0 291 -55t209 -156l-84 -78q-66 82 -176 133t-237 51q-283 0 -456 -191t-173 -467t173 -468t451 -192t449 213l80 -64q-195 -254 -525 -254z" />
    <glyph glyph-name="cacute" unicode="&#x107;" horiz-adv-x="1011" 
d="M618 1155h-96l207 295h148zM610 -27q-220 -1 -354 141q-135 142 -135 362t138 362t357 141q219 0 338 -150l-73 -67q-43 55 -115 88t-150 33q-170 0 -275 -116t-105 -290t104 -289t272 -115t279 115l70 -63q-131 -152 -351 -152z" />
    <glyph glyph-name="Ccircumflex" unicode="&#x108;" horiz-adv-x="1476" 
d="M1157 1565h-108l-177 235l-176 -235h-108l219 295h131zM876 -39q-330 0 -540 216t-211 548q0 332 213 548t536 216q160 0 291 -55t209 -156l-84 -78q-66 82 -176 133t-237 51q-283 0 -456 -191t-173 -467t173 -468t451 -192t449 213l80 -64q-195 -254 -525 -254z" />
    <glyph glyph-name="ccircumflex" unicode="&#x109;" horiz-adv-x="1011" 
d="M899 1155h-108l-177 236l-176 -236h-108l219 295h131zM610 -27q-220 -1 -354 141q-135 142 -135 362t138 362t357 141q219 0 338 -150l-73 -67q-43 55 -115 88t-150 33q-170 0 -275 -116t-105 -290t104 -289t272 -115t279 115l70 -63q-131 -152 -351 -152z" />
    <glyph glyph-name="Cdotaccent" unicode="&#x10a;" horiz-adv-x="1476" 
d="M946 1743q0 -35 -26 -60t-58 -25t-58 26q-26 24 -26 59t26 59t58 25q32 -1 58 -25t26 -59zM876 -39q-330 0 -540 216t-211 548q0 332 213 548t536 216q160 0 291 -55t209 -156l-84 -78q-66 82 -176 133t-237 51q-283 0 -456 -191t-173 -467t173 -468t451 -192t449 213
l80 -64q-195 -254 -525 -254z" />
    <glyph glyph-name="cdotaccent" unicode="&#x10b;" horiz-adv-x="1011" 
d="M688 1333q0 -35 -26 -59t-58 -25q-32 0 -58 25q-26 26 -26 60t26 59t58 25t59 -25q25 -25 25 -60zM610 -27q-220 -1 -354 141q-135 142 -135 362t138 362t357 141q219 0 338 -150l-73 -67q-43 55 -115 88t-150 33q-170 0 -275 -116t-105 -290t104 -289t272 -115t279 115
l70 -63q-131 -152 -351 -152z" />
    <glyph glyph-name="Ccaron" unicode="&#x10c;" horiz-adv-x="1476" 
d="M938 1565h-131l-219 295h108l176 -236l177 236h108zM876 -39q-330 0 -540 216t-211 548q0 332 213 548t536 216q160 0 291 -55t209 -156l-84 -78q-66 82 -176 133t-237 51q-283 0 -456 -191t-173 -467t173 -468t451 -192t449 213l80 -64q-195 -254 -525 -254z" />
    <glyph glyph-name="ccaron" unicode="&#x10d;" horiz-adv-x="1011" 
d="M680 1155h-131l-219 295h108l176 -236l177 236h108zM610 -27q-220 -1 -354 141q-135 142 -135 362t138 362t357 141q219 0 338 -150l-73 -67q-43 55 -115 88t-150 33q-170 0 -275 -116t-105 -290t104 -289t272 -115t279 115l70 -63q-131 -152 -351 -152z" />
    <glyph glyph-name="Dcaron" unicode="&#x10e;" horiz-adv-x="1558" 
d="M780 1565h-131l-219 295h109l176 -236l176 236h108zM317 104h312q317 0 499 174t183 447q-1 272 -183 446t-499 175h-312v-1242zM659 0h-458v1450h458q307 0 533 -177q110 -87 176 -229t66 -319q0 -176 -66 -318q-122 -262 -423 -362q-136 -45 -286 -45z" />
    <glyph glyph-name="dcaron" unicode="&#x10f;" horiz-adv-x="1368" 
d="M1315 1071h-92l118 379h117zM236 477q0 -175 103 -291t274 -116t281 116t110 291q0 174 -110 292t-281 118t-274 -118t-103 -292zM1104 0h-113v188h-4q-59 -102 -163 -158t-218 -57q-215 -1 -351 143t-136 360t136 360t351 143q115 0 218 -57t163 -162h4v788h113v-1548z
" />
    <glyph glyph-name="Dcroat" unicode="&#x110;" horiz-adv-x="1558" 
d="M305 106h307q320 0 502 174t182 446q0 273 -181 445t-503 172h-307v-536h535v-90h-535v-611zM649 0h-461v717h-153v90h153v643h461q308 0 532 -177q109 -87 175 -229t66 -319q0 -176 -66 -318q-121 -263 -421 -362q-136 -45 -286 -45z" />
    <glyph glyph-name="dcroat" unicode="&#x111;" horiz-adv-x="1298" 
d="M236 477q0 -175 103 -291t274 -116t281 116t110 291q0 174 -110 292t-281 118t-274 -118t-103 -292zM1104 0h-113v188h-4q-59 -102 -163 -158t-218 -57q-215 -1 -351 143t-136 360t136 360t351 143q115 0 218 -57t163 -162h4v407h-354v82h354v299h113v-299h123v-82h-123
v-1167z" />
    <glyph glyph-name="Emacron" unicode="&#x112;" horiz-adv-x="1210" 
d="M911 1651h-528v90h528v-90zM1110 0h-909v1450h882v-104h-768v-541h719v-103h-719v-598h795v-104z" />
    <glyph glyph-name="emacron" unicode="&#x113;" horiz-adv-x="1161" 
d="M864 1241h-528v90h528v-90zM602 -27q-209 -1 -346 143t-137 361t136 359t344 143q208 0 326 -134t117 -333v-57h-809q5 -158 107 -272t266 -113q191 -1 328 161l74 -59q-154 -199 -406 -199zM591 887q-153 1 -251 -107t-104 -237h696q-6 154 -97 249t-244 95z" />
    <glyph glyph-name="Ebreve" unicode="&#x114;" horiz-adv-x="1210" 
d="M645 1587q-121 0 -199 71t-88 195h76q14 -84 72 -130t139 -46q182 0 215 176h74q-10 -125 -89 -195t-200 -71zM1110 0h-909v1450h882v-104h-768v-541h719v-103h-719v-598h795v-104z" />
    <glyph glyph-name="ebreve" unicode="&#x115;" horiz-adv-x="1161" 
d="M598 1268q182 0 215 176h74q-10 -125 -89 -196q-79 -70 -200 -70t-199 70t-88 196h76q15 -84 73 -130t138 -46zM602 -27q-209 -1 -346 143t-137 361t136 359t344 143q208 0 326 -134t117 -333v-57h-809q5 -158 107 -272t266 -113q191 -1 328 161l74 -59
q-154 -199 -406 -199zM591 887q-153 1 -251 -107t-104 -237h696q-6 154 -97 249t-244 95z" />
    <glyph glyph-name="Edotaccent" unicode="&#x116;" horiz-adv-x="1210" 
d="M739 1743q1 -35 -25 -60t-59 -25t-59 26q-26 24 -25 59q0 35 26 59q27 24 59 25q32 -1 58 -25t25 -59zM1110 0h-909v1450h882v-104h-768v-541h719v-103h-719v-598h795v-104z" />
    <glyph glyph-name="edotaccent" unicode="&#x117;" horiz-adv-x="1161" 
d="M682 1333q0 -35 -26 -59t-58 -25q-32 0 -58 25q-26 26 -26 60t26 59t58 25t58 -26q26 -24 26 -59zM602 -27q-209 -1 -346 143t-137 361t136 359t344 143q208 0 326 -134t117 -333v-57h-809q5 -158 107 -272t266 -113q191 -1 328 161l74 -59q-154 -199 -406 -199zM591 887
q-153 1 -251 -107t-104 -237h696q-6 154 -97 249t-244 95z" />
    <glyph glyph-name="Eogonek" unicode="&#x118;" horiz-adv-x="1210" 
d="M1006 -457q-89 0 -142 48t-53 124q0 127 184 285h-794v1450h882v-104h-768v-541h719v-103h-719v-598h795v-104h-33q-90 -92 -128 -147t-38 -109t31 -83q30 -29 90 -29t105 49l34 -66q-76 -72 -165 -72z" />
    <glyph glyph-name="eogonek" unicode="&#x119;" horiz-adv-x="1161" 
d="M591 887q-153 1 -251 -107t-104 -237h696q-6 154 -97 249t-244 95zM654 -457q-89 0 -142 48t-53 124q0 119 153 260h-45q-197 15 -323 155t-125 352q0 212 136 354t344 143q208 0 326 -134t117 -333v-57h-809q5 -158 107 -272t266 -113q102 0 186 46t134 122l82 -66
q-119 -154 -299 -188q-80 -82 -115 -136t-35 -105q0 -52 32 -82q32 -29 91 -29t104 49l33 -66q-76 -72 -165 -72z" />
    <glyph glyph-name="Ecaron" unicode="&#x11a;" horiz-adv-x="1210" 
d="M713 1565h-131l-220 295h109l176 -236l176 236h109zM1110 0h-909v1450h882v-104h-768v-541h719v-103h-719v-598h795v-104z" />
    <glyph glyph-name="ecaron" unicode="&#x11b;" horiz-adv-x="1161" 
d="M662 1155h-132l-219 295h109l176 -236l176 236h109zM602 -27q-209 -1 -346 143t-137 361t136 359t344 143q208 0 326 -134t117 -333v-57h-809q5 -158 107 -272t266 -113q191 -1 328 161l74 -59q-154 -199 -406 -199zM591 887q-153 1 -251 -107t-104 -237h696
q-6 154 -97 249t-244 95z" />
    <glyph glyph-name="Gcircumflex" unicode="&#x11c;" horiz-adv-x="1605" 
d="M1167 1565h-108l-176 235l-176 -235h-109l219 295h131zM1300 643h-348v102h465v-647q-229 -137 -547 -137t-532 217q-213 217 -213 548t214 547q215 216 535 216t512 -189l-73 -79q-165 163 -441 163t-450 -190t-174 -466t174 -470q174 -193 463 -192q249 0 415 98v479z
" />
    <glyph glyph-name="gcircumflex" unicode="&#x11d;" horiz-adv-x="1290" 
d="M913 1155h-108l-176 236l-176 -236h-109l219 295h131zM236 485q0 -167 103 -283t274 -116t281 114t110 282t-111 286q-111 119 -281 119t-273 -117t-103 -285zM991 23v186h-4q-53 -101 -159 -159t-222 -58q-217 0 -352 138t-135 350t136 356t351 143q117 0 220 -57
t161 -162h4v194h113v-931q0 -195 -100 -349q-52 -80 -156 -126t-248 -46q-272 0 -448 189l71 76q156 -166 370 -166t306 118t92 304z" />
    <glyph glyph-name="Gbreve" unicode="&#x11e;" horiz-adv-x="1605" 
d="M878 1587q-120 0 -198 71t-88 195h76q14 -84 72 -130t139 -46q182 0 215 176h73q-10 -125 -89 -195q-80 -70 -200 -71zM1300 643h-348v102h465v-647q-229 -137 -547 -137t-532 217q-213 217 -213 548t214 547q215 216 535 216t512 -189l-73 -79q-165 163 -441 163
t-450 -190t-174 -466t174 -470q174 -193 463 -192q249 0 415 98v479z" />
    <glyph glyph-name="gbreve" unicode="&#x11f;" horiz-adv-x="1290" 
d="M631 1268q182 0 215 176h74q-10 -125 -90 -196q-80 -70 -200 -70t-198 70t-88 196h76q14 -84 72 -130t139 -46zM236 485q0 -167 103 -283t274 -116t281 114t110 282t-111 286q-111 119 -281 119t-273 -117t-103 -285zM991 23v186h-4q-53 -101 -159 -159t-222 -58
q-217 0 -352 138t-135 350t136 356t351 143q117 0 220 -57t161 -162h4v194h113v-931q0 -195 -100 -349q-52 -80 -156 -126t-248 -46q-272 0 -448 189l71 76q156 -166 370 -166t306 118t92 304z" />
    <glyph glyph-name="Gdotaccent" unicode="&#x120;" horiz-adv-x="1605" 
d="M961 1743q0 -35 -26 -60q-27 -25 -59 -25t-58 26q-26 24 -25 59q-1 35 25 59t59 25q33 -1 59 -25t25 -59zM1300 643h-348v102h465v-647q-229 -137 -547 -137t-532 217q-213 217 -213 548t214 547q215 216 535 216t512 -189l-73 -79q-165 163 -441 163t-450 -190
t-174 -466t174 -470q174 -193 463 -192q249 0 415 98v479z" />
    <glyph glyph-name="gdotaccent" unicode="&#x121;" horiz-adv-x="1290" 
d="M713 1333q0 -35 -26 -59q-27 -24 -59 -25q-32 0 -58 25q-26 26 -26 60t26 59t59 25t59 -26q26 -24 25 -59zM236 485q0 -167 103 -283t274 -116t281 114t110 282t-111 286q-111 119 -281 119t-273 -117t-103 -285zM991 23v186h-4q-53 -101 -159 -159t-222 -58
q-217 0 -352 138t-135 350t136 356t351 143q117 0 220 -57t161 -162h4v194h113v-931q0 -195 -100 -349q-52 -80 -156 -126t-248 -46q-272 0 -448 189l71 76q156 -166 370 -166t306 118t92 304z" />
    <glyph glyph-name="Gcommaaccent" unicode="&#x122;" horiz-adv-x="1605" 
d="M821 -471h-92l121 379h117zM1300 643h-348v102h465v-647q-229 -137 -547 -137t-532 217q-213 217 -213 548t214 547q215 216 535 216t512 -189l-73 -79q-165 163 -441 163t-450 -190t-174 -466t174 -470q174 -193 463 -192q249 0 415 98v479z" />
    <glyph glyph-name="gcommaaccent" unicode="&#x123;" horiz-adv-x="1290" 
d="M690 1155h-117l146 379h92zM236 485q0 -167 103 -283t274 -116t281 114t110 282t-111 286q-111 119 -281 119t-273 -117t-103 -285zM991 23v186h-4q-53 -101 -159 -159t-222 -58q-217 0 -352 138t-135 350t136 356t351 143q117 0 220 -57t161 -162h4v194h113v-931
q0 -195 -100 -349q-52 -80 -156 -126t-248 -46q-272 0 -448 189l71 76q156 -166 370 -166t306 118t92 304z" />
    <glyph glyph-name="Hcircumflex" unicode="&#x124;" horiz-adv-x="1478" 
d="M1022 1565h-109l-176 235l-176 -235h-108l219 295h131zM1280 0h-117v698h-846v-698h-116v1450h116v-643h846v643h117v-1450z" />
    <glyph glyph-name="hcircumflex" unicode="&#x125;" horiz-adv-x="1185" 
d="M870 1630h-108l-176 236l-176 -236h-109l219 295h131zM1004 0h-111v541q0 344 -272 344q-131 -1 -223 -105t-93 -295v-485h-110v1548h110v-780h4q47 102 137 156t199 55q180 0 269 -110t90 -287v-582z" />
    <glyph glyph-name="Hbar" unicode="&#x126;" horiz-adv-x="1478" 
d="M1163 807v217h-846v-217h846zM1280 0h-117v698h-846v-698h-116v1450h116v-344h846v344h117v-1450z" />
    <glyph glyph-name="hbar" unicode="&#x127;" horiz-adv-x="1185" 
d="M1004 0h-111v541q0 346 -272 346q-131 1 -223 -105t-93 -297v-485h-110v1167h-121v82h121v299h110v-299h357v-82h-357v-399h4q39 96 133 154t203 57q180 0 269 -110t90 -287v-582z" />
    <glyph glyph-name="Itilde" unicode="&#x128;" horiz-adv-x="516" 
d="M401 1606q-47 0 -145 48t-131 48q-74 0 -96 -103h-72q31 193 168 193q45 0 145 -48t131 -48q72 0 95 100h71q-31 -190 -166 -190zM317 0h-116v1450h116v-1450z" />
    <glyph glyph-name="itilde" unicode="&#x129;" horiz-adv-x="497" 
d="M393 1196q-47 0 -145 48t-131 48q-74 0 -97 -102h-71q31 193 168 192q45 0 145 -48t131 -48q71 0 94 100h72q-31 -190 -166 -190zM305 0h-112v954h112v-954z" />
    <glyph glyph-name="Imacron" unicode="&#x12a;" horiz-adv-x="516" 
d="M524 1651h-528v90h528v-90zM317 0h-116v1450h116v-1450z" />
    <glyph glyph-name="imacron" unicode="&#x12b;" horiz-adv-x="497" 
d="M514 1241h-528v90h528v-90zM305 0h-112v954h112v-954z" />
    <glyph glyph-name="Ibreve" unicode="&#x12c;" horiz-adv-x="516" 
d="M258 1587q-121 0 -199 71t-88 195h76q15 -84 73 -130t138 -46q182 0 215 176h74q-10 -125 -89 -195t-200 -71zM317 0h-116v1450h116v-1450z" />
    <glyph glyph-name="ibreve" unicode="&#x12d;" horiz-adv-x="497" 
d="M248 1268q182 0 215 176h74q-9 -125 -89 -196q-80 -70 -200 -70t-199 70q-78 70 -88 196h76q15 -84 73 -130t138 -46zM305 0h-112v954h112v-954z" />
    <glyph glyph-name="Iogonek" unicode="&#x12e;" horiz-adv-x="516" 
d="M236 -457q-89 0 -142 48t-53 124q0 127 184 285h-24v1450h116v-1450q-73 -72 -101 -102q-76 -81 -75 -158q0 -49 32 -79q31 -29 91 -29t105 49l32 -66q-76 -72 -165 -72z" />
    <glyph glyph-name="iogonek" unicode="&#x12f;" horiz-adv-x="497" 
d="M248 1249q-33 0 -58 25q-24 26 -24 60t24 59q25 25 58 25q32 0 58 -26q26 -24 26 -59t-26 -59t-58 -25zM229 -457q-90 0 -143 48t-53 124q0 129 182 283l-22 2v954h112v-954h-6q-92 -92 -130 -146t-38 -108t32 -85q32 -29 91 -29t104 49l33 -66q-72 -72 -162 -72z" />
    <glyph glyph-name="Idotaccent" unicode="&#x130;" horiz-adv-x="516" 
d="M344 1743q0 -35 -26 -60t-58 -25t-58 26q-26 24 -26 59t26 59t58 25q32 -1 58 -25t26 -59zM317 0h-116v1450h116v-1450z" />
    <glyph glyph-name="dotlessi" unicode="&#x131;" horiz-adv-x="497" 
d="M305 0h-112v954h112v-954z" />
    <glyph glyph-name="IJ" unicode="&#x132;" horiz-adv-x="1515" 
d="M1210 420v1030h117v-1038q0 -180 -79 -303q-90 -146 -302 -146q-145 0 -246 77q-100 77 -131 198l109 30q24 -90 92 -146t164 -56q276 0 276 354zM317 0h-116v1450h116v-1450z" />
    <glyph glyph-name="ij" unicode="&#x133;" horiz-adv-x="997" 
d="M831 1333q1 -35 -25 -59t-58 -25q-32 0 -58 25q-24 26 -24 60t24 59q25 25 58 25t58 -26q25 -24 25 -59zM543 -397q90 0 120 56t29 163v1132h111v-1147q1 -139 -57 -219t-201 -80q-61 1 -96 13l16 92q41 -10 78 -10zM332 1333q0 -35 -26 -59t-58 -25q-32 0 -58 25
q-24 26 -24 60t24 59q25 25 58 25q32 0 58 -26q26 -24 26 -59zM305 0h-112v954h112v-954z" />
    <glyph glyph-name="Jcircumflex" unicode="&#x134;" horiz-adv-x="999" 
d="M1034 1565h-108l-176 235l-177 -235h-108l219 295h131zM694 420v1030h117v-1038q0 -180 -79 -303q-90 -146 -302 -146q-145 0 -246 77q-100 77 -131 198l109 30q24 -90 92 -146t164 -56q276 0 276 354z" />
    <glyph glyph-name="jcircumflex" unicode="&#x135;" horiz-adv-x="499" 
d="M532 1155h-108l-176 236l-176 -236h-109l219 295h131zM45 -397q90 0 120 56t30 163v1132h110v-1147q0 -139 -57 -219t-201 -80q-61 1 -96 13l16 92q41 -10 78 -10z" />
    <glyph glyph-name="Kcommaaccent" unicode="&#x136;" horiz-adv-x="1247" 
d="M610 -471h-92l121 379h117zM317 0h-116v1450h116v-655l703 655h168l-733 -659l772 -791h-170l-740 774v-774z" />
    <glyph glyph-name="kcommaaccent" unicode="&#x137;" horiz-adv-x="1005" 
d="M489 -469h-92l121 379h117zM305 502v-502h-110v1548h110v-1028h6l455 434h160l-488 -438l539 -516h-164l-502 502h-6z" />
    <glyph glyph-name="kgreenlandic" unicode="&#x138;" horiz-adv-x="1005" 
d="M305 502v-502h-110v954h110v-434h6l455 434h160l-488 -438l539 -516h-164l-502 502h-6z" />
    <glyph glyph-name="Lacute" unicode="&#x139;" horiz-adv-x="1036" 
d="M305 1565h-96l207 295h147zM1006 0h-805v1450h116v-1346h689v-104z" />
    <glyph glyph-name="lacute" unicode="&#x13a;" horiz-adv-x="499" 
d="M293 1622h-96l206 295h148zM305 0h-110v1548h110v-1548z" />
    <glyph glyph-name="Lcommaaccent" unicode="&#x13b;" horiz-adv-x="1036" 
d="M543 -471h-92l120 379h117zM1006 0h-805v1450h116v-1346h689v-104z" />
    <glyph glyph-name="lcommaaccent" unicode="&#x13c;" horiz-adv-x="499" 
d="M197 -469h-93l121 379h117zM305 0h-110v1548h110v-1548z" />
    <glyph glyph-name="Lcaron" unicode="&#x13d;" horiz-adv-x="1036" 
d="M569 1071h-92l121 379h117zM1006 0h-805v1450h116v-1346h689v-104z" />
    <glyph glyph-name="lcaron" unicode="&#x13e;" horiz-adv-x="569" 
d="M514 1071h-92l119 379h116zM305 0h-110v1548h110v-1548z" />
    <glyph glyph-name="Ldot" unicode="&#x13f;" horiz-adv-x="1036" 
d="M870 807q0 -35 -26 -59t-58 -25q-32 0 -58 25q-26 26 -26 60t26 58t58 25q32 -1 58 -25t26 -59zM1006 0h-805v1450h116v-1346h689v-104z" />
    <glyph glyph-name="ldot" unicode="&#x140;" horiz-adv-x="595" 
d="M629 848q0 -35 -26 -60q-27 -24 -59 -24t-58 24t-25 60q-1 36 25 60t59 24t59 -24t25 -60zM305 0h-110v1548h110v-1548z" />
    <glyph glyph-name="Lslash" unicode="&#x141;" horiz-adv-x="1036" 
d="M1006 0h-805v506l-158 -137v116l158 138v827h116v-745l437 380v-114l-437 -383v-484h689v-104z" />
    <glyph glyph-name="lslash" unicode="&#x142;" horiz-adv-x="499" 
d="M305 0h-108v696l-156 -155v121l156 155v731h108v-643l162 160v-119l-162 -160v-786z" />
    <glyph glyph-name="Nacute" unicode="&#x143;" horiz-adv-x="1572" 
d="M815 1565h-96l207 295h147zM1372 0h-147l-903 1290h-5v-1290h-116v1450h147l903 -1282h4v1282h117v-1450z" />
    <glyph glyph-name="nacute" unicode="&#x144;" horiz-adv-x="1183" 
d="M614 1155h-96l207 295h147zM1001 0h-110v541q0 344 -270 344q-133 -1 -225 -105t-91 -295v-485h-112v735q0 135 -9 219h107q8 -106 8 -190h4q41 96 137 156t205 59q178 0 267 -109t89 -288v-582z" />
    <glyph glyph-name="Ncommaaccent" unicode="&#x145;" horiz-adv-x="1572" 
d="M711 -471h-93l121 379h117zM1372 0h-147l-903 1290h-5v-1290h-116v1450h147l903 -1282h4v1282h117v-1450z" />
    <glyph glyph-name="ncommaaccent" unicode="&#x146;" horiz-adv-x="1183" 
d="M539 -471h-93l121 379h117zM1001 0h-110v541q0 344 -270 344q-133 -1 -225 -105t-91 -295v-485h-112v735q0 135 -9 219h107q8 -106 8 -190h4q41 96 137 156t205 59q178 0 267 -109t89 -288v-582z" />
    <glyph glyph-name="Ncaron" unicode="&#x147;" horiz-adv-x="1572" 
d="M852 1565h-131l-219 295h108l176 -236l177 236h108zM1372 0h-147l-903 1290h-5v-1290h-116v1450h147l903 -1282h4v1282h117v-1450z" />
    <glyph glyph-name="ncaron" unicode="&#x148;" horiz-adv-x="1183" 
d="M666 1155h-131l-220 295h109l176 -236l176 236h109zM1001 0h-110v541q0 344 -270 344q-133 -1 -225 -105t-91 -295v-485h-112v735q0 135 -9 219h107q8 -106 8 -190h4q41 96 137 156t205 59q178 0 267 -109t89 -288v-582z" />
    <glyph glyph-name="Eng" unicode="&#x14a;" horiz-adv-x="1572" 
d="M1112 -397q90 0 120 56t30 163v158l-940 1310h-5v-1290h-116v1450h147l903 -1253h4v1253h117v-1643q0 -139 -57 -219t-201 -80q-61 1 -96 13l16 92q41 -10 78 -10z" />
    <glyph glyph-name="eng" unicode="&#x14b;" horiz-adv-x="1183" 
d="M741 -397q90 0 120 56t30 163v719q0 346 -270 346q-133 1 -225 -105t-91 -297v-485h-112v735q0 135 -9 219h107q8 -106 8 -190h4q41 96 137 156t205 59q178 0 267 -109t89 -288v-775q0 -139 -57 -219t-201 -80q-61 1 -96 13l17 92q41 -10 77 -10z" />
    <glyph glyph-name="Omacron" unicode="&#x14c;" horiz-adv-x="1755" 
d="M1147 1651h-529v90h529v-90zM248 726q0 -276 174 -468t456 -192t456 191t173 467q0 276 -175 468q-176 192 -456 192t-454 -191t-174 -467zM1630 725q0 -332 -214 -548t-538 -216q-325 0 -539 216t-214 548t214 548t539 216q324 0 538 -216t214 -548z" />
    <glyph glyph-name="omacron" unicode="&#x14d;" horiz-adv-x="1247" 
d="M889 1241h-529v90h529v-90zM624 74q175 0 281 114t107 289q0 174 -106 290t-282 116t-282 -116t-106 -290t106 -289q107 -114 282 -114zM121 478q0 218 140 360q139 142 361 141q222 1 363 -141t141 -360t-141 -361t-361 -143t-362 142q-142 144 -141 362z" />
    <glyph glyph-name="Obreve" unicode="&#x14e;" horiz-adv-x="1755" 
d="M880 1587q-120 0 -198 71t-88 195h76q14 -84 72 -130t139 -46q182 0 215 176h73q-10 -125 -89 -195q-80 -70 -200 -71zM248 726q0 -276 174 -468t456 -192t456 191t173 467q0 276 -175 468q-176 192 -456 192t-454 -191t-174 -467zM1630 725q0 -332 -214 -548t-538 -216
q-325 0 -539 216t-214 548t214 548t539 216q324 0 538 -216t214 -548z" />
    <glyph glyph-name="obreve" unicode="&#x14f;" horiz-adv-x="1247" 
d="M625 1268q182 0 215 176h73q-10 -125 -89 -196q-80 -70 -200 -70t-198 70t-88 196h76q14 -84 72 -130t139 -46zM624 74q175 0 281 114t107 289q0 174 -106 290t-282 116t-282 -116t-106 -290t106 -289q107 -114 282 -114zM121 478q0 218 140 360q139 142 361 141
q222 1 363 -141t141 -360t-141 -361t-361 -143t-362 142q-142 144 -141 362z" />
    <glyph glyph-name="Ohungarumlaut" unicode="&#x150;" horiz-adv-x="1755" 
d="M1079 1565h-96l207 295h147zM764 1565h-96l206 295h148zM248 726q0 -276 174 -468t456 -192t456 191t173 467q0 276 -175 468q-176 192 -456 192t-454 -191t-174 -467zM1630 725q0 -332 -214 -548t-538 -216q-325 0 -539 216t-214 548t214 548t539 216q324 0 538 -216
t214 -548z" />
    <glyph glyph-name="ohungarumlaut" unicode="&#x151;" horiz-adv-x="1247" 
d="M834 1155h-97l207 295h148zM518 1155h-96l207 295h147zM624 74q175 0 281 114t107 289q0 174 -106 290t-282 116t-282 -116t-106 -290t106 -289q107 -114 282 -114zM121 478q0 218 140 360q139 142 361 141q222 1 363 -141t141 -360t-141 -361t-361 -143t-362 142
q-142 144 -141 362z" />
    <glyph glyph-name="OE" unicode="&#x152;" horiz-adv-x="2023" 
d="M1083 104v1242h-133q-315 0 -498 -174q-184 -174 -184 -447q0 -272 182 -446t500 -175h133zM1921 0h-1001q-307 0 -533 177q-111 87 -177 229t-65 319q0 176 66 318q122 262 423 362q136 45 286 45h974v-104h-694v-541h647v-103h-647v-598h721v-104z" />
    <glyph glyph-name="oe" unicode="&#x153;" horiz-adv-x="2045" 
d="M1476 887q-154 -1 -250 -107q-98 -106 -104 -237h695q-7 154 -97 249t-244 95zM231 477q0 -175 108 -291t283 -116q174 0 282 116t108 291q0 174 -108 292t-282 118t-283 -118q-108 -118 -108 -292zM1489 -27q-143 0 -255 71t-169 194q-61 -123 -177 -194t-267 -71
q-219 -1 -361 143t-141 362q0 218 141 360t361 141q153 0 267 -70t175 -190q57 121 166 191t246 69q215 0 335 -134t119 -333q0 -41 -2 -57h-811q4 -158 108 -272t267 -113q102 0 185 46t134 122l82 -66q-154 -199 -403 -199z" />
    <glyph glyph-name="Racute" unicode="&#x154;" horiz-adv-x="1224" 
d="M573 1565h-96l207 295h147zM317 795h285q184 0 284 70q99 71 99 206q0 279 -385 279h-283v-555zM317 694v-694h-116v1450h417q483 0 484 -379q0 -164 -111 -260t-274 -109l428 -702h-141l-414 694h-273z" />
    <glyph glyph-name="racute" unicode="&#x155;" horiz-adv-x="710" 
d="M340 1155h-96l207 295h147zM305 0h-112v735q0 135 -9 219h107q8 -106 8 -190h4q39 100 124 158t189 57q51 0 76 -8l-12 -103q-29 8 -78 9q-133 -1 -215 -105t-82 -283v-489z" />
    <glyph glyph-name="Rcommaaccent" unicode="&#x156;" horiz-adv-x="1224" 
d="M578 -471h-93l121 379h117zM317 795h285q184 0 284 70q99 71 99 206q0 279 -385 279h-283v-555zM317 694v-694h-116v1450h417q483 0 484 -379q0 -164 -111 -260t-274 -109l428 -702h-141l-414 694h-273z" />
    <glyph glyph-name="rcommaaccent" unicode="&#x157;" horiz-adv-x="710" 
d="M195 -471h-93l121 379h117zM305 0h-112v735q0 135 -9 219h107q8 -106 8 -190h4q39 100 124 158t189 57q51 0 76 -8l-12 -103q-29 8 -78 9q-133 -1 -215 -105t-82 -283v-489z" />
    <glyph glyph-name="Rcaron" unicode="&#x158;" horiz-adv-x="1224" 
d="M643 1565h-131l-219 295h108l177 -236l176 236h108zM317 795h285q184 0 284 70q99 71 99 206q0 279 -385 279h-283v-555zM317 694v-694h-116v1450h417q483 0 484 -379q0 -164 -111 -260t-274 -109l428 -702h-141l-414 694h-273z" />
    <glyph glyph-name="rcaron" unicode="&#x159;" horiz-adv-x="710" 
d="M492 1155h-132l-219 295h109l176 -236l176 236h109zM305 0h-112v735q0 135 -9 219h107q8 -106 8 -190h4q39 100 124 158t189 57q51 0 76 -8l-12 -103q-29 8 -78 9q-133 -1 -215 -105t-82 -283v-489z" />
    <glyph glyph-name="Sacute" unicode="&#x15a;" horiz-adv-x="1159" 
d="M606 1565h-96l207 295h147zM1028 371q0 -197 -137 -303t-326 -107q-278 0 -438 209l82 72q152 -178 356 -179q137 0 241 81q103 81 103 232t-150 230q-67 35 -148 63q-81 29 -163 59t-148 72q-67 42 -109 116t-41 180q0 188 137 290t321 103q266 0 398 -172l-84 -76
q-121 147 -320 148q-131 0 -233 -77q-103 -77 -103 -229t152 -225q68 -33 214 -81t245 -108q67 -42 109 -118t42 -180z" />
    <glyph glyph-name="sacute" unicode="&#x15b;" horiz-adv-x="890" 
d="M477 1155h-96l207 295h147zM451 887q-86 0 -151 -42q-64 -42 -64 -122t55 -118q55 -37 199 -69t225 -96q80 -64 80 -191q1 -128 -101 -201t-245 -73q-242 0 -363 179l88 63q43 -67 116 -107t165 -40q93 0 161 46t68 129t-57 124t-139 60t-162 43q-82 24 -140 83
q-57 59 -57 158q0 131 95 199t216 67q243 0 336 -162l-86 -61q-78 131 -239 131z" />
    <glyph glyph-name="Scircumflex" unicode="&#x15c;" horiz-adv-x="1159" 
d="M889 1565h-109l-176 235l-176 -235h-109l220 295h131zM1028 371q0 -197 -137 -303t-326 -107q-278 0 -438 209l82 72q152 -178 356 -179q137 0 241 81q103 81 103 232t-150 230q-67 35 -148 63q-81 29 -163 59t-148 72q-67 42 -109 116t-41 180q0 188 137 290t321 103
q266 0 398 -172l-84 -76q-121 147 -320 148q-131 0 -233 -77q-103 -77 -103 -229t152 -225q68 -33 214 -81t245 -108q67 -42 109 -118t42 -180z" />
    <glyph glyph-name="scircumflex" unicode="&#x15d;" horiz-adv-x="890" 
d="M745 1155h-108l-176 236l-176 -236h-109l219 295h131zM451 887q-86 0 -151 -42q-64 -42 -64 -122t55 -118q55 -37 199 -69t225 -96q80 -64 80 -191q1 -128 -101 -201t-245 -73q-242 0 -363 179l88 63q43 -67 116 -107t165 -40q93 0 161 46t68 129t-57 124t-139 60
t-162 43q-82 24 -140 83q-57 59 -57 158q0 131 95 199t216 67q243 0 336 -162l-86 -61q-78 131 -239 131z" />
    <glyph glyph-name="Scedilla" unicode="&#x15e;" horiz-adv-x="1159" 
d="M682 -297q0 88 -123 88q-57 0 -104 -20l-31 26l106 166q-254 12 -403 207l82 72q152 -178 356 -179q137 0 241 81q103 81 103 232t-150 230q-67 35 -148 63q-81 29 -163 59t-148 72q-67 42 -109 116t-41 180q0 188 137 290t321 103q266 0 398 -172l-84 -76
q-121 147 -320 148q-131 0 -233 -77q-103 -77 -103 -229t152 -225q68 -33 214 -81t245 -108q67 -42 109 -118t42 -180q0 -187 -123 -291t-301 -117l-78 -123q30 10 90 10t112 -38t52 -118q0 -81 -72 -122t-170 -41t-186 41l27 63q69 -33 139 -33t117 26q47 24 47 75z" />
    <glyph glyph-name="scedilla" unicode="&#x15f;" horiz-adv-x="890" 
d="M561 -297q0 88 -123 88q-57 0 -104 -20l-31 26l115 180q-221 10 -332 177l88 63q43 -67 116 -107t165 -40q93 0 161 46t68 129t-57 124t-139 60t-162 43q-82 24 -140 83q-57 59 -57 158q0 131 95 199t216 67q243 0 336 -162l-86 -61q-78 131 -239 131q-86 0 -151 -42
q-64 -42 -64 -122t55 -118q55 -37 199 -69t225 -96q80 -64 80 -185q0 -122 -86 -194t-215 -84l-88 -137q31 10 90 10t111 -38t52 -118q1 -81 -71 -122t-170 -41t-187 41l27 63q68 -33 138 -33t118 26q47 24 47 75z" />
    <glyph glyph-name="Scaron" unicode="&#x160;" horiz-adv-x="1159" 
d="M657 1565h-131l-219 295h109l176 -236l176 236h109zM1028 371q0 -197 -137 -303t-326 -107q-278 0 -438 209l82 72q152 -178 356 -179q137 0 241 81q103 81 103 232t-150 230q-67 35 -148 63q-81 29 -163 59t-148 72q-67 42 -109 116t-41 180q0 188 137 290t321 103
q266 0 398 -172l-84 -76q-121 147 -320 148q-131 0 -233 -77q-103 -77 -103 -229t152 -225q68 -33 214 -81t245 -108q67 -42 109 -118t42 -180z" />
    <glyph glyph-name="scaron" unicode="&#x161;" horiz-adv-x="890" 
d="M526 1155h-131l-219 295h109l176 -236l176 236h108zM451 887q-86 0 -151 -42q-64 -42 -64 -122t55 -118q55 -37 199 -69t225 -96q80 -64 80 -191q1 -128 -101 -201t-245 -73q-242 0 -363 179l88 63q43 -67 116 -107t165 -40q93 0 161 46t68 129t-57 124t-139 60t-162 43
q-82 24 -140 83q-57 59 -57 158q0 131 95 199t216 67q243 0 336 -162l-86 -61q-78 131 -239 131z" />
    <glyph glyph-name="uni0162" unicode="&#x162;" horiz-adv-x="1148" 
d="M522 -471h-92l121 379h117zM633 0h-117v1346h-487v104h1091v-104h-487v-1346z" />
    <glyph glyph-name="uni0163" unicode="&#x163;" horiz-adv-x="641" 
d="M346 -471h-92l121 379h117zM219 229v631h-201v94h199v273h113v-273h272v-94h-272v-604q0 -174 144 -176q66 0 124 26l6 -96q-74 -26 -162 -26t-156 58q-67 58 -67 187z" />
    <glyph glyph-name="Tcaron" unicode="&#x164;" horiz-adv-x="1148" 
d="M639 1565h-131l-219 295h108l176 -236l177 236h108zM633 0h-117v1346h-487v104h1091v-104h-487v-1346z" />
    <glyph glyph-name="tcaron" unicode="&#x165;" horiz-adv-x="661" 
d="M555 1118h-92l119 379h116zM219 229v631h-201v94h199v273h113v-273h272v-94h-272v-604q0 -174 144 -176q66 0 124 26l6 -96q-74 -26 -162 -26t-156 58q-67 58 -67 187z" />
    <glyph glyph-name="Tbar" unicode="&#x166;" horiz-adv-x="1148" 
d="M633 0h-117v1030h-375v84h375v232h-487v104h1091v-104h-487v-232h360v-84h-360v-1030z" />
    <glyph glyph-name="tbar" unicode="&#x167;" horiz-adv-x="641" 
d="M219 229v310h-184v82h184v239h-201v94h199v273h113v-273h272v-94h-272v-239h250v-82h-250v-283q0 -174 144 -176q66 0 124 26l6 -96q-74 -26 -162 -26t-156 58q-67 58 -67 187z" />
    <glyph glyph-name="Utilde" unicode="&#x168;" horiz-adv-x="1468" 
d="M874 1606q-47 0 -145 48t-131 48q-74 0 -96 -103h-72q31 193 168 193q45 0 145 -48t131 -48q72 0 95 100h71q-31 -190 -166 -190zM1163 557v893h117v-907q0 -219 -112 -389q-58 -88 -170 -140t-264 -53q-152 0 -264 52q-112 53 -170 141q-112 171 -112 389v907h117v-893
q0 -362 254 -462q75 -29 185 -29t197 43q153 75 202 271q20 83 20 177z" />
    <glyph glyph-name="utilde" unicode="&#x169;" horiz-adv-x="1183" 
d="M731 1196q-47 0 -145 48t-131 48q-74 0 -97 -102h-71q31 193 168 192q45 0 145 -48t131 -48q71 0 94 100h72q-31 -190 -166 -190zM883 188h-4q-39 -96 -135 -155t-205 -60q-180 0 -270 110q-89 110 -89 288v583h113v-540q0 -346 270 -346q131 0 223 105t93 296v485h110
v-735q0 -117 10 -219h-108q-8 102 -8 188z" />
    <glyph glyph-name="Umacron" unicode="&#x16a;" horiz-adv-x="1468" 
d="M999 1651h-528v90h528v-90zM1163 557v893h117v-907q0 -219 -112 -389q-58 -88 -170 -140t-264 -53q-152 0 -264 52q-112 53 -170 141q-112 171 -112 389v907h117v-893q0 -362 254 -462q75 -29 185 -29t197 43q153 75 202 271q20 83 20 177z" />
    <glyph glyph-name="umacron" unicode="&#x16b;" horiz-adv-x="1183" 
d="M852 1241h-528v90h528v-90zM883 188h-4q-39 -96 -135 -155t-205 -60q-180 0 -270 110q-89 110 -89 288v583h113v-540q0 -346 270 -346q131 0 223 105t93 296v485h110v-735q0 -117 10 -219h-108q-8 102 -8 188z" />
    <glyph glyph-name="Ubreve" unicode="&#x16c;" horiz-adv-x="1468" 
d="M733 1587q-121 0 -199 71t-88 195h76q14 -84 72 -130t139 -46q182 0 215 176h74q-10 -125 -89 -195t-200 -71zM1163 557v893h117v-907q0 -219 -112 -389q-58 -88 -170 -140t-264 -53q-152 0 -264 52q-112 53 -170 141q-112 171 -112 389v907h117v-893q0 -362 254 -462
q75 -29 185 -29t197 43q153 75 202 271q20 83 20 177z" />
    <glyph glyph-name="ubreve" unicode="&#x16d;" horiz-adv-x="1183" 
d="M590 1268q182 0 215 176h74q-10 -125 -89 -196q-79 -70 -200 -70t-199 70t-88 196h76q15 -84 73 -130t138 -46zM883 188h-4q-39 -96 -135 -155t-205 -60q-180 0 -270 110q-89 110 -89 288v583h113v-540q0 -346 270 -346q131 0 223 105t93 296v485h110v-735
q0 -117 10 -219h-108q-8 102 -8 188z" />
    <glyph glyph-name="Uring" unicode="&#x16e;" horiz-adv-x="1468" 
d="M870 1741q0 55 -39 94t-94 39t-94 -39t-39 -94t39 -94t94 -39t94 39t39 94zM934 1741q0 -82 -58 -138q-58 -57 -138 -57t-139 56q-58 56 -58 139q0 82 58 138t138 56q81 0 139 -56t58 -138zM1163 557v893h117v-907q0 -219 -112 -389q-58 -88 -170 -140t-264 -53
q-152 0 -264 52q-112 53 -170 141q-112 171 -112 389v907h117v-893q0 -362 254 -462q75 -29 185 -29t197 43q153 75 202 271q20 83 20 177z" />
    <glyph glyph-name="uring" unicode="&#x16f;" horiz-adv-x="1183" 
d="M721 1331q0 55 -39 94t-94 39t-94 -39t-39 -94t39 -94t94 -39t94 39t39 94zM784 1331q0 -82 -58 -138t-138 -56t-138 56t-59 138q1 82 59 138q58 57 138 57t138 -56t58 -139zM883 188h-4q-39 -96 -135 -155t-205 -60q-180 0 -270 110q-89 110 -89 288v583h113v-540
q0 -346 270 -346q131 0 223 105t93 296v485h110v-735q0 -117 10 -219h-108q-8 102 -8 188z" />
    <glyph glyph-name="Uhungarumlaut" unicode="&#x170;" horiz-adv-x="1468" 
d="M926 1565h-97l207 295h148zM610 1565h-96l207 295h147zM1163 557v893h117v-907q0 -219 -112 -389q-58 -88 -170 -140t-264 -53q-152 0 -264 52q-112 53 -170 141q-112 171 -112 389v907h117v-893q0 -362 254 -462q75 -29 185 -29t197 43q153 75 202 271q20 83 20 177z
" />
    <glyph glyph-name="uhungarumlaut" unicode="&#x171;" horiz-adv-x="1183" 
d="M782 1155h-96l207 295h147zM467 1155h-96l207 295h147zM883 188h-4q-39 -96 -135 -155t-205 -60q-180 0 -270 110q-89 110 -89 288v583h113v-540q0 -346 270 -346q131 0 223 105t93 296v485h110v-735q0 -117 10 -219h-108q-8 102 -8 188z" />
    <glyph glyph-name="Uogonek" unicode="&#x172;" horiz-adv-x="1468" 
d="M808 -457q-91 0 -144 48t-54 124q0 115 142 248h-25q-340 0 -471 262q-66 132 -68 318v907h117v-893q0 -362 254 -462q75 -29 185 -29t197 43q153 75 202 271q20 83 20 177v893h117v-907q0 -194 -90 -356q-47 -83 -134 -140t-206 -76q-74 -76 -107 -126t-33 -102t32 -82
q32 -29 92 -29t104 49l33 -66q-72 -72 -163 -72z" />
    <glyph glyph-name="uogonek" unicode="&#x173;" horiz-adv-x="1183" 
d="M904 -457q-89 0 -142 48t-53 124q0 127 184 285h-2q-8 102 -8 188h-4q-39 -96 -135 -155t-205 -60q-180 0 -270 110q-89 110 -89 288v583h113v-540q0 -346 270 -346q131 0 223 105t93 296v485h110v-735q0 -117 10 -219h-12q-12 -2 -14 -2q-88 -88 -126 -143t-38 -109
t31 -85q31 -29 90 -29t104 49l35 -66q-76 -72 -165 -72z" />
    <glyph glyph-name="Wcircumflex" unicode="&#x174;" horiz-adv-x="1980" 
d="M1274 1565h-109l-176 235l-176 -235h-108l219 295h131zM1513 0h-141l-381 1294h-4l-379 -1294h-141l-430 1450h123l377 -1296h4l377 1296h145l379 -1296h6l373 1296h123z" />
    <glyph glyph-name="wcircumflex" unicode="&#x175;" horiz-adv-x="1499" 
d="M1030 1155h-108l-177 236l-176 -236h-108l219 295h131zM1145 0h-125l-270 811h-5l-268 -811h-125l-295 954h119l240 -815h4l272 815h113l276 -815h4l238 815h117z" />
    <glyph glyph-name="Ycircumflex" unicode="&#x176;" horiz-adv-x="1193" 
d="M885 1565h-109l-176 235l-176 -235h-109l220 295h131zM655 0h-116v627l-531 823h146l446 -723l449 723h135l-529 -823v-627z" />
    <glyph glyph-name="ycircumflex" unicode="&#x177;" horiz-adv-x="962" 
d="M778 1155h-108l-176 236l-177 -236h-108l219 295h131zM178 -395q60 0 102 44q41 44 74 130l82 215l-399 960h125l332 -841l4 4l307 837h121l-475 -1220q-45 -113 -109 -170t-170 -58q-51 0 -113 15l15 100q44 -16 104 -16z" />
    <glyph glyph-name="Ydieresis" unicode="&#x178;" horiz-adv-x="1193" 
d="M784 1653q-38 1 -62 27t-24 62t25 62t61 27q36 0 63 -27q25 -26 25 -62t-25 -63q-26 -26 -63 -26zM416 1653q-37 1 -63 27q-25 26 -25 62t26 62t62 27q38 0 62 -27q24 -26 24 -62t-24 -62t-62 -27zM655 0h-116v627l-531 823h146l446 -723l449 723h135l-529 -823v-627z
" />
    <glyph glyph-name="Zacute" unicode="&#x179;" horiz-adv-x="1185" 
d="M612 1565h-96l207 295h147zM1114 0h-1036v102l878 1244h-856v104h998v-104l-877 -1242h893v-104z" />
    <glyph glyph-name="zacute" unicode="&#x17a;" horiz-adv-x="903" 
d="M477 1155h-96l207 295h147zM827 0h-753v82l588 778h-558v94h701v-84l-586 -774h608v-96z" />
    <glyph glyph-name="Zdotaccent" unicode="&#x17b;" horiz-adv-x="1185" 
d="M680 1743q0 -35 -26 -60t-58 -25t-58 26q-26 24 -26 59t26 59t58 25q32 -1 58 -25t26 -59zM1114 0h-1036v102l878 1244h-856v104h998v-104l-877 -1242h893v-104z" />
    <glyph glyph-name="zdotaccent" unicode="&#x17c;" horiz-adv-x="903" 
d="M541 1333q0 -35 -26 -59q-27 -24 -59 -25q-32 0 -58 25q-26 26 -26 60t26 59t59 25t59 -26q26 -24 25 -59zM827 0h-753v82l588 778h-558v94h701v-84l-586 -774h608v-96z" />
    <glyph glyph-name="Zcaron" unicode="&#x17d;" horiz-adv-x="1185" 
d="M662 1565h-132l-219 295h109l176 -236l176 236h109zM1114 0h-1036v102l878 1244h-856v104h998v-104l-877 -1242h893v-104z" />
    <glyph glyph-name="zcaron" unicode="&#x17e;" horiz-adv-x="903" 
d="M524 1155h-131l-219 295h109l176 -236l176 236h108zM827 0h-753v82l588 778h-558v94h701v-84l-586 -774h608v-96z" />
    <glyph glyph-name="florin" unicode="&#x192;" horiz-adv-x="1159" 
d="M870 852v-90h-245l-142 -756q-27 -133 -93 -213t-202 -80q-92 0 -147 33l45 90q45 -25 104 -24q90 0 128 59t59 170l133 721h-223v90h241l58 311q55 311 297 312q104 0 176 -54l-55 -80q-51 35 -115 35q-154 0 -195 -235l-51 -289h227z" />
    <glyph glyph-name="Scommaaccent" unicode="&#x218;" horiz-adv-x="1159" 
d="M530 -473h-92l121 379h117zM1028 371q0 -197 -137 -303t-326 -107q-278 0 -438 209l82 72q152 -178 356 -179q137 0 241 81q103 81 103 232t-150 230q-67 35 -148 63q-81 29 -163 59t-148 72q-67 42 -109 116t-41 180q0 188 137 290t321 103q266 0 398 -172l-84 -76
q-121 147 -320 148q-131 0 -233 -77q-103 -77 -103 -229t152 -225q68 -33 214 -81t245 -108q67 -42 109 -118t42 -180z" />
    <glyph glyph-name="scommaaccent" unicode="&#x219;" horiz-adv-x="890" 
d="M389 -473h-92l121 379h117zM451 887q-86 0 -151 -42q-64 -42 -64 -122t55 -118q55 -37 199 -69t225 -96q80 -64 80 -191q1 -128 -101 -201t-245 -73q-242 0 -363 179l88 63q43 -67 116 -107t165 -40q93 0 161 46t68 129t-57 124t-139 60t-162 43q-82 24 -140 83
q-57 59 -57 158q0 131 95 199t216 67q243 0 336 -162l-86 -61q-78 131 -239 131z" />
    <glyph glyph-name="uni021A" unicode="&#x21a;" horiz-adv-x="1148" 
d="M522 -471h-92l121 379h117zM633 0h-117v1346h-487v104h1091v-104h-487v-1346z" />
    <glyph glyph-name="uni021B" unicode="&#x21b;" horiz-adv-x="641" 
d="M346 -471h-92l121 379h117zM219 229v631h-201v94h199v273h113v-273h272v-94h-272v-604q0 -174 144 -176q66 0 124 26l6 -96q-74 -26 -162 -26t-156 58q-67 58 -67 187z" />
    <glyph glyph-name="dotlessj" unicode="&#x237;" horiz-adv-x="499" 
d="M45 -397q90 0 120 56t30 163v1132h110v-1147q0 -139 -57 -219t-201 -80q-61 1 -96 13l16 92q41 -10 78 -10z" />
    <glyph glyph-name="circumflex" unicode="&#x2c6;" 
d="M530 1155h-108l-176 236l-176 -236h-109l219 295h131z" />
    <glyph glyph-name="caron" unicode="&#x2c7;" 
d="M311 1155h-131l-219 295h109l176 -236l176 236h108z" />
    <glyph glyph-name="uni02C9" unicode="&#x2c9;" 
d="M510 1651h-528v90h528v-90z" />
    <glyph glyph-name="breve" unicode="&#x2d8;" 
d="M244 1268q182 0 215 176h73q-10 -125 -89 -196q-79 -70 -199 -70t-199 70q-78 70 -88 196h76q14 -84 72 -130t139 -46z" />
    <glyph glyph-name="dotaccent" unicode="&#x2d9;" 
d="M330 1333q0 -35 -26 -59t-58 -25q-32 0 -59 25q-25 26 -25 60t25 59q26 25 59 25q32 0 58 -26q26 -24 26 -59z" />
    <glyph glyph-name="ring" unicode="&#x2da;" 
d="M379 1331q0 55 -39 94t-94 39t-94 -39t-39 -94t39 -94t94 -39t94 39t39 94zM442 1331q0 -82 -58 -138t-138 -56t-138 56t-59 138q1 82 59 138q58 57 138 57t138 -56t58 -139z" />
    <glyph glyph-name="ogonek" unicode="&#x2db;" 
d="M263 -457q-89 0 -142 48t-53 124q0 127 184 285h82q-90 -92 -128 -147t-38 -109t32 -83t91 -29t102 49l35 -66q-76 -72 -165 -72z" />
    <glyph glyph-name="tilde" unicode="&#x2dc;" 
d="M385 1196q-47 0 -145 48t-131 48q-74 0 -97 -102h-71q31 193 168 192q45 0 145 -48t131 -48q71 0 94 100h72q-31 -190 -166 -190z" />
    <glyph glyph-name="hungarumlaut" unicode="&#x2dd;" 
d="M350 1155h-96l207 295h147zM35 1155h-96l206 295h148z" />
    <glyph glyph-name="uni0374" unicode="&#x374;" horiz-adv-x="487" 
d="M229 1114h-90l111 377h141z" />
    <glyph glyph-name="uni0375" unicode="&#x375;" horiz-adv-x="487" 
d="M281 -336h-142l162 377h90z" />
    <glyph glyph-name="uni037E" unicode="&#x37e;" horiz-adv-x="602" 
d="M229 -285h-96l131 478h121zM393 868q-1 -36 -27 -64t-65 -28t-65 28t-27 64q0 36 27 66q28 29 66 29t64 -29t27 -66z" />
    <glyph glyph-name="tonos" unicode="&#x384;" horiz-adv-x="489" 
d="M233 1155h-94l105 295h147z" />
    <glyph glyph-name="dieresistonos" unicode="&#x385;" horiz-adv-x="598" 
d="M287 1155h-80l59 295h137zM539 1223q-37 -1 -63 25t-25 63q-1 37 25 63t63 27q37 0 61 -27q24 -28 25 -64q-1 -36 -25 -62t-61 -25zM61 1223q-37 -1 -63 25t-25 63q0 37 26 63q27 26 63 27q36 0 61 -27q25 -28 25 -64t-25 -62q-25 -25 -62 -25z" />
    <glyph glyph-name="Alphatonos" unicode="&#x386;" horiz-adv-x="1413" 
d="M233 1155h-94l105 295h147zM1051 498l-342 829l-349 -829h691zM1386 0h-129l-163 391h-777l-163 -391h-129l628 1450h117z" />
    <glyph glyph-name="anoteleia" unicode="&#x387;" horiz-adv-x="520" 
d="M352 606q0 -36 -26 -64t-66 -28t-66 28t-26 64t27 66q27 28 65 28t66 -28q26 -29 26 -66z" />
    <glyph glyph-name="Epsilontonos" unicode="&#x388;" horiz-adv-x="1210" 
d="M-127 1155h-94l104 295h148zM1110 0h-909v1450h882v-104h-768v-541h719v-103h-719v-598h795v-104z" />
    <glyph glyph-name="Etatonos" unicode="&#x389;" horiz-adv-x="1478" 
d="M-127 1155h-94l104 295h148zM1280 0h-117v698h-846v-698h-116v1450h116v-643h846v643h117v-1450z" />
    <glyph glyph-name="Iotatonos" unicode="&#x38a;" horiz-adv-x="516" 
d="M-127 1155h-94l104 295h148zM317 0h-116v1450h116v-1450z" />
    <glyph glyph-name="Omicrontonos" unicode="&#x38c;" horiz-adv-x="1755" 
d="M-14 1155h-95l105 295h147zM248 726q0 -276 174 -468t456 -192t456 191t173 467q0 276 -175 468q-176 192 -456 192t-454 -191t-174 -467zM1630 725q0 -332 -214 -548t-538 -216q-325 0 -539 216t-214 548t214 548t539 216q324 0 538 -216t214 -548z" />
    <glyph glyph-name="Upsilontonos" unicode="&#x38e;" horiz-adv-x="1193" 
d="M-252 1155h-94l104 295h148zM655 0h-116v627l-531 823h146l446 -723l449 723h135l-529 -823v-627z" />
    <glyph glyph-name="Omegatonos" unicode="&#x38f;" horiz-adv-x="1519" 
d="M-31 1155h-94l105 295h147zM1389 0h-488v358q182 33 281 168q98 135 98 343t-154 358q-154 149 -378 149t-377 -150q-154 -150 -154 -358q0 -209 98 -344t281 -166v-358h-487v96h399v193q-186 53 -293 209q-106 156 -106 356q0 266 188 444q189 178 453 178t451 -176
q187 -178 188 -444q1 -202 -105 -358t-295 -209v-193h400v-96z" />
    <glyph glyph-name="iotadieresistonos" unicode="&#x390;" horiz-adv-x="626" 
d="M279 1155h-80l59 295h137zM530 1223q-36 -1 -62 25t-26 63t26 63t62 27q36 0 62 -27q24 -28 24 -64t-24 -62q-25 -25 -62 -25zM53 1223q-37 -1 -63 25t-25 63q0 37 26 63q27 26 63 27q36 0 61 -27q25 -28 25 -64t-25 -62q-25 -25 -62 -25zM180 227v727h113v-698
q1 -174 147 -176q66 0 119 26l6 -96q-69 -26 -159 -26t-158 57t-68 186z" />
    <glyph glyph-name="Alpha" unicode="&#x391;" horiz-adv-x="1413" 
d="M1051 498l-342 829l-349 -829h691zM1386 0h-129l-163 391h-777l-163 -391h-129l628 1450h117z" />
    <glyph glyph-name="Beta" unicode="&#x392;" horiz-adv-x="1288" 
d="M317 100h306q182 0 297 74q114 74 114 228t-106 230q-106 77 -281 77h-330v-609zM317 807h312q137 1 236 67t100 205q-1 139 -103 205t-264 66h-281v-543zM635 0h-434v1450h420q184 0 313 -74q149 -83 149 -289q-1 -123 -75 -207t-193 -112v-4q141 -14 239 -110t99 -257
q0 -190 -144 -294q-145 -103 -374 -103z" />
    <glyph glyph-name="Gamma" unicode="&#x393;" horiz-adv-x="1107" 
d="M317 0h-116v1450h819v-104h-703v-1346z" />
    <glyph glyph-name="uni0394" unicode="&#x394;" horiz-adv-x="1363" 
d="M1167 100l-489 1250l-485 -1250h974zM1323 0h-1278l571 1458h125z" />
    <glyph glyph-name="Epsilon" unicode="&#x395;" horiz-adv-x="1210" 
d="M1110 0h-909v1450h882v-104h-768v-541h719v-103h-719v-598h795v-104z" />
    <glyph glyph-name="Zeta" unicode="&#x396;" horiz-adv-x="1185" 
d="M1114 0h-1036v102l878 1244h-856v104h998v-104l-877 -1242h893v-104z" />
    <glyph glyph-name="Eta" unicode="&#x397;" horiz-adv-x="1478" 
d="M1280 0h-117v698h-846v-698h-116v1450h116v-643h846v643h117v-1450z" />
    <glyph glyph-name="Theta" unicode="&#x398;" horiz-adv-x="1755" 
d="M1307 684h-852v96h852v-96zM877 66q283 0 457 191t173 467q0 276 -175 468q-176 192 -456 192t-454 -191t-174 -467t173 -468t456 -192zM1630 725q0 -332 -214 -548t-538 -216q-325 0 -539 216t-214 548t214 548t539 216q324 0 538 -216t214 -548z" />
    <glyph glyph-name="Iota" unicode="&#x399;" horiz-adv-x="516" 
d="M317 0h-116v1450h116v-1450z" />
    <glyph glyph-name="Kappa" unicode="&#x39a;" horiz-adv-x="1247" 
d="M317 0h-116v1450h116v-655l703 655h168l-733 -659l772 -791h-170l-740 774v-774z" />
    <glyph glyph-name="Lambda" unicode="&#x39b;" horiz-adv-x="1400" 
d="M1346 0h-129l-529 1327l-534 -1327h-129l608 1450h117z" />
    <glyph glyph-name="Mu" unicode="&#x39c;" horiz-adv-x="1826" 
d="M1626 0h-117v1300h-4l-559 -1300h-65l-559 1300h-5v-1300h-116v1450h180l534 -1255l531 1255h180v-1450z" />
    <glyph glyph-name="Nu" unicode="&#x39d;" horiz-adv-x="1572" 
d="M1372 0h-147l-903 1290h-5v-1290h-116v1450h147l903 -1282h4v1282h117v-1450z" />
    <glyph glyph-name="Xi" unicode="&#x39e;" horiz-adv-x="1267" 
d="M1165 1341h-1063v109h1063v-109zM1165 0h-1063v109h1063v-109zM1073 698h-878v105h878v-105z" />
    <glyph glyph-name="Omicron" unicode="&#x39f;" horiz-adv-x="1755" 
d="M248 726q0 -276 174 -468t456 -192t456 191t173 467q0 276 -175 468q-176 192 -456 192t-454 -191t-174 -467zM1630 725q0 -332 -214 -548t-538 -216q-325 0 -539 216t-214 548t214 548t539 216q324 0 538 -216t214 -548z" />
    <glyph glyph-name="Pi" unicode="&#x3a0;" horiz-adv-x="1458" 
d="M1260 0h-117v1346h-826v-1346h-116v1450h1059v-1450z" />
    <glyph glyph-name="Rho" unicode="&#x3a1;" horiz-adv-x="1183" 
d="M317 784h287q166 0 263 73t98 214q-1 141 -99 210t-264 69h-285v-566zM317 0h-116v1450h403q215 0 346 -94t131 -282t-129 -288t-342 -100h-293v-686z" />
    <glyph glyph-name="Sigma" unicode="&#x3a3;" horiz-adv-x="1189" 
d="M1118 0h-1036v104l471 664l-453 573v109h998v-104h-856l452 -572l-473 -670h897v-104z" />
    <glyph glyph-name="Tau" unicode="&#x3a4;" horiz-adv-x="1148" 
d="M633 0h-117v1346h-487v104h1091v-104h-487v-1346z" />
    <glyph glyph-name="Upsilon" unicode="&#x3a5;" horiz-adv-x="1193" 
d="M655 0h-116v627l-531 823h146l446 -723l449 723h135l-529 -823v-627z" />
    <glyph glyph-name="Phi" unicode="&#x3a6;" horiz-adv-x="1744" 
d="M930 1311v-1159q274 10 428 158t154 416t-149 422q-148 153 -433 163zM231 730q1 -268 151 -418t431 -160v1159q-281 -10 -431 -162t-151 -419zM930 -68h-117v117q-354 10 -528 204t-174 468t154 465q79 98 219 158t329 67v119h117v-119q350 -10 527 -203t177 -464
t-152 -464q-79 -98 -220 -160t-332 -71v-117z" />
    <glyph glyph-name="Chi" unicode="&#x3a7;" horiz-adv-x="1292" 
d="M1243 0h-145l-453 670l-450 -670h-146l526 762l-479 688h146l405 -598l402 598h137l-473 -686z" />
    <glyph glyph-name="Psi" unicode="&#x3a8;" horiz-adv-x="1611" 
d="M864 0h-116v258q-315 0 -458 135q-142 135 -143 363v694h117v-676q0 -412 484 -412v1088h116v-1088q483 0 484 412v676h116v-694q0 -214 -123 -346q-139 -152 -477 -152v-258z" />
    <glyph glyph-name="uni03A9" unicode="&#x3a9;" horiz-adv-x="1519" 
d="M1389 0h-488v358q182 33 281 168q98 135 98 343t-154 358q-154 149 -378 149t-377 -150q-154 -150 -154 -358q0 -209 98 -344t281 -166v-358h-487v96h399v193q-186 53 -293 209q-106 156 -106 356q0 266 188 444q189 178 453 178t451 -176q187 -178 188 -444
q1 -202 -105 -358t-295 -209v-193h400v-96z" />
    <glyph glyph-name="Iotadieresis" unicode="&#x3aa;" horiz-adv-x="516" 
d="M442 1653q-38 1 -62 27t-24 62t25 62t61 27q36 0 63 -27q25 -26 25 -62t-25 -63q-26 -26 -63 -26zM74 1653q-37 1 -63 27q-25 26 -25 62t26 62t62 27q38 0 62 -27q24 -26 24 -62t-24 -62t-62 -27zM317 0h-116v1450h116v-1450z" />
    <glyph glyph-name="Upsilondieresis" unicode="&#x3ab;" horiz-adv-x="1193" 
d="M784 1653q-38 1 -62 27t-24 62t25 62t61 27q36 0 63 -27q25 -26 25 -62t-25 -63q-26 -26 -63 -26zM416 1653q-37 1 -63 27q-25 26 -25 62t26 62t62 27q38 0 62 -27q24 -26 24 -62t-24 -62t-62 -27zM655 0h-116v627l-531 823h146l446 -723l449 723h135l-529 -823v-627z
" />
    <glyph glyph-name="alphatonos" unicode="&#x3ac;" horiz-adv-x="1400" 
d="M684 1155h-94l104 295h148zM1216 -16q-64 0 -99 41q-34 41 -68 155l-25 80h-4q-43 -119 -153 -203t-267 -84q-213 1 -347 145t-134 358t133 358t337 145q203 0 315 -102t138 -244h5l98 321h117l-179 -532l56 -197q27 -92 49 -119q38 -46 119 -16l6 -90q-33 -16 -97 -16z
M236 472q0 -178 106 -290t265 -112t264 120t105 286q0 167 -102 287q-104 120 -269 120t-267 -116t-102 -295z" />
    <glyph glyph-name="epsilontonos" unicode="&#x3ad;" horiz-adv-x="1009" 
d="M616 1155h-94l105 295h147zM520 -27q-195 0 -297 74t-102 203q0 100 57 164t152 80v4q-170 45 -170 207q0 133 104 203t283 71q236 0 356 -92l-57 -80q-109 78 -307 78q-262 0 -263 -178q0 -86 60 -124t194 -38h201v-94h-219q-272 0 -272 -187q0 -94 76 -144t216 -50
q201 0 328 125l72 -66q-137 -156 -412 -156z" />
    <glyph glyph-name="etatonos" unicode="&#x3ae;" horiz-adv-x="1191" 
d="M612 1155h-94l105 295h147zM1010 -492h-111v1033q0 346 -270 346q-133 -1 -225 -107t-93 -295v-485h-110v735q0 141 -15 219h105q16 -72 16 -209h4q43 113 137 173t207 61q175 0 265 -110t90 -287v-1074z" />
    <glyph glyph-name="iotatonos" unicode="&#x3af;" horiz-adv-x="626" 
d="M293 1155h-94l104 295h148zM180 227v727h113v-698q1 -174 147 -176q66 0 119 26l6 -96q-69 -26 -159 -26t-158 57t-68 186z" />
    <glyph glyph-name="upsilondieresistonos" unicode="&#x3b0;" horiz-adv-x="1157" 
d="M575 1155h-79l59 295h137zM827 1223q-37 -1 -63 25t-25 63q0 37 26 63q27 26 63 27q36 0 61 -27q25 -28 25 -64t-25 -62q-25 -25 -62 -25zM350 1223q-36 -1 -62 25t-26 63t26 63t62 27q36 0 62 -27q24 -28 24 -64t-24 -62q-25 -25 -62 -25zM1018 520q0 -547 -440 -547
q-397 0 -398 416v565h113v-548q0 -336 285 -336q86 0 149 30t96 74q58 76 74 222q4 48 4 112q0 243 -90 446h121q86 -199 86 -434z" />
    <glyph glyph-name="alpha" unicode="&#x3b1;" horiz-adv-x="1400" 
d="M1216 -16q-64 0 -99 41q-34 41 -68 155l-25 80h-4q-43 -119 -153 -203t-267 -84q-213 1 -347 145t-134 358t133 358t337 145q203 0 315 -102t138 -244h5l98 321h117l-179 -532l56 -197q27 -92 49 -119q38 -46 119 -16l6 -90q-33 -16 -97 -16zM236 472q0 -178 106 -290
t265 -112t264 120t105 286q0 167 -102 287q-104 120 -269 120t-267 -116t-102 -295z" />
    <glyph glyph-name="beta" unicode="&#x3b2;" horiz-adv-x="1296" 
d="M850 877q328 -77 328 -447q0 -180 -130 -318t-335 -139q-139 1 -245 63t-159 152h-6v-680h-110v1547q0 223 103 370q103 148 355 148q205 0 311 -108t107 -267q0 -123 -63 -206t-156 -111v-4zM633 811h-170v96h162q161 0 245 74t84 211t-84 212t-227 75q-340 0 -340 -430
v-545q0 -209 122 -322q122 -112 279 -112t259 101t102 267q0 373 -432 373z" />
    <glyph glyph-name="gamma" unicode="&#x3b3;" horiz-adv-x="1118" 
d="M653 -420h-110v371l-285 721q-51 127 -84 161t-108 35l16 101q98 0 151 -33t91 -129l272 -707h6l356 854h115l-420 -997v-377z" />
    <glyph glyph-name="delta" unicode="&#x3b4;" horiz-adv-x="1212" 
d="M307 1268q0 131 93 218t296 87t336 -74l-47 -92q-121 68 -275 68q-154 -1 -222 -57q-66 -56 -66 -142t58 -141t240 -133t277 -200q97 -122 97 -339t-144 -353t-346 -136q-201 0 -343 136t-142 350q1 214 115 354t327 155v4q-254 111 -254 295zM606 70q170 0 274 119
q103 120 102 300t-111 292q-109 112 -275 112t-265 -121t-99 -294q0 -172 102 -290t272 -118z" />
    <glyph glyph-name="epsilon" unicode="&#x3b5;" horiz-adv-x="1009" 
d="M520 -27q-195 0 -297 74t-102 203q0 100 57 164t152 80v4q-170 45 -170 207q0 133 104 203t283 71q236 0 356 -92l-57 -80q-109 78 -307 78q-262 0 -263 -178q0 -86 60 -124t194 -38h201v-94h-219q-272 0 -272 -187q0 -94 76 -144t216 -50q201 0 328 125l72 -66
q-137 -156 -412 -156z" />
    <glyph glyph-name="zeta" unicode="&#x3b6;" horiz-adv-x="917" 
d="M795 -158q0 76 -45 116t-161 77t-175 61q-158 63 -237 160q-79 98 -79 272q0 260 170 503t457 413v4h-557v100h731v-102q-326 -186 -505 -418t-179 -493q0 -160 87 -242q86 -83 274 -143t257 -124t69 -190t-100 -200q-99 -74 -267 -78v98q260 12 260 186z" />
    <glyph glyph-name="eta" unicode="&#x3b7;" horiz-adv-x="1191" 
d="M1010 -492h-111v1033q0 346 -270 346q-133 -1 -225 -107t-93 -295v-485h-110v735q0 141 -15 219h105q16 -72 16 -209h4q43 113 137 173t207 61q175 0 265 -110t90 -287v-1074z" />
    <glyph glyph-name="theta" unicode="&#x3b8;" horiz-adv-x="1257" 
d="M629 1479q-369 0 -381 -645h762q-4 295 -96 470t-285 175zM1010 731h-762q8 -662 381 -661q185 0 281 168t100 493zM629 -27q-494 0 -494 800t494 800t494 -800t-494 -800z" />
    <glyph glyph-name="iota" unicode="&#x3b9;" horiz-adv-x="626" 
d="M180 227v727h113v-698q1 -174 147 -176q66 0 119 26l6 -96q-69 -26 -159 -26t-158 57t-68 186z" />
    <glyph glyph-name="kappa" unicode="&#x3ba;" horiz-adv-x="1124" 
d="M299 0h-111v954h111v-555h6l424 463q100 109 182 107q39 0 80 -15l-26 -96q-25 6 -45 6q-55 0 -146 -96l-153 -166l430 -602h-140l-368 518l-244 -264v-254z" />
    <glyph glyph-name="lambda" unicode="&#x3bb;" horiz-adv-x="1165" 
d="M1057 -16q-98 0 -146 125l-288 786h-5l-430 -895h-125l510 1026l-112 303q-31 80 -58 112t-63 32t-68 -9l-14 92q62 16 118 16t102 -47q46 -48 89 -165l449 -1221q20 -59 71 -59q18 0 41 8l7 -90q-47 -14 -78 -14z" />
    <glyph glyph-name="uni03BC" unicode="&#x3bc;" horiz-adv-x="1138" 
d="M856 0v182h-4q-45 -90 -139 -149t-197 -60q-160 0 -248 95v-535h-106v1421h106v-540q0 -170 62 -256t204 -86q144 0 233 106t89 291v485h109v-735q0 -88 8 -219h-117z" />
    <glyph glyph-name="nu" unicode="&#x3bd;" horiz-adv-x="976" 
d="M899 954q0 -125 -29 -221t-100 -256l-215 -477h-141l-377 954h125l319 -854h11l157 357q84 188 110 279t25 218h115z" />
    <glyph glyph-name="xi" unicode="&#x3be;" horiz-adv-x="1019" 
d="M117 482q0 148 78 248q78 101 219 138v6q-226 56 -226 282t207 288v4h-225v100h793v-102h-148q-289 0 -407 -66t-117 -215q0 -94 53 -149q53 -54 131 -72t195 -18h202v-107h-200q-444 0 -445 -327q0 -135 86 -207t280 -132q195 -60 271 -125t76 -192t-98 -201
q-99 -73 -269 -77v98q260 12 261 184q0 86 -56 122t-265 106q-210 70 -303 168t-93 246z" />
    <glyph glyph-name="omicron" unicode="&#x3bf;" horiz-adv-x="1247" 
d="M624 74q175 0 281 114t107 289q0 174 -106 290t-282 116t-282 -116t-106 -290t106 -289q107 -114 282 -114zM121 478q0 218 140 360q139 142 361 141q222 1 363 -141t141 -360t-141 -361t-361 -143t-362 142q-142 144 -141 362z" />
    <glyph glyph-name="pi" unicode="&#x3c0;" horiz-adv-x="1148" 
d="M799 217v639h-381l-131 -856h-105l131 856h-200v98h970v-98h-180v-655q1 -61 17 -91t63 -30t86 16v-78q-115 -53 -195 -17q-70 31 -73 115q-2 52 -2 101z" />
    <glyph glyph-name="rho" unicode="&#x3c1;" horiz-adv-x="1265" 
d="M652 887q-172 0 -282 -117q-108 -117 -108 -292q0 -176 110 -292t280 -116q171 0 275 116q103 117 103 290t-103 292t-275 119zM274 -492h-112v959q0 229 136 371t355 141q123 0 221 -45t156 -119q118 -151 117 -352q0 -201 -135 -345t-346 -145q-122 -1 -226 57
t-159 158h-7v-680z" />
    <glyph glyph-name="sigma1" unicode="&#x3c2;" horiz-adv-x="1042" 
d="M811 -160q0 78 -51 121t-171 78t-195 67q-76 32 -144 86q-138 107 -136 314q1 207 125 340q125 133 365 133t383 -123l-65 -80q-127 104 -318 104q-192 0 -282 -108q-90 -110 -90 -256t92 -230q94 -84 273 -138t250 -120t71 -192t-98 -200t-267 -78v98q258 12 258 184z
" />
    <glyph glyph-name="sigma" unicode="&#x3c3;" horiz-adv-x="1294" 
d="M236 464q0 -166 104 -280t270 -114t272 110q105 111 105 283t-101 285q-102 112 -274 112t-274 -115t-102 -281zM1214 856h-323v-4q90 -45 149 -147t60 -236q0 -223 -138 -359t-350 -136t-352 138q-141 138 -141 350t134 352t355 140h606v-98z" />
    <glyph glyph-name="tau" unicode="&#x3c4;" horiz-adv-x="1001" 
d="M416 856h-357v98h887v-98h-418v-606q0 -170 179 -170q87 -1 155 26l6 -94q-74 -28 -196 -28t-190 70q-67 70 -66 184v618z" />
    <glyph glyph-name="upsilon" unicode="&#x3c5;" horiz-adv-x="1157" 
d="M1018 520q0 -547 -440 -547q-397 0 -398 416v565h113v-548q0 -336 285 -336q86 0 149 30t96 74q58 76 74 222q4 48 4 112q0 243 -90 446h121q86 -199 86 -434z" />
    <glyph glyph-name="phi" unicode="&#x3c6;" horiz-adv-x="1443" 
d="M778 893v-834q217 2 325 116q107 114 107 295t-99 301q-100 120 -333 122zM666 59v834q-232 -2 -332 -122q-100 -121 -100 -307t111 -296q112 -110 321 -109zM778 -492h-112v453q-258 2 -403 143q-144 141 -144 355t118 363q60 77 171 123t258 48v305h112v-305
q405 -6 517 -329q30 -88 30 -187q0 -227 -142 -371t-405 -145v-453z" />
    <glyph glyph-name="chi" unicode="&#x3c7;" horiz-adv-x="1130" 
d="M1028 -508q-100 0 -158 109l-286 546l-373 -639h-127l440 736l-266 506q-27 49 -42 69q-37 49 -130 49l16 101q109 0 155 -31t97 -129l238 -459l336 604h127l-402 -702l318 -600q33 -61 86 -62q20 1 47 7l6 -91q-41 -14 -82 -14z" />
    <glyph glyph-name="psi" unicode="&#x3c8;" horiz-adv-x="1458" 
d="M788 -492h-110v451h-21q-237 2 -357 97t-120 339v559h113v-544q0 -178 75 -264t277 -87h33v1239h110v-1239h21q393 4 393 439q0 250 -90 456h121q86 -194 86 -454t-131 -400t-383 -141h-17v-451z" />
    <glyph glyph-name="omega" unicode="&#x3c9;" horiz-adv-x="1566" 
d="M487 -27q-162 0 -259 117t-97 338q0 313 182 543l101 -43q-166 -223 -166 -502q0 -144 61 -250t177 -106t179 84q62 84 62 247v338h113v-338q0 -178 68 -255q68 -76 174 -76t172 95t65 261q0 279 -166 502l100 43q182 -225 183 -543q0 -233 -102 -344t-257 -111
q-117 0 -191 68t-100 168h-4q-26 -92 -98 -164t-197 -72z" />
    <glyph glyph-name="iotadieresis" unicode="&#x3ca;" horiz-adv-x="626" 
d="M426 1243q-38 0 -62 27q-24 26 -24 62t25 63t61 27t62 -28q26 -26 26 -62t-26 -62t-62 -27zM57 1243q-37 0 -63 27q-26 26 -25 62q0 36 26 63q27 27 63 27t61 -28q25 -26 25 -62t-26 -62q-24 -26 -61 -27zM180 227v727h113v-698q1 -174 147 -176q66 0 119 26l6 -96
q-69 -26 -159 -26t-158 57t-68 186z" />
    <glyph glyph-name="upsilondieresis" unicode="&#x3cb;" horiz-adv-x="1157" 
d="M743 1243q-37 0 -61 27q-24 26 -25 62q0 36 25 63q26 27 62 27t62 -28q26 -26 26 -62t-26 -62t-63 -27zM375 1243q-37 0 -63 27q-26 26 -26 62t26 63t63 27t61 -28q24 -26 25 -62q-1 -36 -25 -62t-61 -27zM1018 520q0 -547 -440 -547q-397 0 -398 416v565h113v-548
q0 -336 285 -336q86 0 149 30t96 74q58 76 74 222q4 48 4 112q0 243 -90 446h121q86 -199 86 -434z" />
    <glyph glyph-name="omicrontonos" unicode="&#x3cc;" horiz-adv-x="1247" 
d="M686 1155h-94l104 295h148zM624 74q175 0 281 114t107 289q0 174 -106 290t-282 116t-282 -116t-106 -290t106 -289q107 -114 282 -114zM121 478q0 218 140 360q139 142 361 141q222 1 363 -141t141 -360t-141 -361t-361 -143t-362 142q-142 144 -141 362z" />
    <glyph glyph-name="upsilontonos" unicode="&#x3cd;" horiz-adv-x="1157" 
d="M612 1155h-94l105 295h147zM1018 520q0 -547 -440 -547q-397 0 -398 416v565h113v-548q0 -336 285 -336q86 0 149 30t96 74q58 76 74 222q4 48 4 112q0 243 -90 446h121q86 -199 86 -434z" />
    <glyph glyph-name="omegatonos" unicode="&#x3ce;" horiz-adv-x="1566" 
d="M834 1155h-95l105 295h147zM487 -27q-162 0 -259 117t-97 338q0 313 182 543l101 -43q-166 -223 -166 -502q0 -144 61 -250t177 -106t179 84q62 84 62 247v338h113v-338q0 -178 68 -255q68 -76 174 -76t172 95t65 261q0 279 -166 502l100 43q182 -225 183 -543
q0 -233 -102 -344t-257 -111q-117 0 -191 68t-100 168h-4q-26 -92 -98 -164t-197 -72z" />
    <glyph glyph-name="uni0400" unicode="&#x400;" horiz-adv-x="1210" 
d="M745 1565h-96l-258 295h148zM1110 0h-909v1450h882v-104h-768v-541h719v-103h-719v-598h795v-104z" />
    <glyph glyph-name="uni0401" unicode="&#x401;" horiz-adv-x="1210" 
d="M831 1653q-37 1 -61 27t-25 62q0 36 25 62q26 26 62 27q36 0 62 -27q26 -26 26 -62t-26 -62t-63 -27zM463 1653q-37 1 -63 27t-26 62t26 62t63 27q37 0 61 -27q24 -26 25 -62q-1 -36 -25 -62t-61 -27zM1110 0h-909v1450h882v-104h-768v-541h719v-103h-719v-598h795v-104z
" />
    <glyph glyph-name="uni0402" unicode="&#x402;" horiz-adv-x="1611" 
d="M989 86q195 0 301 83t106 245t-107 248t-313 86t-343 -52v-696h-117v1346h-487v104h1091v-104h-487v-543q158 45 350 45q250 0 390 -111t140 -323t-138 -322q-138 -111 -376 -110q-85 0 -163 16l18 102q61 -14 135 -14z" />
    <glyph glyph-name="uni0403" unicode="&#x403;" horiz-adv-x="1030" 
d="M604 1565h-96l207 295h147zM317 0h-116v1450h800v-104h-684v-1346z" />
    <glyph glyph-name="uni0404" unicode="&#x404;" horiz-adv-x="1476" 
d="M874 -39q-328 0 -538 216t-211 548q0 332 213 548t536 216q156 0 292 -58t214 -159l-94 -74q-61 80 -172 133t-237 53q-260 0 -430 -164q-169 -165 -195 -415h756v-103h-760v-8q10 -266 183 -447t455 -181t435 213l90 -62q-82 -115 -222 -185t-315 -71z" />
    <glyph glyph-name="uni0405" unicode="&#x405;" horiz-adv-x="1159" 
d="M1028 371q0 -197 -137 -303t-326 -107q-278 0 -438 209l82 72q152 -178 356 -179q137 0 241 81q103 81 103 232t-150 230q-67 35 -148 63q-81 29 -163 59t-148 72q-67 42 -109 116t-41 180q0 188 137 290t321 103q266 0 398 -172l-84 -76q-121 147 -320 148
q-131 0 -233 -77q-103 -77 -103 -229t152 -225q68 -33 214 -81t245 -108q67 -42 109 -118t42 -180z" />
    <glyph glyph-name="uni0406" unicode="&#x406;" horiz-adv-x="516" 
d="M317 0h-116v1450h116v-1450z" />
    <glyph glyph-name="uni0407" unicode="&#x407;" horiz-adv-x="516" 
d="M442 1653q-38 1 -62 27t-24 62t25 62t61 27q36 0 63 -27q25 -26 25 -62t-25 -63q-26 -26 -63 -26zM74 1653q-37 1 -63 27q-25 26 -25 62t26 62t62 27q38 0 62 -27q24 -26 24 -62t-24 -62t-62 -27zM317 0h-116v1450h116v-1450z" />
    <glyph glyph-name="uni0408" unicode="&#x408;" horiz-adv-x="999" 
d="M694 420v1030h117v-1038q0 -180 -79 -303q-90 -146 -302 -146q-145 0 -246 77q-100 77 -131 198l109 30q24 -90 92 -146t164 -56q276 0 276 354z" />
    <glyph glyph-name="uni0409" unicode="&#x409;" horiz-adv-x="2207" 
d="M1317 100h274q182 0 291 74t109 226q-1 152 -105 230q-104 79 -284 79h-285v-609zM1604 0h-404v1348h-618v-269q0 -559 -100 -826t-351 -267q-72 0 -123 16l21 104q57 -14 86 -14q195 0 273 241t79 797v320h850v-639h293q223 0 361 -104q138 -103 138 -305t-139 -302
t-366 -100z" />
    <glyph glyph-name="uni040A" unicode="&#x40a;" horiz-adv-x="2168" 
d="M1280 100h274q182 0 290 73t108 225t-104 232q-104 79 -285 79h-283v-609zM1565 0h-402v709h-846v-709h-116v1450h116v-639h846v639h117v-639h291q223 0 361 -104q138 -103 138 -305t-138 -302q-140 -100 -367 -100z" />
    <glyph glyph-name="uni040B" unicode="&#x40b;" horiz-adv-x="1611" 
d="M1438 0h-117v463q0 131 -81 207q-82 76 -278 76t-329 -48v-698h-117v1346h-487v104h1091v-104h-487v-543q162 45 348 45q457 0 457 -375v-473z" />
    <glyph glyph-name="uni040C" unicode="&#x40c;" horiz-adv-x="1247" 
d="M672 1565h-97l207 295h148zM317 0h-116v1450h116v-655l703 655h168l-733 -659l772 -791h-170l-740 774v-774z" />
    <glyph glyph-name="uni040D" unicode="&#x40d;" horiz-adv-x="1509" 
d="M838 1565h-97l-258 295h148zM1311 0h-117v1280h-6l-852 -1280h-135v1450h116v-1272h5l852 1272h137v-1450z" />
    <glyph glyph-name="uni040E" unicode="&#x40e;" horiz-adv-x="1267" 
d="M643 1587q-119 0 -196 71t-91 185l78 15q14 -86 72 -134t137 -47q79 -1 137 47t72 134l78 -15q-14 -115 -91 -185t-196 -71zM254 92q129 0 217 162l109 201l-566 995h136l495 -877l479 877h129l-682 -1237q-124 -227 -296 -227q-89 0 -138 12l21 108q43 -14 96 -14z" />
    <glyph glyph-name="uni040F" unicode="&#x40f;" horiz-adv-x="1472" 
d="M1274 0h-481v-365h-113v365h-479v1450h116v-1346h840v1346h117v-1450z" />
    <glyph glyph-name="uni0410" unicode="&#x410;" horiz-adv-x="1413" 
d="M1051 498l-342 829l-349 -829h691zM1386 0h-129l-163 391h-777l-163 -391h-129l628 1450h117z" />
    <glyph glyph-name="uni0411" unicode="&#x411;" horiz-adv-x="1273" 
d="M317 100h306q181 0 289 73t108 225t-104 232q-104 79 -285 79h-314v-609zM633 0h-432v1450h839v-104h-723v-535h322q223 0 361 -104q138 -103 138 -305t-138 -302q-140 -100 -367 -100z" />
    <glyph glyph-name="uni0412" unicode="&#x412;" horiz-adv-x="1288" 
d="M317 100h306q182 0 297 74q114 74 114 228t-106 230q-106 77 -281 77h-330v-609zM317 807h312q137 1 236 67t100 205q-1 139 -103 205t-264 66h-281v-543zM635 0h-434v1450h420q184 0 313 -74q149 -83 149 -289q-1 -123 -75 -207t-193 -112v-4q141 -14 239 -110t99 -257
q0 -190 -144 -294q-145 -103 -374 -103z" />
    <glyph glyph-name="uni0413" unicode="&#x413;" horiz-adv-x="1030" 
d="M317 0h-116v1450h800v-104h-684v-1346z" />
    <glyph glyph-name="uni0414" unicode="&#x414;" horiz-adv-x="1523" 
d="M1167 104v1242h-641v-295q0 -666 -229 -947h870zM1450 -365h-113v365h-1192v-365h-110v469h115q262 268 262 947v399h872v-1346h166v-469z" />
    <glyph glyph-name="uni0415" unicode="&#x415;" horiz-adv-x="1210" 
d="M1110 0h-909v1450h882v-104h-768v-541h719v-103h-719v-598h795v-104z" />
    <glyph glyph-name="uni0416" unicode="&#x416;" horiz-adv-x="1929" 
d="M1022 0h-117v774l-715 -774h-170l748 791l-709 659h168l678 -655v655h117v-655l680 655h168l-709 -659l748 -791h-170l-717 774v-774z" />
    <glyph glyph-name="uni0417" unicode="&#x417;" horiz-adv-x="1177" 
d="M1036 399q0 -199 -142 -319t-353 -119q-289 0 -457 205l80 70q156 -172 379 -173q155 -1 265 93t110 246t-118 229q-118 78 -292 78h-94v102h88q164 0 267 73t103 209t-96 216t-233 80q-182 0 -328 -146l-72 72q163 174 381 174q218 -1 338 -103t121 -284
q1 -129 -75 -219t-195 -117v-4q139 -25 231 -122t92 -241z" />
    <glyph glyph-name="uni0418" unicode="&#x418;" horiz-adv-x="1509" 
d="M1311 0h-117v1280h-6l-852 -1280h-135v1450h116v-1272h5l852 1272h137v-1450z" />
    <glyph glyph-name="uni0419" unicode="&#x419;" horiz-adv-x="1509" 
d="M754 1587q-118 0 -196 71q-77 71 -91 185l78 15q14 -86 71 -134q58 -48 138 -47q80 -1 138 47t71 134l77 -15q-14 -115 -91 -185t-195 -71zM1311 0h-117v1280h-6l-852 -1280h-135v1450h116v-1272h5l852 1272h137v-1450z" />
    <glyph glyph-name="uni041A" unicode="&#x41a;" horiz-adv-x="1247" 
d="M317 0h-116v1450h116v-655l703 655h168l-733 -659l772 -791h-170l-740 774v-774z" />
    <glyph glyph-name="uni041B" unicode="&#x41b;" horiz-adv-x="1517" 
d="M1317 0h-117v1348h-618v-269q0 -559 -100 -826t-351 -267q-72 0 -123 16l21 104q57 -14 86 -14q195 0 273 241t79 797v320h850v-1450z" />
    <glyph glyph-name="uni041C" unicode="&#x41c;" horiz-adv-x="1826" 
d="M1626 0h-117v1300h-4l-559 -1300h-65l-559 1300h-5v-1300h-116v1450h180l534 -1255l531 1255h180v-1450z" />
    <glyph glyph-name="uni041D" unicode="&#x41d;" horiz-adv-x="1478" 
d="M1280 0h-117v698h-846v-698h-116v1450h116v-643h846v643h117v-1450z" />
    <glyph glyph-name="uni041E" unicode="&#x41e;" horiz-adv-x="1755" 
d="M248 726q0 -276 174 -468t456 -192t456 191t173 467q0 276 -175 468q-176 192 -456 192t-454 -191t-174 -467zM1630 725q0 -332 -214 -548t-538 -216q-325 0 -539 216t-214 548t214 548t539 216q324 0 538 -216t214 -548z" />
    <glyph glyph-name="uni041F" unicode="&#x41f;" horiz-adv-x="1472" 
d="M1274 0h-117v1346h-840v-1346h-116v1450h1073v-1450z" />
    <glyph glyph-name="uni0420" unicode="&#x420;" horiz-adv-x="1183" 
d="M317 784h287q166 0 263 73t98 214q-1 141 -99 210t-264 69h-285v-566zM317 0h-116v1450h403q215 0 346 -94t131 -282t-129 -288t-342 -100h-293v-686z" />
    <glyph glyph-name="uni0421" unicode="&#x421;" horiz-adv-x="1476" 
d="M876 -39q-330 0 -540 216t-211 548q0 332 213 548t536 216q160 0 291 -55t209 -156l-84 -78q-66 82 -176 133t-237 51q-283 0 -456 -191t-173 -467t173 -468t451 -192t449 213l80 -64q-195 -254 -525 -254z" />
    <glyph glyph-name="uni0422" unicode="&#x422;" horiz-adv-x="1148" 
d="M633 0h-117v1346h-487v104h1091v-104h-487v-1346z" />
    <glyph glyph-name="uni0423" unicode="&#x423;" horiz-adv-x="1267" 
d="M254 92q129 0 217 162l109 201l-566 995h136l495 -877l479 877h129l-682 -1237q-124 -227 -296 -227q-89 0 -138 12l21 108q43 -14 96 -14z" />
    <glyph glyph-name="uni0424" unicode="&#x424;" horiz-adv-x="1685" 
d="M1454 744q0 228 -147 366q-148 137 -406 145v-1017q258 12 406 145q147 133 147 361zM784 238v1017q-256 -8 -403 -145q-147 -138 -147 -366t146 -361t404 -145zM901 -39h-117v174q-301 4 -487 171t-186 445q0 279 186 439t487 168v131h117v-131q303 -8 489 -169
t185 -438q0 -277 -185 -445t-489 -171v-174z" />
    <glyph glyph-name="uni0425" unicode="&#x425;" horiz-adv-x="1292" 
d="M1243 0h-145l-453 670l-450 -670h-146l526 762l-479 688h146l405 -598l402 598h137l-473 -686z" />
    <glyph glyph-name="uni0426" unicode="&#x426;" horiz-adv-x="1511" 
d="M1438 -365h-111v365h-1126v1450h116v-1346h840v1346h117v-1346h164v-469z" />
    <glyph glyph-name="uni0427" unicode="&#x427;" horiz-adv-x="1292" 
d="M1092 0h-117v618q-162 -45 -354 -45q-451 0 -451 375v502h117v-492q0 -130 81 -206t248 -76q229 0 359 47v727h117v-1450z" />
    <glyph glyph-name="uni0428" unicode="&#x428;" horiz-adv-x="2168" 
d="M1968 0h-1767v1450h116v-1346h709v1346h117v-1346h708v1346h117v-1450z" />
    <glyph glyph-name="uni0429" unicode="&#x429;" horiz-adv-x="2207" 
d="M2134 -365h-111v365h-1822v1450h116v-1346h709v1346h117v-1346h708v1346h117v-1346h166v-469z" />
    <glyph glyph-name="uni042A" unicode="&#x42a;" horiz-adv-x="1419" 
d="M530 100h275q182 0 290 73q107 73 107 225t-104 232q-104 79 -285 79h-283v-609zM815 0h-403v1346h-383v104h501v-639h291q223 0 361 -104q138 -103 139 -305t-139 -302t-367 -100z" />
    <glyph glyph-name="uni042B" unicode="&#x42b;" horiz-adv-x="1652" 
d="M1452 0h-117v1450h117v-1450zM317 100h275q182 0 290 73t108 225t-105 232q-104 79 -285 79h-283v-609zM602 0h-401v1450h116v-639h291q224 0 362 -104q138 -103 138 -305t-140 -302t-366 -100z" />
    <glyph glyph-name="uni042C" unicode="&#x42c;" horiz-adv-x="1206" 
d="M317 100h275q182 0 290 73t108 225t-105 232q-104 79 -285 79h-283v-609zM602 0h-401v1450h116v-639h291q224 0 362 -104q138 -103 138 -305t-140 -302t-366 -100z" />
    <glyph glyph-name="uni042D" unicode="&#x42d;" horiz-adv-x="1476" 
d="M1229 702h-760v103h756q-25 250 -195 415t-430 164q-124 0 -236 -53t-174 -133l-94 74q80 100 216 158t290 59q324 0 537 -216t213 -548t-211 -548t-539 -216q-172 0 -313 71t-223 185l90 62q152 -213 435 -213t461 185q177 185 177 451z" />
    <glyph glyph-name="uni042E" unicode="&#x42e;" horiz-adv-x="2162" 
d="M1341 68q264 0 419 194t155 467q0 169 -66 317t-198 243q-133 95 -310 95q-261 0 -417 -194t-156 -464t154 -464t419 -194zM317 0h-116v1450h116v-645h332q25 295 214 489t487 193q298 0 493 -218t195 -544t-194 -544t-500 -218t-497 210t-202 529h-328v-702z" />
    <glyph glyph-name="uni042F" unicode="&#x42f;" horiz-adv-x="1226" 
d="M909 741v609h-274q-182 0 -291 -74q-108 -74 -108 -226t105 -230q105 -79 286 -79h282zM1026 0h-117v639h-291l-382 -639h-142l398 649q-170 27 -272 127q-101 100 -101 287t138 287t366 100h403v-1450z" />
    <glyph glyph-name="uni0430" unicode="&#x430;" horiz-adv-x="1079" 
d="M795 412v77h-72q-489 0 -490 -225q0 -102 71 -150t169 -48q156 0 239 102t83 244zM801 176h-4q-113 -203 -351 -203q-127 0 -227 72t-100 213q0 199 185 263q153 55 394 57h97v43q0 266 -271 266q-168 0 -284 -113l-62 74q135 131 357 131q166 0 266 -88t100 -258v-418
q1 -129 17 -215h-101q-16 98 -16 176z" />
    <glyph glyph-name="uni0431" unicode="&#x431;" horiz-adv-x="1259" 
d="M637 70q171 0 279 114t108 290q0 175 -104 292t-276 117t-280 -118q-110 -118 -110 -292t105 -289q106 -114 278 -114zM668 977q211 0 342 -143q131 -144 131 -360q1 -216 -141 -358t-378 -142t-362 165q-121 137 -121 443q0 424 70 587t189 224q71 35 165 47l307 37
q145 18 170 94l80 -25q-35 -137 -217 -160l-293 -36q-209 -27 -291 -166t-86 -459h7q127 252 428 252z" />
    <glyph glyph-name="uni0432" unicode="&#x432;" horiz-adv-x="1089" 
d="M305 543h311q80 0 140 40q59 41 59 121t-60 118t-157 38h-293v-317zM305 96h309q109 0 176 43q66 43 66 132t-63 135t-164 45h-324v-355zM631 0h-438v954h428q127 0 215 -55t88 -184q0 -80 -50 -135t-124 -74v-2q94 -12 157 -74t63 -178t-93 -184q-94 -68 -246 -68z" />
    <glyph glyph-name="uni0433" unicode="&#x433;" horiz-adv-x="858" 
d="M305 0h-112v954h620v-94h-508v-860z" />
    <glyph glyph-name="uni0434" unicode="&#x434;" horiz-adv-x="1226" 
d="M889 96v764h-457v-192q0 -338 -141 -572h598zM1153 -313h-104v313h-893v-313h-105v409h113q70 88 115 244t45 356v258h673v-858h156v-409z" />
    <glyph glyph-name="uni0435" unicode="&#x435;" horiz-adv-x="1161" 
d="M602 -27q-209 -1 -346 143t-137 361t136 359t344 143q208 0 326 -134t117 -333v-57h-809q5 -158 107 -272t266 -113q191 -1 328 161l74 -59q-154 -199 -406 -199zM591 887q-153 1 -251 -107t-104 -237h696q-6 154 -97 249t-244 95z" />
    <glyph glyph-name="uni0436" unicode="&#x436;" horiz-adv-x="1492" 
d="M803 485v-485h-113v485h-4l-496 -485h-163l526 500l-475 454h160l448 -450h4v450h113v-450h4l448 450h160l-475 -454l526 -500h-163l-496 485h-4z" />
    <glyph glyph-name="uni0437" unicode="&#x437;" horiz-adv-x="950" 
d="M113 817q99 162 363 162q134 0 226 -66q94 -66 95 -186q-1 -85 -57 -145t-146 -78v-4q104 -14 168 -78t63 -158q0 -135 -101 -213t-263 -78q-256 0 -381 177l82 65q104 -145 297 -145q109 0 183 49t73 144q0 95 -80 143t-203 47h-80v90h72q114 0 188 48t74 132t-64 124
q-65 40 -156 40t-160 -35t-107 -96z" />
    <glyph glyph-name="uni0438" unicode="&#x438;" horiz-adv-x="1220" 
d="M1026 0h-108v805h-5l-600 -805h-120v954h112v-798l600 798h121v-954z" />
    <glyph glyph-name="uni0439" unicode="&#x439;" horiz-adv-x="1220" 
d="M616 1268q182 0 215 176h74q-10 -125 -89 -196q-79 -70 -200 -70q-120 0 -198 70t-88 196h76q14 -84 72 -130t138 -46zM1026 0h-108v805h-5l-600 -805h-120v954h112v-798l600 798h121v-954z" />
    <glyph glyph-name="uni043A" unicode="&#x43a;" horiz-adv-x="1015" 
d="M307 485v-485h-110v954h110v-450h6l465 450h160l-498 -454l549 -500h-164l-512 485h-6z" />
    <glyph glyph-name="uni043B" unicode="&#x43b;" horiz-adv-x="1189" 
d="M997 0h-110v860h-443v-272q0 -598 -325 -598q-53 0 -94 12l14 96q27 -10 63 -10q121 0 178 130q56 130 56 405v331h661v-954z" />
    <glyph glyph-name="uni043C" unicode="&#x43c;" horiz-adv-x="1474" 
d="M1280 0h-111v825h-4l-399 -825h-59l-402 825v-825h-112v954h165l379 -790l381 790h162v-954z" />
    <glyph glyph-name="uni043D" unicode="&#x43d;" horiz-adv-x="1196" 
d="M1001 0h-110v449h-586v-449h-112v954h112v-411h586v411h110v-954z" />
    <glyph glyph-name="uni043E" unicode="&#x43e;" horiz-adv-x="1247" 
d="M624 74q175 0 281 114t107 289q0 174 -106 290t-282 116t-282 -116t-106 -290t106 -289q107 -114 282 -114zM121 478q0 218 140 360q139 142 361 141q222 1 363 -141t141 -360t-141 -361t-361 -143t-362 142q-142 144 -141 362z" />
    <glyph glyph-name="uni043F" unicode="&#x43f;" horiz-adv-x="1181" 
d="M987 0h-110v860h-572v-860h-112v954h794v-954z" />
    <glyph glyph-name="uni0440" unicode="&#x440;" horiz-adv-x="1294" 
d="M682 70q170 0 273 116t104 291q1 174 -103 292t-274 118t-280 -118t-110 -292t110 -291q110 -116 280 -116zM303 -492h-110v1446h110v-190h6q59 106 161 160t218 55q217 0 353 -142q137 -141 137 -359t-134 -361t-352 -144q-119 1 -223 55t-160 156h-6v-676z" />
    <glyph glyph-name="uni0441" unicode="&#x441;" horiz-adv-x="1011" 
d="M610 -27q-220 -1 -354 141q-135 142 -135 362t138 362t357 141q219 0 338 -150l-73 -67q-43 55 -115 88t-150 33q-170 0 -275 -116t-105 -290t104 -289t272 -115t279 115l70 -63q-131 -152 -351 -152z" />
    <glyph glyph-name="uni0442" unicode="&#x442;" horiz-adv-x="903" 
d="M506 0h-111v860h-352v94h815v-94h-352v-860z" />
    <glyph glyph-name="uni0443" unicode="&#x443;" horiz-adv-x="962" 
d="M178 -395q60 0 102 44q41 44 74 130l82 215l-399 960h125l332 -841l4 4l307 837h121l-475 -1220q-45 -113 -109 -170t-170 -58q-51 0 -113 15l15 100q44 -16 104 -16z" />
    <glyph glyph-name="uni0444" unicode="&#x444;" horiz-adv-x="1435" 
d="M774 70q209 0 323 105q113 105 113 299t-113 300q-114 107 -323 109v-813zM662 70v813q-207 -3 -322 -109t-115 -300t114 -299t323 -105zM774 -492h-112v465q-258 5 -406 137t-147 364q0 232 147 366t406 137v582h112v-582q258 -2 406 -136q148 -135 147 -367
q0 -232 -147 -364t-406 -137v-465z" />
    <glyph glyph-name="uni0445" unicode="&#x445;" horiz-adv-x="970" 
d="M932 0h-146l-303 420l-309 -420h-133l375 496l-346 458h143l272 -381l273 381h135l-342 -454z" />
    <glyph glyph-name="uni0446" unicode="&#x446;" horiz-adv-x="1216" 
d="M1143 -313h-105v313h-845v954h112v-858h572v858h110v-858h156v-409z" />
    <glyph glyph-name="uni0447" unicode="&#x447;" horiz-adv-x="1075" 
d="M881 0h-111v403q-145 -39 -293 -38q-319 0 -319 297v292h112v-280q0 -125 56 -170t173 -45q116 0 271 39v456h111v-954z" />
    <glyph glyph-name="uni0448" unicode="&#x448;" horiz-adv-x="1726" 
d="M1534 0h-1341v954h112v-858h504v858h111v-858h503v858h111v-954z" />
    <glyph glyph-name="uni0449" unicode="&#x449;" horiz-adv-x="1763" 
d="M1690 -313h-105v313h-1392v954h112v-858h504v858h111v-858h503v858h111v-858h156v-409z" />
    <glyph glyph-name="uni044A" unicode="&#x44a;" horiz-adv-x="1159" 
d="M449 96h268q236 0 235 189q0 201 -235 200h-268v-389zM705 0h-369v860h-293v94h406v-374h256q176 0 269 -78t93 -216t-92 -212t-270 -74z" />
    <glyph glyph-name="uni044B" unicode="&#x44b;" horiz-adv-x="1417" 
d="M1223 0h-111v954h111v-954zM305 96h268q236 0 236 189q0 201 -236 200h-268v-389zM561 0h-368v954h112v-374h256q176 0 269 -78q94 -78 94 -216t-92 -212t-271 -74z" />
    <glyph glyph-name="uni044C" unicode="&#x44c;" horiz-adv-x="1015" 
d="M305 96h268q236 0 236 189q0 201 -236 200h-268v-389zM561 0h-368v954h112v-374h256q176 0 269 -78q94 -78 94 -216t-92 -212t-271 -74z" />
    <glyph glyph-name="uni044D" unicode="&#x44d;" horiz-adv-x="1015" 
d="M311 449v94h467q-20 151 -122 245t-261 94q-160 0 -270 -118l-70 70q123 145 345 145t360 -139q138 -138 137 -362q0 -224 -139 -364q-138 -140 -362 -140t-353 149l78 65q104 -118 274 -118t275 107q104 108 112 272h-471z" />
    <glyph glyph-name="uni044E" unicode="&#x44e;" horiz-adv-x="1624" 
d="M1019 66q167 0 268 118t102 291q1 174 -101 292t-269 118t-267 -117t-100 -293q0 -177 100 -293t267 -116zM305 0h-112v954h112v-411h232q23 190 154 313q132 123 338 123t341 -143q135 -142 135 -360t-136 -361t-346 -143t-344 134q-134 135 -144 340l-230 3v-449z" />
    <glyph glyph-name="uni044F" unicode="&#x44f;" horiz-adv-x="1093" 
d="M788 479v381h-276q-120 0 -186 -49t-66 -139t65 -142t181 -51h282zM901 0h-113v385h-278l-246 -385h-135l260 393q-242 51 -242 277q1 135 97 210t262 74h395v-954z" />
    <glyph glyph-name="uni0450" unicode="&#x450;" horiz-adv-x="1161" 
d="M682 1155h-96l-258 295h147zM602 -27q-209 -1 -346 143t-137 361t136 359t344 143q208 0 326 -134t117 -333v-57h-809q5 -158 107 -272t266 -113q191 -1 328 161l74 -59q-154 -199 -406 -199zM591 887q-153 1 -251 -107t-104 -237h696q-6 154 -97 249t-244 95z" />
    <glyph glyph-name="uni0451" unicode="&#x451;" horiz-adv-x="1161" 
d="M786 1243q-38 0 -62 27q-24 26 -24 62t25 63t61 27t63 -28q25 -26 25 -62t-26 -62t-62 -27zM418 1243q-37 0 -63 27q-25 26 -25 62t25 63q26 27 63 27q38 0 62 -28q24 -26 24 -62t-24 -62t-62 -27zM602 -27q-209 -1 -346 143t-137 361t136 359t344 143q208 0 326 -134
t117 -333v-57h-809q5 -158 107 -272t266 -113q191 -1 328 161l74 -59q-154 -199 -406 -199zM591 887q-153 1 -251 -107t-104 -237h696q-6 154 -97 249t-244 95z" />
    <glyph glyph-name="uni0452" unicode="&#x452;" horiz-adv-x="1185" 
d="M707 -395q186 0 186 248v688q0 346 -272 346q-131 1 -223 -105t-93 -297v-485h-110v1174h-177v83h177v291h110v-291h332v-83h-332v-406h4q39 96 133 154t203 57q180 0 269 -110t90 -287v-740q0 -164 -79 -250t-216 -86q-70 1 -115 15l18 96q57 -12 95 -12z" />
    <glyph glyph-name="uni0453" unicode="&#x453;" horiz-adv-x="858" 
d="M489 1155h-96l207 295h148zM305 0h-112v954h620v-94h-508v-860z" />
    <glyph glyph-name="uni0454" unicode="&#x454;" horiz-adv-x="1015" 
d="M622 -27q-224 1 -364 141t-139 363q0 223 137 363t362 139q225 0 349 -145l-76 -70q-113 125 -271 125t-260 -96t-122 -250h497v-94h-502q7 -164 113 -274t273 -110t276 123l80 -65q-129 -150 -353 -150z" />
    <glyph glyph-name="uni0455" unicode="&#x455;" horiz-adv-x="890" 
d="M451 887q-86 0 -151 -42q-64 -42 -64 -122t55 -118q55 -37 199 -69t225 -96q80 -64 80 -191q1 -128 -101 -201t-245 -73q-242 0 -363 179l88 63q43 -67 116 -107t165 -40q93 0 161 46t68 129t-57 124t-139 60t-162 43q-82 24 -140 83q-57 59 -57 158q0 131 95 199t216 67
q243 0 336 -162l-86 -61q-78 131 -239 131z" />
    <glyph glyph-name="uni0456" unicode="&#x456;" horiz-adv-x="497" 
d="M332 1333q0 -35 -26 -59t-58 -25q-32 0 -58 25q-24 26 -24 60t24 59q25 25 58 25q32 0 58 -26q26 -24 26 -59zM305 0h-112v954h112v-954z" />
    <glyph glyph-name="uni0457" unicode="&#x457;" horiz-adv-x="497" 
d="M432 1243q-38 0 -62 27q-24 26 -24 62t25 63t61 27t63 -28q25 -26 25 -62t-26 -62t-62 -27zM63 1243q-37 0 -63 27q-26 26 -25 62q0 36 26 63q27 27 63 27t61 -28q25 -26 25 -62t-25 -62t-62 -27zM305 0h-112v954h112v-954z" />
    <glyph glyph-name="uni0458" unicode="&#x458;" horiz-adv-x="499" 
d="M334 1333q0 -35 -26 -59t-58 -25q-32 0 -58 25q-24 26 -24 60t25 59t57 25t58 -26q26 -24 26 -59zM45 -397q90 0 120 56t30 163v1132h110v-1147q0 -139 -57 -219t-201 -80q-61 1 -96 13l16 92q41 -10 78 -10z" />
    <glyph glyph-name="uni0459" unicode="&#x459;" horiz-adv-x="1708" 
d="M997 96h269q236 0 235 189q0 201 -235 200h-269v-389zM1255 0h-368v860h-443v-272q0 -598 -325 -598q-53 0 -94 12l14 96q27 -10 63 -10q121 0 178 130q56 130 56 405v331h661v-374h256q175 0 269 -78t94 -216t-92 -212t-269 -74z" />
    <glyph glyph-name="uni045A" unicode="&#x45a;" horiz-adv-x="1712" 
d="M1001 96h269q236 0 235 178q0 190 -235 191h-269v-369zM1260 0h-369v465h-586v-465h-112v954h112v-395h586v395h110v-395h256q179 0 271 -73t92 -212q0 -274 -360 -274z" />
    <glyph glyph-name="uni045B" unicode="&#x45b;" horiz-adv-x="1185" 
d="M1004 0h-111v541q0 346 -272 346q-131 1 -223 -105t-93 -297v-485h-110v1174h-177v83h177v291h110v-291h332v-83h-332v-406h4q39 96 133 154t203 57q180 0 269 -110t90 -287v-582z" />
    <glyph glyph-name="uni045C" unicode="&#x45c;" horiz-adv-x="1015" 
d="M561 1155h-96l207 295h147zM307 485v-485h-110v954h110v-450h6l465 450h160l-498 -454l549 -500h-164l-512 485h-6z" />
    <glyph glyph-name="uni045D" unicode="&#x45d;" horiz-adv-x="1220" 
d="M702 1155h-96l-258 295h148zM1026 0h-108v805h-5l-600 -805h-120v954h112v-798l600 798h121v-954z" />
    <glyph glyph-name="uni045E" unicode="&#x45e;" horiz-adv-x="962" 
d="M496 1268q182 0 215 176h73q-10 -125 -89 -196q-79 -70 -199 -70t-199 70q-78 70 -88 196h76q14 -84 72 -130t139 -46zM178 -395q60 0 102 44q41 44 74 130l82 215l-399 960h125l332 -841l4 4l307 837h121l-475 -1220q-45 -113 -109 -170t-170 -58q-51 0 -113 15l15 100
q44 -16 104 -16z" />
    <glyph glyph-name="uni045F" unicode="&#x45f;" horiz-adv-x="1181" 
d="M987 0h-344v-313h-104v313h-346v954h112v-858h572v858h110v-954z" />
    <glyph glyph-name="uni0490" unicode="&#x490;" horiz-adv-x="1030" 
d="M317 0h-116v1450h690v299h110v-403h-684v-1346z" />
    <glyph glyph-name="uni0491" unicode="&#x491;" horiz-adv-x="858" 
d="M305 0h-112v954h518v254h102v-348h-508v-860z" />
    <glyph glyph-name="Wgrave" unicode="&#x1e80;" horiz-adv-x="1980" 
d="M1049 1565h-97l-258 295h148zM1513 0h-141l-381 1294h-4l-379 -1294h-141l-430 1450h123l377 -1296h4l377 1296h145l379 -1296h6l373 1296h123z" />
    <glyph glyph-name="wgrave" unicode="&#x1e81;" horiz-adv-x="1499" 
d="M791 1155h-97l-258 295h148zM1145 0h-125l-270 811h-5l-268 -811h-125l-295 954h119l240 -815h4l272 815h113l276 -815h4l238 815h117z" />
    <glyph glyph-name="Wacute" unicode="&#x1e82;" horiz-adv-x="1980" 
d="M1030 1565h-96l207 295h147zM1513 0h-141l-381 1294h-4l-379 -1294h-141l-430 1450h123l377 -1296h4l377 1296h145l379 -1296h6l373 1296h123z" />
    <glyph glyph-name="wacute" unicode="&#x1e83;" horiz-adv-x="1499" 
d="M805 1155h-96l206 295h148zM1145 0h-125l-270 811h-5l-268 -811h-125l-295 954h119l240 -815h4l272 815h113l276 -815h4l238 815h117z" />
    <glyph glyph-name="Wdieresis" unicode="&#x1e84;" horiz-adv-x="1980" 
d="M1174 1653q-37 1 -62 27t-25 62t25 62t62 27q36 0 62 -27q26 -26 26 -62t-26 -62t-62 -27zM805 1653q-37 1 -63 27t-26 62t26 62t63 27q37 0 61 -27q24 -26 25 -62q-1 -36 -25 -62t-61 -27zM1513 0h-141l-381 1294h-4l-379 -1294h-141l-430 1450h123l377 -1296h4
l377 1296h145l379 -1296h6l373 1296h123z" />
    <glyph glyph-name="wdieresis" unicode="&#x1e85;" horiz-adv-x="1499" 
d="M932 1243q-37 0 -62 27q-24 26 -24 62t24 63q25 27 62 27q36 0 62 -28q26 -26 26 -62t-26 -62t-62 -27zM563 1243q-37 0 -63 27q-26 26 -25 62q0 36 26 63q27 27 63 27t61 -28q25 -26 25 -62t-26 -62q-24 -26 -61 -27zM1145 0h-125l-270 811h-5l-268 -811h-125l-295 954
h119l240 -815h4l272 815h113l276 -815h4l238 815h117z" />
    <glyph glyph-name="Ygrave" unicode="&#x1ef2;" horiz-adv-x="1193" 
d="M672 1565h-97l-258 295h148zM655 0h-116v627l-531 823h146l446 -723l449 723h135l-529 -823v-627z" />
    <glyph glyph-name="ygrave" unicode="&#x1ef3;" horiz-adv-x="962" 
d="M561 1155h-96l-258 295h147zM178 -395q60 0 102 44q41 44 74 130l82 215l-399 960h125l332 -841l4 4l307 837h121l-475 -1220q-45 -113 -109 -170t-170 -58q-51 0 -113 15l15 100q44 -16 104 -16z" />
    <glyph glyph-name="uni2010" unicode="&#x2010;" horiz-adv-x="643" 
d="M537 457h-431v94h431v-94z" />
    <glyph glyph-name="endash" unicode="&#x2013;" horiz-adv-x="819" 
d="M758 457h-697v94h697v-94z" />
    <glyph glyph-name="emdash" unicode="&#x2014;" horiz-adv-x="1228" 
d="M1167 457h-1106v94h1106v-94z" />
    <glyph glyph-name="uni2015" unicode="&#x2015;" horiz-adv-x="1310" 
d="M1249 457h-1188v94h1188v-94z" />
    <glyph glyph-name="quoteleft" unicode="&#x2018;" horiz-adv-x="452" 
d="M219 973h-117l156 477h92z" />
    <glyph glyph-name="quoteright" unicode="&#x2019;" horiz-adv-x="452" 
d="M195 973h-93l131 477h117z" />
    <glyph glyph-name="quotesinglbase" unicode="&#x201a;" horiz-adv-x="452" 
d="M195 -285h-93l131 478h117z" />
    <glyph glyph-name="quotedblleft" unicode="&#x201c;" horiz-adv-x="770" 
d="M537 973h-117l155 477h93zM219 973h-117l158 477h92z" />
    <glyph glyph-name="quotedblright" unicode="&#x201d;" horiz-adv-x="770" 
d="M195 973h-93l131 477h117zM510 973h-92l133 477h117z" />
    <glyph glyph-name="quotedblbase" unicode="&#x201e;" horiz-adv-x="770" 
d="M195 -285h-93l131 478h117zM510 -285h-92l133 478h117z" />
    <glyph glyph-name="dagger" unicode="&#x2020;" horiz-adv-x="1116" 
d="M612 -258h-108v1190h-412v98h412v420h108v-420h412v-98h-412v-1190z" />
    <glyph glyph-name="daggerdbl" unicode="&#x2021;" horiz-adv-x="1116" 
d="M612 -258h-108v401h-400v101h400v704h-400v101h400v401h108v-401h400v-101h-400v-704h400v-101h-400v-401z" />
    <glyph glyph-name="bullet" unicode="&#x2022;" horiz-adv-x="1024" 
d="M512 362q-152 0 -257 106t-105 257q0 152 105 257t257 105t257 -105t105 -257q0 -151 -105 -257t-257 -106z" />
    <glyph glyph-name="ellipsis" unicode="&#x2026;" horiz-adv-x="2048" 
d="M1708 -12q-39 0 -66 28q-26 28 -26 65t26 65t66 28q39 0 65 -28q25 -28 25 -66t-25 -65q-26 -27 -65 -27zM1024 -12q-39 0 -66 28q-26 28 -26 65t26 65t66 28q39 0 66 -28q26 -28 26 -66t-26 -65q-27 -27 -66 -27zM340 -12q-39 0 -65 28q-25 28 -25 65t26 65t64 28
q39 0 66 -28q26 -28 26 -66t-26 -65q-27 -27 -66 -27z" />
    <glyph glyph-name="perthousand" unicode="&#x2030;" horiz-adv-x="2048" 
d="M154 1162q0 -92 64 -156t154 -64q91 0 154 64q64 64 64 156q0 93 -65 158q-65 64 -155 64t-153 -64q-63 -65 -63 -158zM372 852q-128 0 -219 91t-91 219t90 220q92 92 220 92t218 -90q90 -92 90 -221t-90 -220t-218 -91zM287 -61l-84 45l917 1527l82 -45zM1682 70
q91 0 155 63q63 63 63 157t-64 158q-65 64 -155 64t-153 -65q-64 -65 -64 -157t64 -156t154 -64zM1991 291q-1 -129 -91 -220t-218 -91t-219 91t-91 219t91 220t219 92t218 -91t91 -220zM970 70q91 0 154 63q64 63 64 157t-64 158t-154 64q-92 0 -154 -65t-62 -157t62 -157
q63 -63 154 -63zM970 -20q-128 0 -218 91t-90 219t90 220t218 92t218 -91t90 -220t-90 -220t-218 -91z" />
    <glyph glyph-name="guilsinglleft" unicode="&#x2039;" horiz-adv-x="645" 
d="M489 123l-77 -53l-277 419l275 420l77 -53l-233 -367z" />
    <glyph glyph-name="guilsinglright" unicode="&#x203a;" horiz-adv-x="645" 
d="M236 70l-78 53l233 366l-235 367l77 55l277 -422z" />
    <glyph glyph-name="interrobang" unicode="&#x203d;" horiz-adv-x="980" 
d="M547 397h-113v715h107v-375h2q6 11 94 105t116 147t27 127q0 123 -80 193q-80 69 -198 69t-197 -72q-78 -72 -94 -186l-111 21q31 158 140 248q108 90 270 90q162 1 272 -95t111 -262q0 -110 -45 -184t-137 -156t-128 -137t-36 -139v-109zM500 160q70 0 80 -80
q0 -32 -22 -56t-57 -24q-34 0 -57 24q-22 24 -22 56t22 56t56 24z" />
    <glyph glyph-name="fraction" unicode="&#x2044;" horiz-adv-x="327" 
d="M-250 -61l-86 45l918 1527l84 -45z" />
    <glyph glyph-name="zero.superior" unicode="&#x2070;" horiz-adv-x="845" 
d="M637 1202v309q0 91 -58 155q-59 64 -155 64t-156 -62t-59 -163v-303q0 -92 60 -154q59 -62 149 -62t154 60t65 156zM729 1513v-315q0 -133 -92 -214t-214 -81t-215 81t-93 214v307q0 141 91 223t220 82t216 -87t87 -210z" />
    <glyph glyph-name="four.superior" unicode="&#x2074;" horiz-adv-x="778" 
d="M528 1174v495h-2l-350 -495h352zM614 924h-86v170h-456v63l450 633h92v-616h91v-80h-91v-170z" />
    <glyph glyph-name="five.superior" unicode="&#x2075;" horiz-adv-x="770" 
d="M641 1710h-360l-52 -254q63 47 179 47t202 -81t86 -212t-94 -219t-213 -88t-214 78t-112 219h89q12 -92 76 -154t156 -62q91 0 156 68q64 70 64 162t-61 154t-170 62t-185 -89l-65 17l82 432h436v-80z" />
    <glyph glyph-name="six.superior" unicode="&#x2076;" horiz-adv-x="800" 
d="M410 1436q-94 0 -156 -66t-64 -164q0 -98 60 -162t158 -63q98 0 160 67q62 66 62 162t-62 161q-64 65 -158 65zM725 1211q0 -128 -90 -218t-228 -90t-225 87q-86 87 -86 207t84 235l262 358h111l-236 -307q43 27 109 26q123 0 211 -85t88 -213z" />
    <glyph glyph-name="seven.superior" unicode="&#x2077;" horiz-adv-x="641" 
d="M53 1710v80h512v-66l-381 -800h-104l379 786h-406z" />
    <glyph glyph-name="eight.superior" unicode="&#x2078;" horiz-adv-x="745" 
d="M522 1593q0 59 -43 101t-106 41q-63 0 -105 -41q-42 -40 -43 -100q0 -60 42 -102q41 -42 105 -42t107 42t43 101zM668 1174q0 -117 -87 -194t-208 -77t-207 79t-86 175t46 162t122 94q-47 31 -79 81t-32 103q0 89 71 151t167 62t165 -62t68 -151q1 -112 -110 -184
q78 -29 124 -92t46 -147zM375 1376q-83 0 -143 -58t-60 -141t58 -139t142 -57q84 1 144 57q59 56 59 139t-58 141t-142 58z" />
    <glyph glyph-name="nine.superior" unicode="&#x2079;" horiz-adv-x="800" 
d="M391 1278q94 0 158 65q63 66 63 164q0 97 -59 161t-157 64t-162 -66q-64 -67 -64 -163t63 -161q64 -64 158 -64zM375 1204q-123 0 -210 85t-87 213t89 218t227 90t224 -86t86 -206t-83 -236l-261 -358h-110l233 307q-43 -27 -108 -27z" />
    <glyph glyph-name="zero.inferior" unicode="&#x2080;" horiz-adv-x="845" 
d="M637 -43v309q0 92 -58 154q-59 62 -155 63q-96 0 -156 -62t-59 -161v-303q0 -93 60 -155q59 -62 149 -62t154 60t65 157zM729 268v-315q0 -133 -92 -214t-214 -81t-215 81t-93 214v307q0 141 91 223t220 82t216 -87t87 -210z" />
    <glyph glyph-name="one.inferior" unicode="&#x2081;" horiz-adv-x="524" 
d="M326 -322h-95v785h-188v82h283v-867z" />
    <glyph glyph-name="two.inferior" unicode="&#x2082;" horiz-adv-x="737" 
d="M651 -322h-575v66l321 315q80 76 115 132t35 126t-48 118t-134 48q-85 0 -135 -58t-50 -163h-92q0 143 79 223t203 80q124 1 198 -67t75 -185q0 -77 -41 -147t-141 -162l-252 -246h442v-80z" />
    <glyph glyph-name="three.inferior" unicode="&#x2083;" horiz-adv-x="735" 
d="M342 125h-57v74h53q82 0 127 39t45 102t-41 105t-105 42q-64 -1 -104 -39q-39 -38 -43 -102h-86q2 98 71 158t165 61q97 0 165 -60t68 -151q0 -125 -117 -182q76 -28 124 -94t48 -146q0 -122 -82 -198t-207 -76q-126 0 -212 79t-88 216h88q2 -99 61 -157t148 -58t146 54
q56 54 56 136t-60 140q-61 57 -163 57z" />
    <glyph glyph-name="four.inferior" unicode="&#x2084;" horiz-adv-x="778" 
d="M528 -74v498h-2l-350 -498h352zM614 -322h-86v170h-456v62l450 635h92v-619h91v-78h-91v-170z" />
    <glyph glyph-name="five.inferior" unicode="&#x2085;" horiz-adv-x="770" 
d="M641 463h-360l-52 -252q63 47 179 47t202 -81t86 -213t-94 -219t-213 -87t-214 77t-112 220h89q12 -92 76 -155q65 -62 156 -62t156 68q64 68 64 161t-61 155t-170 62t-185 -88l-65 17l82 432h436v-82z" />
    <glyph glyph-name="six.inferior" unicode="&#x2086;" horiz-adv-x="800" 
d="M408 -264q98 0 160 66t62 163q0 96 -62 161q-64 64 -158 64t-157 -65q-63 -66 -63 -164q0 -97 60 -161t158 -64zM725 -34q0 -128 -90 -218t-228 -90t-225 86q-86 86 -86 205t84 237l262 359h111l-236 -307q43 27 109 26q123 0 211 -85t88 -213z" />
    <glyph glyph-name="seven.inferior" unicode="&#x2087;" horiz-adv-x="641" 
d="M53 463v82h512v-66l-381 -801h-104l379 785h-406z" />
    <glyph glyph-name="eight.inferior" unicode="&#x2088;" horiz-adv-x="745" 
d="M522 347q0 59 -43 101t-106 42t-106 -41q-42 -41 -42 -101t43 -103q44 -42 106 -42t105 42t43 102zM668 -72q0 -118 -87 -194t-208 -76t-207 79t-86 175t46 162t122 94q-47 31 -79 81t-32 103q0 88 71 150t167 63q96 0 165 -62t68 -151q1 -112 -110 -184q76 -29 123 -92
t47 -148zM575 -69q0 83 -58 141t-142 59q-83 0 -143 -58q-60 -57 -60 -141t58 -140t142 -56t144 56q59 56 59 139z" />
    <glyph glyph-name="nine.inferior" unicode="&#x2089;" horiz-adv-x="800" 
d="M391 33q94 0 158 65q63 66 63 164t-59 162t-157 63q-98 0 -163 -66q-63 -67 -63 -164t63 -161q64 -63 158 -63zM375 -41q-123 0 -210 85t-87 213t89 218t227 90t224 -87t86 -209t-83 -232l-261 -359h-110l233 308q-43 -27 -108 -27z" />
    <glyph glyph-name="uni20A0" unicode="&#x20a0;" horiz-adv-x="1159" 
d="M1108 0h-561v371h-15q-202 -1 -324 151t-122 399t125 403t321 155q196 0 310 -138l-64 -75q-88 118 -242 118t-243 -131q-90 -131 -90 -331t88 -329q88 -130 244 -130h12v598h555v-94h-443v-371h410v-94h-410v-408h449v-94z" />
    <glyph glyph-name="colonmonetary" unicode="&#x20a1;" horiz-adv-x="1159" 
d="M397 205l221 1169q-178 -39 -276 -217t-98 -432q-1 -338 153 -520zM606 72l244 1300q-109 28 -156 14l-231 -1245q63 -46 143 -69zM719 1489q70 0 147 -19l31 156l74 -14l-31 -160q117 -47 172 -119l-59 -84q-45 63 -131 99l-240 -1287q33 0 51 2q227 4 318 140l63 -76
q-119 -160 -385 -164q-25 -2 -65 2l-35 -190l-74 14l35 184q-84 18 -146 58l-49 -256l-73 12l53 291q-119 96 -184 264t-64 383q0 311 137 518t373 240l27 143l73 -14l-24 -123h6z" />
    <glyph glyph-name="uni20A2" unicode="&#x20a2;" horiz-adv-x="1159" 
d="M689 -39q-271 0 -428 211t-157 551t161 553t426 213t394 -156l-59 -84q-43 57 -133 99t-199 41q-223 1 -348 -185t-125 -462t98 -456q98 -179 279 -214v608q0 150 -8 223h102q8 -98 8 -209h5q37 117 119 177q83 60 188 61q37 0 55 -4l-4 -101q-23 6 -55 7
q-144 0 -224 -115t-79 -295v-361q225 5 319 140l63 -78q-127 -164 -398 -164z" />
    <glyph glyph-name="franc" unicode="&#x20a3;" horiz-adv-x="1159" 
d="M328 700v-260h389v-90h-389v-350h-117v350h-186v90h186v1010h860v-104h-743v-543h690v-103h-690z" />
    <glyph glyph-name="lira" unicode="&#x20a4;" horiz-adv-x="1159" 
d="M475 446v-348h535v-98h-865v98h213v348h-196v99h196v196h-196v99h196v176q0 203 102 337t314 134q178 0 291 -113l-72 -82q-88 94 -212 94q-123 0 -193 -63t-92 -142t-21 -175v-166h346v-99h-346v-196h346v-99h-346z" />
    <glyph glyph-name="uni20A5" unicode="&#x20a5;" horiz-adv-x="1812" 
d="M1630 0h-110v541q0 156 -62 251t-201 95q-138 0 -219 -113l-63 -153q-12 -59 -12 -123v-498h-113v317l-248 -598l-86 29l334 807v6q0 326 -244 326q-123 -1 -212 -107t-89 -295v-485h-112v735q0 135 -9 219h107q8 -106 8 -190h4q41 98 130 156t192 59q229 0 305 -227
l211 505l86 -28l-119 -287q74 37 168 37q176 0 265 -110t89 -287v-582z" />
    <glyph glyph-name="uni20A6" unicode="&#x20a6;" horiz-adv-x="1159" 
d="M285 1255v-327h145l-141 327h-4zM874 199v348h-155l153 -348h2zM285 852v-229h280l-104 229h-176zM874 623v229h-288l102 -229h186zM991 0h-149l-246 547h-311v-547h-117v547h-133v76h133v229h-133v76h133v522h151l236 -522h319v522h117v-522h133v-76h-133v-229h133v-76
h-133v-547z" />
    <glyph glyph-name="peseta" unicode="&#x20a7;" horiz-adv-x="2054" 
d="M772 1069q0 141 -92 211t-252 70h-164v-566h168q158 0 249 72t91 213zM985 227v633h-156q-55 -84 -159 -130t-234 -46h-172v-684h-117v1450h285q205 0 331 -95t126 -286q0 -59 -17 -115h113v271h113v-271h229v-94h-229v-604q0 -98 35 -137t98 -39t117 26l6 -96
q-191 -68 -303 32q-66 58 -66 185zM1954 252q0 -125 -85 -201t-224 -76q-209 0 -326 181l84 67q94 -152 239 -151q90 0 148 46q57 46 57 116t-29 109q-30 40 -67 57t-153 61t-160 82q-80 65 -80 185t83 190t208 69q190 0 284 -166l-82 -65q-74 135 -206 135q-78 0 -129 -44
q-52 -44 -52 -117q0 -72 46 -108t178 -84t200 -104q66 -56 66 -182z" />
    <glyph glyph-name="uni20A8" unicode="&#x20a8;" horiz-adv-x="1656" 
d="M295 786h168q358 0 358 285t-370 285h-156v-570zM295 692v-692h-113v1450h291q461 0 461 -377q0 -172 -106 -264t-265 -104l297 -543l76 55q43 -67 116 -107q72 -40 164 -40t161 46t69 140q0 63 -51 109q-43 38 -160 67q-117 30 -156 44t-90 45q-100 59 -99 191t96 200
t216 67q243 0 336 -162l-86 -61q-78 131 -240 131q-86 0 -150 -42t-65 -122t55 -118q56 -37 200 -69t225 -96q80 -64 79 -176q0 -143 -101 -216t-245 -73q-193 0 -311 117l51 -92h-133l-368 692h-154z" />
    <glyph glyph-name="uni20A9" unicode="&#x20a9;" horiz-adv-x="1789" 
d="M993 928l-100 379h-4l-101 -379h205zM1309 141l104 406h-217l109 -406h4zM487 141l105 406h-217l106 -406h6zM1075 623l-61 229h-244l-61 -229h366zM610 623l60 229h-373l59 -229h254zM1434 623l59 229h-377l60 -229h258zM23 547v76h223l-62 229h-161v76h141l-139 522
h116l135 -522h412l135 522h135l138 -522h415l138 522h116l-141 -522h141v-76h-161l-62 -229h223v-76h-243l-146 -547h-135l-145 547h-406l-143 -547h-135l-146 547h-243z" />
    <glyph glyph-name="afii57636" unicode="&#x20aa;" horiz-adv-x="1159" 
d="M1028 954v-647q0 -151 -73 -229t-238 -78h-318v731h113v-633h203q115 0 157 46t43 163v647h113zM768 213h-113v432q0 111 -49 159t-160 48h-194v-852h-113v950h307q174 0 248 -72t74 -239v-426z" />
    <glyph glyph-name="dong" unicode="&#x20ab;" horiz-adv-x="1298" 
d="M1108 -250h-942v78h942v-78zM618 70q170 0 280 116t110 291q0 174 -110 292t-280 118t-274 -118t-104 -292t103 -291q104 -116 275 -116zM1108 0h-113v188h-4q-59 -102 -163 -158t-218 -57q-215 -1 -351 143t-136 360t136 360t351 143q115 0 218 -57t163 -162h4v407h-354
v82h354v299h113v-299h123v-82h-123v-1167z" />
    <glyph glyph-name="Euro" unicode="&#x20ac;" horiz-adv-x="1134" 
d="M747 -39q-226 0 -382 157t-193 384h-147l32 92h105q-6 86 -6 138t8 122h-137l32 92h117q55 258 217 400t385 143q176 0 301 -68l-41 -98q-106 61 -276 61t-294 -116t-169 -322h637l-31 -92h-620q-19 -132 -2 -260h544l-30 -92h-504q33 -199 165 -318q132 -118 307 -118
t292 84l49 -93q-133 -96 -359 -96z" />
    <glyph glyph-name="uni20AD" unicode="&#x20ad;" horiz-adv-x="1159" 
d="M317 707v-707h-114v707h-185v92h185v651h114v-651h27l600 651h146l-617 -651h520v-92h-512l645 -707h-149l-633 707h-27z" />
    <glyph glyph-name="uni20AE" unicode="&#x20ae;" horiz-adv-x="1159" 
d="M635 0h-111v498l-319 -142v88l319 142v239l-319 -143v90l319 141v437h-481v100h1073v-100h-481v-404l321 144v-91l-321 -141v-240l321 144v-88l-321 -144v-530z" />
    <glyph glyph-name="uni20AF" unicode="&#x20af;" horiz-adv-x="2150" 
d="M104 146q0 -46 28 -68t73 -23q112 0 149 135q-62 54 -126 54t-94 -26t-30 -72zM1272 807q0 223 -119 369t-340 147q-194 -315 -293 -827q-45 -232 -55 -279q166 -152 332 -151q219 0 347 214t128 527zM1980 294q0 104 -55 166t-154 62t-156 -68q-56 -68 -56 -172t54 -163
t149 -59q94 0 156 64q62 66 62 170zM802 -25q-187 0 -366 156q-76 -158 -229 -158q-94 0 -145 45q-50 45 -50 128q0 84 56 132t145 48q90 0 164 -47q14 94 29 155q61 305 128 510t164 375q-219 -31 -419 -150l-37 72q252 139 508 164q90 135 211 217l65 -59
q-92 -53 -162 -158q222 -10 370 -168t148 -430q0 -207 -61 -391t-197 -312t-322 -129zM2085 299q0 -139 -90 -231t-234 -93q-83 0 -149 38t-96 114l-70 -326q-16 -74 -57 -182h-107q43 115 61 205l101 467q66 315 326 315q140 0 227 -84q88 -84 88 -223z" />
    <glyph glyph-name="uni20B0" unicode="&#x20b0;" horiz-adv-x="1159" 
d="M963 1141q-1 111 -63 179t-172 69q-110 0 -171 -72t-61 -178q0 -215 110 -445l86 -170l115 195q156 262 156 422zM618 -289q200 1 201 195q0 94 -74 256l-73 151l-197 -340l-217 351l-168 -324h-115l265 514l225 -354l158 262l-107 217q-129 260 -129 496q0 147 88 247
t254 99t254 -97t88 -241q0 -100 -40 -208t-144 -282l-144 -235l91 -189q98 -209 98 -344t-80 -201t-200 -65q-120 0 -236 39v90q98 -37 202 -37z" />
    <glyph glyph-name="uni20B1" unicode="&#x20b1;" horiz-adv-x="1159" 
d="M522 1362h-205v-170h529q-76 170 -324 170zM317 877v-175h213q232 1 314 175h-527zM317 1116v-166h553q8 53 8 91t-6 75h-555zM317 0h-112v877h-156v73h156v166h-156v76h156v258h315q158 0 280 -64t169 -194h141v-76h-123q6 -37 6 -73t-8 -93h125v-73h-145
q-47 -125 -162 -193t-268 -68h-218v-616z" />
    <glyph glyph-name="uni20B2" unicode="&#x20b2;" horiz-adv-x="1464" 
d="M735 66v1316q-227 -27 -365 -211t-138 -444t136 -446t367 -215zM1186 651h-279v94h389v-653q-195 -125 -475 -131v-135h-86v139q-279 27 -449 239t-171 523q0 311 173 522t447 238v139h86v-137q266 -8 441 -180l-74 -78q-135 147 -367 158v-1328q209 1 365 93v497z" />
    <glyph glyph-name="uni20B3" unicode="&#x20b3;" horiz-adv-x="1159" 
d="M774 737l-190 584l-195 -584h385zM866 449l-65 206h-439l-69 -206h573zM18 365v84h166l72 206h-238v82h265l239 713h129l234 -713h256v-82h-232l70 -206h162v-84h-135l122 -365h-116l-119 365h-627l-121 -365h-112l125 365h-140z" />
    <glyph glyph-name="uni20B4" unicode="&#x20b4;" horiz-adv-x="1159" 
d="M125 358q0 109 51 185h-127v73h184q68 60 280 136t251 104h-715v76h795q51 63 51 178t-94 194t-234 78q-233 0 -342 -139l-69 78q145 158 417 158q185 -1 309 -107t124 -278q0 -94 -37 -162h141v-76h-186q-85 -91 -370 -183q-112 -36 -151 -57h707v-73h-805
q-68 -70 -67 -178q0 -143 97 -221t251 -78q234 0 381 170l67 -76q-76 -86 -198 -138t-254 -53q-205 0 -331 111t-126 278z" />
    <glyph glyph-name="uni20B5" unicode="&#x20b5;" horiz-adv-x="1159" 
d="M244 724q0 -270 106 -452q106 -184 301 -209v1321q-195 -30 -301 -210t-106 -450zM737 -172h-86v135q-244 19 -385 229t-141 530t140 528t386 235v137h86v-133q213 0 363 -117l-53 -88q-125 104 -310 107v-1330q201 8 316 101l47 -90q-127 -100 -363 -111v-133z" />
    <glyph glyph-name="uni20B6" unicode="&#x20b6;" horiz-adv-x="1159" 
d="M727 860h-317v-860h-113v860h-250v94h250v273h113v-273h317v273h113v-273h262v-94h-262v-614q0 -170 155 -170q58 -1 107 22v-94q-68 -25 -135 -24q-113 0 -176 63t-64 186v631z" />
    <glyph glyph-name="uni20B7" unicode="&#x20b7;" horiz-adv-x="1427" 
d="M895 260q0 154 -104 154q-59 0 -89 -46t-28 -116v-131q145 0 221 14v125zM598 121v153q0 72 -21 106q-22 34 -73 34t-86 -43t-35 -129v-103q72 -18 215 -18zM305 340q0 74 -72 74q-39 0 -63 -29t-25 -80q0 -104 160 -151v186zM973 0h-78v51q-92 -14 -221 -14v-37h-76v37
q-117 0 -215 16v-53h-78v70q-240 55 -239 233q0 80 47 129t120 49q117 0 142 -92h2q20 41 59 67t86 25q100 0 135 -96q47 96 141 96q176 0 175 -192v-139q98 26 147 80t49 161t-90 175q-89 68 -279 123t-296 145t-106 260t125 280q126 110 311 109q274 0 430 -172l-82 -74
q-111 145 -344 145q-135 0 -230 -78q-94 -79 -94 -205t82 -194t216 -111q134 -42 206 -72q180 -75 235 -181q33 -61 33 -142q0 -272 -313 -336v-63z" />
    <glyph glyph-name="uni20B8" unicode="&#x20b8;" horiz-adv-x="1159" 
d="M1051 1352h-940v98h940v-98zM637 0h-113v1092h-413v100h940v-100h-414v-1092z" />
    <glyph glyph-name="uni20B9" unicode="&#x20b9;" horiz-adv-x="1159" 
d="M164 1032v92h512q-14 126 -110 180t-263 54h-137v92h852v-92h-375q137 -68 148 -234h227v-92h-227q-33 -328 -488 -327l488 -705h-140l-487 715v80h106q186 0 289 55q102 55 117 182h-512z" />
    <glyph glyph-name="uni20BA" unicode="&#x20ba;" horiz-adv-x="1159" 
d="M242 1450h116v-305l455 201v-95l-455 -200v-228l455 201v-94l-455 -201v-639q25 -4 62 -4q252 0 397 181t146 491h116q0 -367 -180 -570t-485 -202q-139 0 -172 14v680q-8 -4 -193 -84v94q8 4 193 84v227l-96 -42t-97 -39v94l193 82v354z" />
    <glyph glyph-name="uni2105" unicode="&#x2105;" horiz-adv-x="1699" 
d="M1264 66q110 0 176 74t65 184t-67 184t-174 74t-174 -74t-66 -184t66 -184t174 -74zM1614 324q0 -152 -98 -250t-252 -98t-252 98t-99 250q1 152 99 250t252 98t252 -98t98 -250zM432 -61l-84 45l916 1527l84 -45zM437 778q-157 0 -254 98t-97 250t97 250t256 98
t247 -114l-80 -62q-63 86 -171 86q-109 0 -175 -74t-66 -184t68 -184q66 -74 173 -74t181 84l76 -59q-98 -115 -255 -115z" />
    <glyph glyph-name="uni2113" unicode="&#x2113;" horiz-adv-x="1024" 
d="M449 1143v-477q250 295 249 548q0 82 -32 133q-33 50 -85 50q-52 -1 -92 -65t-40 -189zM340 225v264l-121 -133h-4l-43 60l168 172v538q0 164 69 257t168 93t156 -68q57 -69 58 -185q0 -289 -342 -656v-323q0 -102 47 -144t112 -43q96 0 180 78h5l41 -57
q-113 -106 -236 -106q-122 0 -190 62q-68 64 -68 191z" />
    <glyph glyph-name="uni2116" unicode="&#x2116;" horiz-adv-x="2121" 
d="M1751 936q96 0 153 65q56 66 56 161t-55 161t-153 66t-154 -66t-56 -161t56 -161q57 -65 153 -65zM1751 858q-133 0 -219 86t-86 219t86 218t219 85t219 -85t86 -218t-86 -219t-219 -86zM2036 637h-570v94h570v-94zM1231 0h-158l-756 1294v-1294h-116v1450h157l756 -1286
v1286h117v-1450z" />
    <glyph glyph-name="published" unicode="&#x2117;" horiz-adv-x="1638" 
d="M688 694h205q102 0 158 49q55 49 55 137t-57 137q-57 48 -158 48h-203v-371zM688 262h-108v899h315q147 -1 234 -73t87 -204t-86 -209q-88 -77 -233 -77h-209v-336zM1497 724q0 280 -198 478q-199 198 -479 199q-280 0 -480 -199q-200 -198 -199 -478q0 -280 200 -478
q201 -198 481 -197q280 -1 478 197t197 478zM1597 724q0 -320 -227 -544t-550 -225q-323 0 -551 224t-228 545t228 546t551 225t550 -225q227 -226 227 -546z" />
    <glyph glyph-name="trademark" unicode="&#x2122;" horiz-adv-x="2048" 
d="M1878 606h-100v735h-4l-304 -735h-63l-301 735h-4v-735h-101v844h158l283 -684l282 684h154v-844zM541 606h-101v754h-276v90h649v-90h-272v-754z" />
    <glyph glyph-name="Omega" unicode="&#x2126;" horiz-adv-x="1519" 
d="M1389 0h-488v358q182 33 281 168q98 135 98 343t-154 358q-154 149 -378 149t-377 -150q-154 -150 -154 -358q0 -209 98 -344t281 -166v-358h-487v96h399v193q-186 53 -293 209q-106 156 -106 356q0 266 188 444q189 178 453 178t451 -176q187 -178 188 -444
q1 -202 -105 -358t-295 -209v-193h400v-96z" />
    <glyph glyph-name="estimated" unicode="&#x212e;" horiz-adv-x="1239" 
d="M918 604v297q-130 123 -302 123t-294 -123v-297h596zM618 -35q-236 0 -382 162q-146 163 -146 405t146 403t382 161t382 -158t149 -408h-827v-370q121 -121 296 -121q251 0 396 246l71 -43q-94 -147 -200 -212t-267 -65z" />
    <glyph glyph-name="onethird" unicode="&#x2153;" horiz-adv-x="1533" 
d="M1130 446h-57v74h53q82 0 127 39t45 103t-41 105q-41 42 -105 42t-103 -39t-43 -102h-86q2 98 70 158q69 60 165 60t165 -60t69 -150q0 -123 -117 -182q76 -29 124 -95t48 -145q0 -121 -82 -198q-82 -76 -207 -76t-212 78t-89 216h88q2 -100 62 -157t148 -57q89 0 145 54
q57 54 57 136t-61 139t-163 57zM346 584h-94v786h-189v80h283v-866zM266 -61l-86 45l918 1527l84 -45z" />
    <glyph glyph-name="twothirds" unicode="&#x2154;" horiz-adv-x="1769" 
d="M1366 446h-57v74h53q82 0 127 39t45 103t-41 105q-41 42 -105 42t-104 -39q-39 -39 -43 -102h-86q2 98 71 158t165 60q97 0 165 -60t68 -150q0 -123 -117 -182q76 -29 124 -95t48 -145q0 -121 -82 -198q-82 -76 -207 -76q-126 0 -212 78t-88 216h88q2 -100 61 -157
t148 -57t145 54t57 136q0 82 -60 139q-61 57 -163 57zM707 584h-576v65l322 316q80 76 114 132q35 56 35 126q0 69 -48 117t-134 48t-135 -58t-49 -163h-93q0 143 79 223t203 80t199 -68t74 -181q0 -76 -41 -146t-141 -166l-246 -243h437v-82zM561 -61l-86 45l918 1527
l84 -45z" />
    <glyph glyph-name="oneeighth" unicode="&#x215b;" horiz-adv-x="1536" 
d="M1034 670q0 -58 42 -102t106 -44t106 42q43 42 43 103q0 60 -43 101t-106 41q-64 0 -106 -41t-42 -100zM1477 250q0 -117 -87 -194q-87 -76 -208 -76t-207 78t-86 176q0 96 46 162t122 93q-47 31 -79 81t-32 104q0 88 71 150t167 62t165 -62t68 -150q1 -113 -110 -185
q76 -29 123 -92t47 -147zM1384 253q0 83 -58 141t-142 58t-144 -58t-59 -141q0 -83 58 -139q59 -56 143 -56t143 56t59 139zM346 582h-94v788h-189v80h283v-868zM281 -61l-86 45l917 1527l84 -45z" />
    <glyph glyph-name="threeeighths" unicode="&#x215c;" horiz-adv-x="1785" 
d="M1206 670q0 -58 42 -102t106 -44t106 42q43 42 43 103q0 60 -43 101t-106 41q-64 0 -106 -41t-42 -100zM1649 250q0 -117 -87 -194q-87 -76 -208 -76t-207 78t-86 176q0 96 46 162t122 93q-47 31 -79 81t-32 104q0 88 71 150t167 62t165 -62t68 -150q1 -113 -110 -185
q76 -29 123 -92t47 -147zM1556 253q0 83 -58 141t-142 58t-144 -58t-59 -141q0 -83 58 -139q59 -56 143 -56t143 56t59 139zM375 1030h-58v74h54q84 0 128 39t44 102t-41 105q-42 42 -106 43q-64 0 -104 -39t-42 -103h-86q2 98 70 159q69 60 165 60t165 -60t69 -150
q0 -125 -117 -183q76 -31 124 -95t48 -144q0 -121 -82 -198t-207 -77t-212 79t-89 216h88q2 -98 62 -156t148 -59q89 0 146 54q56 55 56 137t-60 139q-61 57 -163 57zM500 -61l-86 45l917 1527l84 -45z" />
    <glyph glyph-name="fiveeighths" unicode="&#x215d;" horiz-adv-x="1830" 
d="M1559 669q0 60 -43 101q-42 41 -106 41t-106 -41t-42 -100q0 -58 43 -102t105 -44t106 42q43 43 43 103zM1704 250q0 -117 -87 -194q-87 -76 -208 -76t-207 78t-86 176q0 96 46 162t122 93q-47 31 -79 81t-31 104q0 88 70 150q71 62 167 62t165 -62t69 -150
q0 -113 -111 -185q76 -29 123 -92t47 -147zM1612 253q0 83 -58 141t-143 58q-84 0 -143 -58q-60 -58 -60 -141t58 -139t143 -56q83 0 143 56t60 139zM690 1370h-360l-51 -254q63 47 179 47t201 -81q86 -81 86 -212t-94 -219t-213 -88t-214 78t-111 219h88q12 -92 77 -154
q66 -62 156 -62t155 68q65 70 65 162t-62 154q-61 62 -170 62t-184 -89l-66 17l82 432h436v-80zM543 -61l-86 45l917 1527l84 -45z" />
    <glyph glyph-name="seveneighths" unicode="&#x215e;" horiz-adv-x="1503" 
d="M1311 669q0 60 -43 101q-42 41 -106 41t-106 -41t-42 -100q0 -58 42 -102t105 -44t107 42q43 43 43 103zM1456 250q0 -117 -87 -194q-87 -76 -208 -76t-207 78t-86 176q0 96 46 162t122 93q-47 31 -79 81t-31 104q0 88 70 150q71 62 167 62t165 -62t69 -150
q0 -113 -111 -185q76 -29 123 -92t47 -147zM1364 253q0 83 -58 141t-142 58t-144 -58q-59 -58 -59 -141t58 -139t142 -56q83 0 143 56t60 139zM127 1370v80h512v-66l-381 -800h-104l378 786h-405zM258 -61l-86 45l918 1527l84 -45z" />
    <glyph glyph-name="partialdiff" unicode="&#x2202;" horiz-adv-x="1003" 
d="M465 770q-137 0 -214 -101t-77 -241t78 -254q78 -113 213 -113q236 0 310 346q18 78 22 160q-139 203 -332 203zM911 784q0 -808 -448 -811q-176 0 -285 133q-108 132 -108 322t105 312t280 122q104 0 196 -51t156 -139l2 125q0 335 -162 501q-87 90 -207 90t-237 -92
l-60 72q127 111 281 111q302 0 423 -325q64 -173 64 -370z" />
    <glyph glyph-name="Delta" unicode="&#x2206;" horiz-adv-x="1363" 
d="M1167 100l-489 1250l-485 -1250h974zM1323 0h-1278l571 1458h125z" />
    <glyph glyph-name="product" unicode="&#x220f;" horiz-adv-x="1452" 
d="M1294 -438h-108v1947h-920v-1947h-108v2048h1136v-2048z" />
    <glyph glyph-name="summation" unicode="&#x2211;" horiz-adv-x="1230" 
d="M1165 -438h-1102v92l680 938l-651 924v94h1049v-101h-912l648 -917l-682 -930h970v-100z" />
    <glyph glyph-name="minus" unicode="&#x2212;" horiz-adv-x="1159" 
d="M1026 672v-99h-893v99h893z" />
    <glyph glyph-name="uni2215" unicode="&#x2215;" horiz-adv-x="327" 
d="M-250 -61l-86 45l918 1527l84 -45z" />
    <glyph glyph-name="uni2219" unicode="&#x2219;" horiz-adv-x="579" 
d="M383 606q0 -36 -27 -64q-28 -28 -66 -28t-65 28t-27 64t27 66q27 28 66 28t65 -28t27 -66z" />
    <glyph glyph-name="radical" unicode="&#x221a;" horiz-adv-x="999" 
d="M580 -438h-115l-338 712l-104 -49l-39 84l192 90l332 -704l397 1915h103z" />
    <glyph glyph-name="infinity" unicode="&#x221e;" horiz-adv-x="1505" 
d="M1146 313q79 -1 126 55t47 141t-48 144q-47 59 -115 59q-111 1 -227 -103q-40 -35 -108 -103q98 -94 172 -144t153 -49zM199 509q0 -85 48 -140t132 -56q127 0 317 195q-98 96 -174 149t-152 53t-124 -58q-47 -58 -47 -143zM377 219q-121 0 -197 82t-76 208t75 210
t196 84q71 0 147 -41t121 -81t117 -112q6 5 47 47t81 78t112 73q72 38 137 38q123 0 199 -82t77 -209q0 -127 -76 -211t-186 -84q-109 -1 -199 61t-192 166q-8 -6 -47 -43t-53 -48q-136 -111 -214 -128q-37 -8 -69 -8z" />
    <glyph glyph-name="integral" unicode="&#x222b;" horiz-adv-x="1107" 
d="M217 -353q0 66 63 66q29 0 55 -37t40 -36q80 -1 80 335l2 342q0 801 1 815t3 104q2 91 10 125t17 76t37 81t61 61t91 22q58 1 97 -22t39 -68q0 -59 -65 -59q-33 0 -59 38t-42 38q-84 0 -82 -361v-1056q0 -287 -36 -387t-104 -135q-40 -19 -90 -19t-84 22t-34 55z" />
    <glyph glyph-name="approxequal" unicode="&#x2248;" horiz-adv-x="1159" 
d="M815 729q117 0 148 166h73q-10 -111 -63 -189t-149 -77q-96 -1 -255 73t-223 74t-102 -48t-45 -120h-76q33 268 209 269q98 0 259 -74t224 -74zM332 516q98 0 259 -74t224 -73q117 0 148 166h73q-10 -111 -63 -189t-149 -78t-255 74t-223 74t-102 -48t-45 -120h-76
q33 268 209 268z" />
    <glyph glyph-name="notequal" unicode="&#x2260;" horiz-adv-x="1159" 
d="M1026 362h-524l-162 -313l-86 45l139 268h-260v97h311l144 280h-455v99h508l156 301l86 -45l-133 -256h276v-99h-328l-145 -280h473v-97z" />
    <glyph glyph-name="lessequal" unicode="&#x2264;" horiz-adv-x="1159" 
d="M1026 1120v-100l-770 -358l770 -359v-100l-893 418v81zM1026 8h-893v98h893v-98z" />
    <glyph glyph-name="greaterequal" unicode="&#x2265;" horiz-adv-x="1159" 
d="M133 1020v100l893 -418v-81l-893 -418v100l770 359zM1026 8h-893v98h893v-98z" />
    <glyph glyph-name="lozenge" unicode="&#x25ca;" horiz-adv-x="1214" 
d="M606 31l289 698l-289 698l-289 -698zM657 -72h-104l-342 801l342 801h104l347 -801z" />
    <glyph glyph-name="zero.tnum" horiz-adv-x="1159" 
d="M967 481v484q-1 186 -107 301q-106 114 -280 114t-281 -114q-106 -115 -106 -303v-478q0 -186 106 -301q105 -114 279 -114t282 114t107 297zM1079 981v-508q1 -244 -149 -374t-345 -130t-343 118q-74 57 -118 157t-44 227v508q0 125 44 224q78 176 276 247q87 31 180 31
q199 0 349 -128t150 -372z" />
    <glyph glyph-name="one.tnum" horiz-adv-x="1159" 
d="M694 0h-110v1350h-324v100h434v-1450z" />
    <glyph glyph-name="two.tnum" horiz-adv-x="1159" 
d="M1057 0h-940v80l383 342q256 227 347 364q91 138 91 272t-99 228t-245 94t-242 -106q-98 -106 -100 -291h-115q0 221 133 359t330 138t327 -123q130 -124 130 -291q1 -167 -99 -313t-358 -380l-309 -273h766v-100z" />
    <glyph glyph-name="three.tnum" horiz-adv-x="1159" 
d="M1034 422q0 -193 -130 -322t-343 -129t-347 132t-134 339h108q4 -164 104 -268t268 -104q167 0 263 99q97 99 97 254t-109 255t-285 100h-92v90h80q156 0 232 70t75 181q0 111 -68 189q-69 76 -185 76t-188 -66t-81 -181h-111q8 155 117 249t265 94t260 -96
q105 -96 106 -247q0 -106 -57 -191q-58 -84 -156 -115v-4q143 -43 227 -155t84 -250z" />
    <glyph glyph-name="four.tnum" horiz-adv-x="1159" 
d="M813 387v924h-4l-645 -924h649zM918 0h-107v291h-776v80l758 1081h125v-1065h155v-96h-155v-291z" />
    <glyph glyph-name="five.tnum" horiz-adv-x="1159" 
d="M999 1350h-618l-96 -484q119 100 321 100t343 -138t141 -356t-151 -360t-359 -142t-353 127q-145 128 -170 345h113q24 -158 136 -266t272 -106q160 0 280 112q119 112 119 287q0 176 -115 291q-116 114 -300 114t-310 -155l-94 22l139 709h702v-100z" />
    <glyph glyph-name="six.tnum" horiz-adv-x="1159" 
d="M979 471q0 172 -117 286q-116 113 -274 113t-284 -110t-126 -287q0 -178 110 -292q110 -113 284 -113t291 116q116 116 116 287zM68 459q0 100 32 186q33 86 123 213l424 592h129l-393 -543l4 -2q90 57 213 58q205 1 347 -139q143 -140 143 -349t-146 -357t-371 -148
t-365 144t-140 345z" />
    <glyph glyph-name="seven.tnum" horiz-adv-x="1159" 
d="M174 1350v100h834v-96l-658 -1354h-125l660 1350h-711z" />
    <glyph glyph-name="eight.tnum" horiz-adv-x="1159" 
d="M305 1122q0 -106 80 -184t192 -78q113 0 195 74t82 190q0 115 -80 190t-196 75t-195 -80q-78 -80 -78 -187zM942 418q0 146 -105 250t-257 104t-257 -103t-105 -251t104 -252q106 -102 258 -102t257 103q105 105 105 251zM1055 412q-1 -184 -139 -314t-336 -129
q-198 0 -337 128q-138 128 -139 315q0 139 84 255t226 158q-96 41 -155 127q-58 86 -58 187q0 141 109 241q110 100 270 100t270 -98q110 -100 108 -243q0 -100 -59 -187q-60 -86 -156 -127q143 -47 228 -158q84 -112 84 -255z" />
    <glyph glyph-name="nine.tnum" horiz-adv-x="1159" 
d="M182 975q0 -175 116 -285t281 -110q164 0 282 114t118 288q0 175 -110 288q-109 112 -283 112t-289 -116t-115 -291zM549 485q-205 -1 -342 141t-137 351t148 356t370 147t364 -144t142 -336t-136 -377l-444 -623h-129l395 551l-4 4q-100 -70 -227 -70z" />
    <glyph glyph-name="a.sc" horiz-adv-x="1081" 
d="M772 379l-231 571l-238 -571h469zM1057 0h-127l-115 281h-553l-119 -281h-120l466 1081h107z" />
    <glyph glyph-name="b.sc" horiz-adv-x="1040" 
d="M305 102h215q125 0 206 48t81 155q0 207 -270 207h-232v-410zM305 612h219q100 0 167 46t67 143q0 178 -256 178h-197v-367zM532 0h-339v1081h344q139 -1 237 -65t98 -205q0 -182 -180 -242v-4q100 -16 166 -85t66 -181q0 -147 -111 -223t-281 -76z" />
    <glyph glyph-name="c.sc" horiz-adv-x="1142" 
d="M682 1106q113 0 214 -42t163 -118l-86 -69q-45 57 -124 92t-167 35q-197 0 -320 -134q-122 -134 -122 -330t122 -329t320 -133t313 145l84 -61q-147 -188 -396 -188t-408 159q-159 160 -158 408q0 249 161 407t404 158z" />
    <glyph glyph-name="d.sc" horiz-adv-x="1243" 
d="M305 102h213q219 0 352 117t134 322q0 205 -134 321t-352 117h-213v-877zM193 0v1081h350q332 0 494 -234q87 -126 87 -304t-87 -304q-165 -239 -494 -239h-350z" />
    <glyph glyph-name="e.sc" horiz-adv-x="1007" 
d="M885 0h-692v1081h669v-102h-557v-369h524v-100h-524v-408h580v-102z" />
    <glyph glyph-name="f.sc" horiz-adv-x="948" 
d="M811 502h-506v-502h-112v1081h653v-102h-541v-377h506v-100z" />
    <glyph glyph-name="g.sc" horiz-adv-x="1259" 
d="M975 475h-252v100h367v-503q-176 -98 -415 -98t-399 160q-160 161 -159 409q0 247 161 405q162 158 406 158t387 -137l-78 -82q-111 117 -309 117t-322 -134q-122 -134 -122 -330t124 -329t326 -133q170 -1 285 65v332z" />
    <glyph glyph-name="h.sc" horiz-adv-x="1241" 
d="M1049 0h-115v510h-629v-510h-112v1081h112v-473h629v473h115v-1081z" />
    <glyph glyph-name="i.sc" horiz-adv-x="497" 
d="M305 0h-112v1081h112v-1081z" />
    <glyph glyph-name="j.sc" horiz-adv-x="802" 
d="M514 328v753h115v-762q0 -143 -69 -244t-226 -102q-113 -1 -189 59t-102 156l107 33q41 -141 178 -141q186 0 186 248z" />
    <glyph glyph-name="k.sc" horiz-adv-x="1028" 
d="M305 567v-567h-112v1081h112v-483h4l504 483h160l-535 -495l566 -586h-166l-529 567h-4z" />
    <glyph glyph-name="l.sc" horiz-adv-x="843" 
d="M805 0h-612v1081h112v-979h500v-102z" />
    <glyph glyph-name="m.sc" horiz-adv-x="1474" 
d="M1282 0h-113v944h-6l-391 -944h-72l-391 944h-4v-944h-112v1081h180l366 -893l365 893h178v-1081z" />
    <glyph glyph-name="n.sc" horiz-adv-x="1253" 
d="M1063 0h-145l-609 930h-4v-930h-112v1081h147l604 -917h4v917h115v-1081z" />
    <glyph glyph-name="o.sc" horiz-adv-x="1368" 
d="M683 78q200 0 323 134t122 331q0 197 -122 331t-323 134q-200 0 -322 -134q-121 -134 -121 -332q0 -196 122 -330t321 -134zM117 543q-1 247 159 405t407 158t407 -156t161 -406q-1 -249 -161 -410t-406 -161t-406 161t-161 409z" />
    <glyph glyph-name="p.sc" horiz-adv-x="976" 
d="M305 551h205q116 0 188 56t72 163t-72 158t-190 51h-203v-428zM305 0h-112v1081h327q166 0 266 -80q100 -79 100 -231t-102 -234q-104 -82 -268 -81h-211v-455z" />
    <glyph glyph-name="q.sc" horiz-adv-x="1368" 
d="M675 102q193 0 313 130t120 320t-121 321q-121 133 -312 133t-313 -132t-122 -323q0 -190 120 -320q121 -129 315 -129zM1298 0h-624q-242 0 -400 153t-158 397t160 400q158 156 398 156t398 -157t157 -398q0 -151 -71 -269t-189 -176v-4h329v-102z" />
    <glyph glyph-name="r.sc" horiz-adv-x="1005" 
d="M305 598h199q270 0 270 193q0 188 -266 188h-203v-381zM305 498v-498h-112v1081h325q164 1 268 -69t104 -206t-76 -208q-77 -72 -200 -86l308 -512h-138l-290 498h-189z" />
    <glyph glyph-name="s.sc" horiz-adv-x="901" 
d="M432 74q96 0 169 54t73 144t-58 137t-138 73q-81 26 -163 56t-139 96t-57 173q0 143 105 221t251 78q195 0 299 -125l-82 -78q-78 104 -223 105q-92 0 -163 -52q-70 -52 -70 -138q0 -87 57 -134t138 -73q81 -25 162 -55t138 -96t57 -169q0 -152 -104 -235t-254 -83
q-100 0 -192 40t-150 114l90 76q92 -129 254 -129z" />
    <glyph glyph-name="t.sc" horiz-adv-x="876" 
d="M494 0h-115v979h-352v102h823v-102h-356v-979z" />
    <glyph glyph-name="u.sc" horiz-adv-x="1175" 
d="M887 414v667h114v-675q0 -182 -103 -308t-310 -125q-207 0 -309 125t-103 308v675h113v-667q0 -143 71 -239q72 -95 228 -95t228 96t71 238z" />
    <glyph glyph-name="v.sc" horiz-adv-x="999" 
d="M557 0h-117l-415 1081h125l348 -938h4l348 938h125z" />
    <glyph glyph-name="w.sc" horiz-adv-x="1554" 
d="M1184 0h-129l-277 926l-280 -926h-127l-318 1081h121l262 -923h4l271 923h133l270 -923h4l262 923h123z" />
    <glyph glyph-name="x.sc" horiz-adv-x="970" 
d="M942 0h-141l-316 481l-315 -481h-141l385 567l-351 514h140l282 -432l281 432h133l-344 -514z" />
    <glyph glyph-name="y.sc" horiz-adv-x="921" 
d="M516 0h-113v469l-395 612h137l316 -518l317 518h135l-397 -612v-469z" />
    <glyph glyph-name="z.sc" horiz-adv-x="991" 
d="M889 0h-787v102l637 877h-620v102h760v-102l-639 -877h649v-102z" />
    <glyph glyph-name="agrave.sc" horiz-adv-x="1081" 
d="M588 1198h-96l-259 295h148zM772 379l-231 571l-238 -571h469zM1057 0h-127l-115 281h-553l-119 -281h-120l466 1081h107z" />
    <glyph glyph-name="aacute.sc" horiz-adv-x="1081" 
d="M596 1198h-96l207 295h147zM772 379l-231 571l-238 -571h469zM1057 0h-127l-115 281h-553l-119 -281h-120l466 1081h107z" />
    <glyph glyph-name="acircumflex.sc" horiz-adv-x="1081" 
d="M825 1198h-108l-176 236l-176 -236h-109l219 295h131zM772 379l-231 571l-238 -571h469zM1057 0h-127l-115 281h-553l-119 -281h-120l466 1081h107z" />
    <glyph glyph-name="atilde.sc" horiz-adv-x="1081" 
d="M406 1343q-74 0 -97 -104h-71q31 193 168 193q47 0 146 -48t130 -47q71 1 94 101h72q-31 -190 -166 -191q-49 0 -147 48t-129 48zM772 379l-231 571l-238 -571h469zM1057 0h-127l-115 281h-553l-119 -281h-120l466 1081h107z" />
    <glyph glyph-name="adieresis.sc" horiz-adv-x="1081" 
d="M727 1286q-37 0 -61 27t-25 63q0 36 25 62q26 26 62 26t62 -26t26 -63t-26 -63t-63 -26zM358 1286q-36 0 -62 27t-26 63t26 62t62 26t62 -26q24 -26 24 -63t-24 -63t-62 -26zM772 379l-231 571l-238 -571h469zM1057 0h-127l-115 281h-553l-119 -281h-120l466 1081h107z
" />
    <glyph glyph-name="amacron.sc" horiz-adv-x="1081" 
d="M807 1284h-528v90h528v-90zM772 379l-231 571l-238 -571h469zM1057 0h-127l-115 281h-553l-119 -281h-120l466 1081h107z" />
    <glyph glyph-name="abreve.sc" horiz-adv-x="1081" 
d="M541 1311q182 0 215 176h73q-10 -125 -89 -196q-80 -71 -200 -71t-198 72q-78 70 -88 195h76q14 -84 72 -130t139 -46zM772 379l-231 571l-238 -571h469zM1057 0h-127l-115 281h-553l-119 -281h-120l466 1081h107z" />
    <glyph glyph-name="aring.sc" horiz-adv-x="1081" 
d="M676 1374q0 55 -39 94t-94 39t-94 -39t-39 -94t39 -94t94 -39t94 39t39 94zM739 1374q0 -82 -58 -138t-138 -56t-139 56q-58 56 -58 138t58 138t138 56t139 -56q58 -56 58 -138zM772 379l-231 571l-238 -571h469zM1057 0h-127l-115 281h-553l-119 -281h-120l466 1081h107
z" />
    <glyph glyph-name="aogonek.sc" horiz-adv-x="1081" 
d="M772 379l-231 571l-238 -571h469zM943 -457q-91 0 -144 48t-54 124q0 127 185 285l-115 281h-553l-119 -281h-120l466 1081h107l461 -1081l-25 -2l-22 -2q-88 -86 -126 -141t-38 -109t32 -85q32 -29 91 -29t104 49l33 -66q-72 -72 -163 -72z" />
    <glyph glyph-name="ae.sc" horiz-adv-x="1570" 
d="M756 399v580h-21l-370 -580h391zM1448 0h-692v301h-455l-195 -301h-131l703 1081h747v-102h-557v-369h525v-100h-525v-408h580v-102z" />
    <glyph glyph-name="cacute.sc" horiz-adv-x="1142" 
d="M653 1198h-96l207 295h147zM682 1106q113 0 214 -42t163 -118l-86 -69q-45 57 -124 92t-167 35q-197 0 -320 -134q-122 -134 -122 -330t122 -329t320 -133t313 145l84 -61q-147 -188 -396 -188t-408 159q-159 160 -158 408q0 249 161 407t404 158z" />
    <glyph glyph-name="ccircumflex.sc" horiz-adv-x="1142" 
d="M967 1198h-109l-176 236l-176 -236h-109l219 295h132zM682 1106q113 0 214 -42t163 -118l-86 -69q-45 57 -124 92t-167 35q-197 0 -320 -134q-122 -134 -122 -330t122 -329t320 -133t313 145l84 -61q-147 -188 -396 -188t-408 159q-159 160 -158 408q0 249 161 407
t404 158z" />
    <glyph glyph-name="ccaron.sc" horiz-adv-x="1142" 
d="M743 1198h-131l-219 295h109l176 -236l176 236h109zM682 1106q113 0 214 -42t163 -118l-86 -69q-45 57 -124 92t-167 35q-197 0 -320 -134q-122 -134 -122 -330t122 -329t320 -133t313 145l84 -61q-147 -188 -396 -188t-408 159q-159 160 -158 408q0 249 161 407t404 158
z" />
    <glyph glyph-name="cdotaccent.sc" horiz-adv-x="1142" 
d="M729 1376q0 -36 -26 -60q-27 -24 -59 -24t-58 25t-25 59q0 34 26 60q27 24 59 24t58 -24t25 -60zM682 1106q113 0 214 -42t163 -118l-86 -69q-45 57 -124 92t-167 35q-197 0 -320 -134q-122 -134 -122 -330t122 -329t320 -133t313 145l84 -61q-147 -188 -396 -188
t-408 159q-159 160 -158 408q0 249 161 407t404 158z" />
    <glyph glyph-name="ccedilla.sc" horiz-adv-x="1142" 
d="M758 -297q0 88 -123 88q-57 0 -105 -20l-30 26l114 180q-221 21 -359 177t-138 396t161 398t404 158q113 0 214 -42t163 -118l-86 -69q-45 57 -124 92t-167 35q-197 0 -320 -134q-122 -134 -122 -330t122 -329t320 -133q199 0 313 145l84 -61q-145 -182 -393 -189
l-84 -133q30 10 90 10t112 -38t52 -118q0 -81 -72 -122t-170 -41t-186 41l27 63q68 -33 138 -33t118 25q47 25 47 76z" />
    <glyph glyph-name="dcaron.sc" horiz-adv-x="1243" 
d="M659 1198h-131l-219 295h109l176 -236l176 236h109zM305 102h213q219 0 352 117t134 322q0 205 -134 321t-352 117h-213v-877zM193 0v1081h350q332 0 494 -234q87 -126 87 -304t-87 -304q-165 -239 -494 -239h-350z" />
    <glyph glyph-name="dcroat.sc" horiz-adv-x="1243" 
d="M305 102h213q219 0 352 117t134 322q0 205 -134 321t-352 117h-213v-371h316v-86h-316v-420zM193 0v522h-156v86h156v473h350q332 0 494 -234q87 -126 87 -304t-87 -304q-165 -239 -494 -239h-350z" />
    <glyph glyph-name="eth.sc" horiz-adv-x="1243" 
d="M305 102h213q219 0 352 117t134 322q0 205 -134 321t-352 117h-213v-371h316v-86h-316v-420zM193 0v522h-156v86h156v473h350q332 0 494 -234q87 -126 87 -304t-87 -304q-165 -239 -494 -239h-350z" />
    <glyph glyph-name="egrave.sc" horiz-adv-x="1007" 
d="M608 1198h-96l-258 295h147zM885 0h-692v1081h669v-102h-557v-369h524v-100h-524v-408h580v-102z" />
    <glyph glyph-name="eacute.sc" horiz-adv-x="1007" 
d="M547 1198h-96l206 295h148zM885 0h-692v1081h669v-102h-557v-369h524v-100h-524v-408h580v-102z" />
    <glyph glyph-name="ecircumflex.sc" horiz-adv-x="1007" 
d="M809 1198h-109l-176 236l-176 -236h-108l219 295h131zM885 0h-692v1081h669v-102h-557v-369h524v-100h-524v-408h580v-102z" />
    <glyph glyph-name="ecaron.sc" horiz-adv-x="1007" 
d="M596 1198h-131l-219 295h108l176 -236l177 236h108zM885 0h-692v1081h669v-102h-557v-369h524v-100h-524v-408h580v-102z" />
    <glyph glyph-name="edieresis.sc" horiz-adv-x="1007" 
d="M715 1286q-37 0 -62 27t-25 63t25 62t62 26t63 -26t25 -63q1 -37 -25 -63t-63 -26zM346 1286q-36 0 -62 27t-26 63t26 62t62 26t62 -26q24 -26 24 -63t-24 -63t-62 -26zM885 0h-692v1081h669v-102h-557v-369h524v-100h-524v-408h580v-102z" />
    <glyph glyph-name="emacron.sc" horiz-adv-x="1007" 
d="M797 1284h-529v90h529v-90zM885 0h-692v1081h669v-102h-557v-369h524v-100h-524v-408h580v-102z" />
    <glyph glyph-name="ebreve.sc" horiz-adv-x="1007" 
d="M524 1311q182 0 215 176h74q-10 -125 -89 -196t-200 -71q-120 0 -198 72q-78 70 -88 195h75q15 -84 73 -130t138 -46zM885 0h-692v1081h669v-102h-557v-369h524v-100h-524v-408h580v-102z" />
    <glyph glyph-name="edotaccent.sc" horiz-adv-x="1007" 
d="M582 1376q0 -36 -26 -60t-58 -24t-59 25q-25 25 -25 59t25 60q26 24 59 24q32 0 58 -24t26 -60zM885 0h-692v1081h669v-102h-557v-369h524v-100h-524v-408h580v-102z" />
    <glyph glyph-name="eogonek.sc" horiz-adv-x="1007" 
d="M777 -457q-91 0 -144 48t-53 124q0 127 184 285h-571v1081h669v-102h-557v-369h524v-100h-524v-408h580v-102h-37q-92 -92 -130 -146t-38 -108t32 -85q32 -29 91 -29t104 49l33 -66q-72 -72 -163 -72z" />
    <glyph glyph-name="gcircumflex.sc" horiz-adv-x="1259" 
d="M973 1198h-109l-176 236l-176 -236h-109l220 295h131zM975 475h-252v100h367v-503q-176 -98 -415 -98t-399 160q-160 161 -159 409q0 247 161 405q162 158 406 158t387 -137l-78 -82q-111 117 -309 117t-322 -134q-122 -134 -122 -330t124 -329t326 -133q170 -1 285 65
v332z" />
    <glyph glyph-name="gbreve.sc" horiz-adv-x="1259" 
d="M688 1311q182 0 215 176h74q-10 -125 -89 -196t-200 -71t-199 72q-78 70 -88 195h76q15 -84 73 -130t138 -46zM975 475h-252v100h367v-503q-176 -98 -415 -98t-399 160q-160 161 -159 409q0 247 161 405q162 158 406 158t387 -137l-78 -82q-111 117 -309 117t-322 -134
q-122 -134 -122 -330t124 -329t326 -133q170 -1 285 65v332z" />
    <glyph glyph-name="gdotaccent.sc" horiz-adv-x="1259" 
d="M729 1376q0 -36 -26 -60q-27 -24 -59 -24t-58 25t-25 59q0 34 26 60q27 24 59 24t58 -24t25 -60zM975 475h-252v100h367v-503q-176 -98 -415 -98t-399 160q-160 161 -159 409q0 247 161 405q162 158 406 158t387 -137l-78 -82q-111 117 -309 117t-322 -134
q-122 -134 -122 -330t124 -329t326 -133q170 -1 285 65v332z" />
    <glyph glyph-name="gcommaaccent.sc" horiz-adv-x="1259" 
d="M614 -471h-92l121 379h117zM975 475h-252v100h367v-503q-176 -98 -415 -98t-399 160q-160 161 -159 409q0 247 161 405q162 158 406 158t387 -137l-78 -82q-111 117 -309 117t-322 -134q-122 -134 -122 -330t124 -329t326 -133q170 -1 285 65v332z" />
    <glyph glyph-name="kgreenlandic.sc" horiz-adv-x="1028" 
d="M305 567v-567h-112v1081h112v-483h4l504 483h160l-535 -495l566 -586h-166l-529 567h-4z" />
    <glyph glyph-name="hcircumflex.sc" horiz-adv-x="1241" 
d="M903 1198h-108l-177 236l-176 -236h-108l219 295h131zM1049 0h-115v510h-629v-510h-112v1081h112v-473h629v473h115v-1081z" />
    <glyph glyph-name="hbar.sc" horiz-adv-x="1241" 
d="M934 608v170h-629v-170h629zM1049 0h-115v510h-629v-510h-112v1081h112v-235h629v235h115v-1081z" />
    <glyph glyph-name="igrave.sc" horiz-adv-x="497" 
d="M307 1198h-96l-258 295h147zM305 0h-112v1081h112v-1081z" />
    <glyph glyph-name="iacute.sc" horiz-adv-x="497" 
d="M291 1198h-96l206 295h148zM305 0h-112v1081h112v-1081z" />
    <glyph glyph-name="ibreve.sc" horiz-adv-x="497" 
d="M248 1311q182 0 215 176h74q-9 -125 -89 -196t-200 -71t-199 72q-78 70 -88 195h76q15 -84 73 -130t138 -46zM305 0h-112v1081h112v-1081z" />
    <glyph glyph-name="icircumflex.sc" horiz-adv-x="497" 
d="M530 1198h-108l-176 236l-176 -236h-109l219 295h131zM305 0h-112v1081h112v-1081z" />
    <glyph glyph-name="itilde.sc" horiz-adv-x="497" 
d="M111 1343q-74 0 -97 -104h-71q31 193 168 193q47 0 146 -48t130 -47q71 1 94 101h72q-31 -190 -166 -191q-49 0 -147 48t-129 48zM305 0h-112v1081h112v-1081z" />
    <glyph glyph-name="idieresis.sc" horiz-adv-x="497" 
d="M430 1286q-38 0 -62 27t-24 63t25 62t61 26t63 -26q25 -26 25 -63t-26 -63t-62 -26zM61 1286q-37 0 -63 27t-25 63q0 36 26 62q27 26 63 26t61 -26t25 -63t-26 -63q-24 -26 -61 -26zM305 0h-112v1081h112v-1081z" />
    <glyph glyph-name="imacron.sc" horiz-adv-x="497" 
d="M514 1284h-528v90h528v-90zM305 0h-112v1081h112v-1081z" />
    <glyph glyph-name="idotaccent.sc" horiz-adv-x="497" 
d="M297 1333q0 -35 -26 -59q-27 -24 -59 -25q-32 0 -58 25q-26 26 -25 60q0 34 26 59q27 25 59 25t58 -26q26 -24 25 -59zM305 0h-112v1081h112v-1081z" />
    <glyph glyph-name="iogonek.sc" horiz-adv-x="497" 
d="M193 0v1081h112v-1081q-90 -92 -128 -146t-38 -108t32 -85q31 -29 91 -29t105 49l32 -66q-72 -72 -163 -72t-144 48t-53 124q0 125 182 283h-5l-19 2h-4z" />
    <glyph glyph-name="ij.sc" horiz-adv-x="1300" 
d="M1012 328v753h114v-762q0 -143 -68 -244t-227 -102q-113 -1 -189 59t-101 156l106 33q41 -141 178 -141q187 0 187 248zM305 0h-112v1081h112v-1081z" />
    <glyph glyph-name="jcircumflex.sc" horiz-adv-x="802" 
d="M852 1198h-109l-176 236l-176 -236h-108l219 295h131zM514 328v753h115v-762q0 -143 -69 -244t-226 -102q-113 -1 -189 59t-102 156l107 33q41 -141 178 -141q186 0 186 248z" />
    <glyph glyph-name="kcommaaccent.sc" horiz-adv-x="1028" 
d="M481 -469h-92l121 379h117zM305 567v-567h-112v1081h112v-483h4l504 483h160l-535 -495l566 -586h-166l-529 567h-4z" />
    <glyph glyph-name="lacute.sc" horiz-adv-x="843" 
d="M299 1198h-96l207 295h147zM805 0h-612v1081h112v-979h500v-102z" />
    <glyph glyph-name="lcaron.sc" horiz-adv-x="843" 
d="M545 702h-92l118 379h117zM805 0h-612v1081h112v-979h500v-102z" />
    <glyph glyph-name="lcommaaccent.sc" horiz-adv-x="843" 
d="M444 -475h-92l121 379h117zM805 0h-612v1081h112v-979h500v-102z" />
    <glyph glyph-name="lslash.sc" horiz-adv-x="843" 
d="M805 0h-612v500l-158 -131v116l158 131v465h112v-370l252 211v-115l-252 -213v-492h500v-102z" />
    <glyph glyph-name="ldot.sc" horiz-adv-x="843" 
d="M754 639q0 -35 -26 -59t-58 -25q-32 0 -59 25q-25 26 -25 60t26 58t58 25q32 -1 58 -25t26 -59zM805 0h-612v1081h112v-979h500v-102z" />
    <glyph glyph-name="nacute.sc" horiz-adv-x="1253" 
d="M618 1198h-96l207 295h148zM1063 0h-145l-609 930h-4v-930h-112v1081h147l604 -917h4v917h115v-1081z" />
    <glyph glyph-name="ncaron.sc" horiz-adv-x="1253" 
d="M694 1198h-131l-219 295h109l176 -236l176 236h108zM1063 0h-145l-609 930h-4v-930h-112v1081h147l604 -917h4v917h115v-1081z" />
    <glyph glyph-name="ntilde.sc" horiz-adv-x="1253" 
d="M489 1343q-74 0 -96 -104h-71q31 193 167 193q47 0 147 -48t130 -47q71 1 94 101h72q-31 -190 -166 -191q-50 0 -148 48t-129 48zM1063 0h-145l-609 930h-4v-930h-112v1081h147l604 -917h4v917h115v-1081z" />
    <glyph glyph-name="ncommaaccent.sc" horiz-adv-x="1253" 
d="M563 -471h-92l121 379h117zM1063 0h-145l-609 930h-4v-930h-112v1081h147l604 -917h4v917h115v-1081z" />
    <glyph glyph-name="napostrophe.sc" horiz-adv-x="1314" 
d="M23 702h-93l119 379h117zM1124 0h-145l-608 930h-4v-930h-113v1081h147l605 -917h4v917h114v-1081z" />
    <glyph glyph-name="eng.sc" horiz-adv-x="1253" 
d="M801 -397q90 0 120 56t29 163v160l-641 948h-4v-930h-112v1081h147l604 -886h4v886h115v-1274q0 -299 -260 -299q-59 1 -96 13l16 92q41 -10 78 -10z" />
    <glyph glyph-name="ograve.sc" horiz-adv-x="1368" 
d="M766 1198h-96l-258 295h147zM683 78q200 0 323 134t122 331q0 197 -122 331t-323 134q-200 0 -322 -134q-121 -134 -121 -332q0 -196 122 -330t321 -134zM117 543q-1 247 159 405t407 158t407 -156t161 -406q-1 -249 -161 -410t-406 -161t-406 161t-161 409z" />
    <glyph glyph-name="oacute.sc" horiz-adv-x="1368" 
d="M694 1198h-96l207 295h147zM683 78q200 0 323 134t122 331q0 197 -122 331t-323 134q-200 0 -322 -134q-121 -134 -121 -332q0 -196 122 -330t321 -134zM117 543q-1 247 159 405t407 158t407 -156t161 -406q-1 -249 -161 -410t-406 -161t-406 161t-161 409z" />
    <glyph glyph-name="ocircumflex.sc" horiz-adv-x="1368" 
d="M967 1198h-109l-176 236l-176 -236h-109l219 295h132zM683 78q200 0 323 134t122 331q0 197 -122 331t-323 134q-200 0 -322 -134q-121 -134 -121 -332q0 -196 122 -330t321 -134zM117 543q-1 247 159 405t407 158t407 -156t161 -406q-1 -249 -161 -410t-406 -161
t-406 161t-161 409z" />
    <glyph glyph-name="otilde.sc" horiz-adv-x="1368" 
d="M547 1343q-74 0 -96 -104h-72q31 193 168 193q47 0 146 -48t130 -47q72 1 95 101h71q-31 -190 -166 -191q-49 0 -147 48t-129 48zM683 78q200 0 323 134t122 331q0 197 -122 331t-323 134q-200 0 -322 -134q-121 -134 -121 -332q0 -196 122 -330t321 -134zM117 543
q-1 247 159 405t407 158t407 -156t161 -406q-1 -249 -161 -410t-406 -161t-406 161t-161 409z" />
    <glyph glyph-name="odieresis.sc" horiz-adv-x="1368" 
d="M866 1286q-38 0 -62 27t-24 63t25 62t61 26t63 -26q25 -26 25 -63t-26 -63t-62 -26zM498 1286q-37 0 -63 27q-25 27 -25 63t25 62q26 26 63 26q38 0 62 -26t24 -63t-24 -63t-62 -26zM683 78q200 0 323 134t122 331q0 197 -122 331t-323 134q-200 0 -322 -134
q-121 -134 -121 -332q0 -196 122 -330t321 -134zM117 543q-1 247 159 405t407 158t407 -156t161 -406q-1 -249 -161 -410t-406 -161t-406 161t-161 409z" />
    <glyph glyph-name="omacron.sc" horiz-adv-x="1368" 
d="M948 1284h-528v90h528v-90zM683 78q200 0 323 134t122 331q0 197 -122 331t-323 134q-200 0 -322 -134q-121 -134 -121 -332q0 -196 122 -330t321 -134zM117 543q-1 247 159 405t407 158t407 -156t161 -406q-1 -249 -161 -410t-406 -161t-406 161t-161 409z" />
    <glyph glyph-name="obreve.sc" horiz-adv-x="1368" 
d="M682 1311q182 0 215 176h74q-10 -125 -89 -196t-200 -71t-199 72q-78 70 -88 195h76q15 -84 73 -130t138 -46zM683 78q200 0 323 134t122 331q0 197 -122 331t-323 134q-200 0 -322 -134q-121 -134 -121 -332q0 -196 122 -330t321 -134zM117 543q-1 247 159 405t407 158
t407 -156t161 -406q-1 -249 -161 -410t-406 -161t-406 161t-161 409z" />
    <glyph glyph-name="ohungarumlaut.sc" horiz-adv-x="1368" 
d="M879 1198h-97l207 295h148zM563 1198h-96l207 295h147zM683 78q200 0 323 134t122 331q0 197 -122 331t-323 134q-200 0 -322 -134q-121 -134 -121 -332q0 -196 122 -330t321 -134zM117 543q-1 247 159 405t407 158t407 -156t161 -406q-1 -249 -161 -410t-406 -161
t-406 161t-161 409z" />
    <glyph glyph-name="oslash.sc" horiz-adv-x="1368" 
d="M330 248l641 655q-121 105 -305 105t-305 -134t-121 -320q0 -185 90 -306zM1024 850l-645 -660q121 -114 313 -114t314 134t122 322t-104 318zM117 556q-1 234 159 392t394 158t381 -121l137 141l53 -53l-135 -139q145 -158 145 -400q-1 -242 -161 -401
q-160 -160 -396 -160t-395 136l-149 -154l-54 53l152 156q-131 158 -131 392z" />
    <glyph glyph-name="oe.sc" horiz-adv-x="1593" 
d="M776 102v877h-86q-190 0 -315 -125t-125 -313q0 -187 125 -313t315 -126h86zM1470 0h-780q-238 0 -400 151t-161 391q0 240 163 390t398 149h758v-102h-559v-369h524v-100h-524v-408h581v-102z" />
    <glyph glyph-name="racute.sc" horiz-adv-x="1005" 
d="M489 1198h-96l207 295h148zM305 598h199q270 0 270 193q0 188 -266 188h-203v-381zM305 498v-498h-112v1081h325q164 1 268 -69t104 -206t-76 -208q-77 -72 -200 -86l308 -512h-138l-290 498h-189z" />
    <glyph glyph-name="rcaron.sc" horiz-adv-x="1005" 
d="M573 1198h-131l-219 295h109l176 -236l176 236h109zM305 598h199q270 0 270 193q0 188 -266 188h-203v-381zM305 498v-498h-112v1081h325q164 1 268 -69t104 -206t-76 -208q-77 -72 -200 -86l308 -512h-138l-290 498h-189z" />
    <glyph glyph-name="rcommaaccent.sc" horiz-adv-x="1005" 
d="M461 -471h-92l120 379h117zM305 598h199q270 0 270 193q0 188 -266 188h-203v-381zM305 498v-498h-112v1081h325q164 1 268 -69t104 -206t-76 -208q-77 -72 -200 -86l308 -512h-138l-290 498h-189z" />
    <glyph glyph-name="sacute.sc" horiz-adv-x="901" 
d="M444 1198h-96l207 295h147zM432 74q96 0 169 54t73 144t-58 137t-138 73q-81 26 -163 56t-139 96t-57 173q0 143 105 221t251 78q195 0 299 -125l-82 -78q-78 104 -223 105q-92 0 -163 -52q-70 -52 -70 -138q0 -87 57 -134t138 -73q81 -25 162 -55t138 -96t57 -169
q0 -152 -104 -235t-254 -83q-100 0 -192 40t-150 114l90 76q92 -129 254 -129z" />
    <glyph glyph-name="scircumflex.sc" horiz-adv-x="901" 
d="M758 1198h-109l-176 236l-176 -236h-109l220 295h131zM432 74q96 0 169 54t73 144t-58 137t-138 73q-81 26 -163 56t-139 96t-57 173q0 143 105 221t251 78q195 0 299 -125l-82 -78q-78 104 -223 105q-92 0 -163 -52q-70 -52 -70 -138q0 -87 57 -134t138 -73
q81 -25 162 -55t138 -96t57 -169q0 -152 -104 -235t-254 -83q-100 0 -192 40t-150 114l90 76q92 -129 254 -129z" />
    <glyph glyph-name="scaron.sc" horiz-adv-x="901" 
d="M537 1198h-131l-220 295h109l176 -236l176 236h109zM432 74q96 0 169 54t73 144t-58 137t-138 73q-81 26 -163 56t-139 96t-57 173q0 143 105 221t251 78q195 0 299 -125l-82 -78q-78 104 -223 105q-92 0 -163 -52q-70 -52 -70 -138q0 -87 57 -134t138 -73
q81 -25 162 -55t138 -96t57 -169q0 -152 -104 -235t-254 -83q-100 0 -192 40t-150 114l90 76q92 -129 254 -129z" />
    <glyph glyph-name="scedilla.sc" horiz-adv-x="901" 
d="M539 -297q0 88 -123 88q-57 0 -105 -20l-30 26l114 178q-201 14 -307 152l90 76q92 -129 254 -129q96 0 169 54t73 144t-58 137t-138 73q-81 26 -163 56t-139 96t-57 173q0 143 105 221t251 78q195 0 299 -125l-82 -78q-78 104 -223 105q-92 0 -163 -52q-70 -52 -70 -138
q0 -87 57 -134t138 -73q81 -25 162 -55t138 -96t57 -169q0 -141 -91 -222t-228 -94l-86 -135q31 10 91 10t111 -38q52 -38 52 -118q0 -81 -72 -122t-170 -41t-186 41l27 63q68 -33 138 -33t118 25q47 25 47 76z" />
    <glyph glyph-name="scommaaccent.sc" horiz-adv-x="901" 
d="M371 -475h-92l120 379h117zM432 74q96 0 169 54t73 144t-58 137t-138 73q-81 26 -163 56t-139 96t-57 173q0 143 105 221t251 78q195 0 299 -125l-82 -78q-78 104 -223 105q-92 0 -163 -52q-70 -52 -70 -138q0 -87 57 -134t138 -73q81 -25 162 -55t138 -96t57 -169
q0 -152 -104 -235t-254 -83q-100 0 -192 40t-150 114l90 76q92 -129 254 -129z" />
    <glyph glyph-name="germandbls.sc" horiz-adv-x="1802" 
d="M1333 74q96 0 169 54t73 144t-57 137q-56 47 -138 73t-164 56t-139 96q-57 67 -57 173q0 143 105 221t251 78q195 0 299 -125l-82 -78q-78 104 -223 105q-92 0 -163 -52t-71 -138q0 -87 58 -134q57 -47 138 -73q81 -25 162 -55t138 -96t58 -169q0 -152 -104 -235
t-255 -83q-101 0 -193 40t-149 114l90 76q92 -129 254 -129zM432 74q96 0 169 54t73 144t-58 137t-138 73q-81 26 -163 56t-139 96t-57 173q0 143 105 221t251 78q195 0 299 -125l-82 -78q-78 104 -223 105q-92 0 -163 -52q-70 -52 -70 -138q0 -87 57 -134t138 -73
q81 -25 162 -55t138 -96t57 -169q0 -152 -104 -235t-254 -83q-100 0 -192 40t-150 114l90 76q92 -129 254 -129z" />
    <glyph glyph-name="tcaron.sc" horiz-adv-x="876" 
d="M502 1198h-131l-219 295h108l176 -236l176 236h109zM494 0h-115v979h-352v102h823v-102h-356v-979z" />
    <glyph glyph-name="tcommaaccent.sc" horiz-adv-x="876" 
d="M377 -471h-92l121 379h116zM494 0h-115v979h-352v102h823v-102h-356v-979z" />
    <glyph glyph-name="tbar.sc" horiz-adv-x="876" 
d="M494 0h-115v662h-244v75h244v242h-352v102h823v-102h-356v-242h247v-75h-247v-662z" />
    <glyph glyph-name="thorn.sc" horiz-adv-x="983" 
d="M307 385h195q274 0 274 197q0 96 -66 141q-67 45 -206 45h-197v-383zM307 0h-114v1081h114v-213h213q371 0 371 -286q0 -146 -99 -222t-278 -75h-207v-285z" />
    <glyph glyph-name="ugrave.sc" horiz-adv-x="1175" 
d="M659 1198h-96l-258 295h148zM887 414v667h114v-675q0 -182 -103 -308t-310 -125q-207 0 -309 125t-103 308v675h113v-667q0 -143 71 -239q72 -95 228 -95t228 96t71 238z" />
    <glyph glyph-name="uacute.sc" horiz-adv-x="1175" 
d="M614 1198h-96l207 295h147zM887 414v667h114v-675q0 -182 -103 -308t-310 -125q-207 0 -309 125t-103 308v675h113v-667q0 -143 71 -239q72 -95 228 -95t228 96t71 238z" />
    <glyph glyph-name="ucircumflex.sc" horiz-adv-x="1175" 
d="M874 1198h-108l-176 236l-176 -236h-109l219 295h131zM887 414v667h114v-675q0 -182 -103 -308t-310 -125q-207 0 -309 125t-103 308v675h113v-667q0 -143 71 -239q72 -95 228 -95t228 96t71 238z" />
    <glyph glyph-name="utilde.sc" horiz-adv-x="1175" 
d="M455 1343q-74 0 -97 -104h-71q31 193 168 193q47 0 146 -48t130 -47q71 1 94 101h72q-31 -190 -166 -191q-49 0 -147 48t-129 48zM887 414v667h114v-675q0 -182 -103 -308t-310 -125q-207 0 -309 125t-103 308v675h113v-667q0 -143 71 -239q72 -95 228 -95t228 96t71 238
z" />
    <glyph glyph-name="udieresis.sc" horiz-adv-x="1175" 
d="M776 1286q-38 0 -62 27t-24 63t25 62t61 26t63 -26q25 -26 25 -63t-26 -63t-62 -26zM408 1286q-37 0 -63 27t-26 63t26 62t63 26q38 0 62 -26t24 -63t-24 -63t-62 -26zM887 414v667h114v-675q0 -182 -103 -308t-310 -125q-207 0 -309 125t-103 308v675h113v-667
q0 -143 71 -239q72 -95 228 -95t228 96t71 238z" />
    <glyph glyph-name="umacron.sc" horiz-adv-x="1175" 
d="M856 1284h-528v90h528v-90zM887 414v667h114v-675q0 -182 -103 -308t-310 -125q-207 0 -309 125t-103 308v675h113v-667q0 -143 71 -239q72 -95 228 -95t228 96t71 238z" />
    <glyph glyph-name="ubreve.sc" horiz-adv-x="1175" 
d="M590 1311q182 0 215 176h74q-10 -125 -89 -196t-200 -71t-199 72q-78 70 -88 195h76q15 -84 73 -130t138 -46zM887 414v667h114v-675q0 -182 -103 -308t-310 -125q-207 0 -309 125t-103 308v675h113v-667q0 -143 71 -239q72 -95 228 -95t228 96t71 238z" />
    <glyph glyph-name="uring.sc" horiz-adv-x="1175" 
d="M721 1374q0 55 -39 94t-94 39t-94 -39t-39 -94t39 -94t94 -39t94 39t39 94zM784 1374q0 -82 -58 -138t-138 -56t-138 56t-59 138q1 82 59 138t138 56t138 -56t58 -138zM887 414v667h114v-675q0 -182 -103 -308t-310 -125q-207 0 -309 125t-103 308v675h113v-667
q0 -143 71 -239q72 -95 228 -95t228 96t71 238z" />
    <glyph glyph-name="uhungarumlaut.sc" horiz-adv-x="1175" 
d="M776 1198h-96l207 295h147zM461 1198h-96l206 295h148zM887 414v667h114v-675q0 -182 -103 -308t-310 -125q-207 0 -309 125t-103 308v675h113v-667q0 -143 71 -239q72 -95 228 -95t228 96t71 238z" />
    <glyph glyph-name="uogonek.sc" horiz-adv-x="1175" 
d="M617 -457q-91 0 -144 48t-53 124q0 121 153 258q-201 6 -299 129t-98 304v675h113v-667q0 -143 71 -239q72 -95 228 -95t228 95t71 239v667h114v-675q1 -164 -83 -283t-250 -141q-80 -84 -114 -136t-34 -103q0 -52 32 -82q32 -29 92 -29t104 49l32 -66q-72 -72 -163 -72z
" />
    <glyph glyph-name="wacute.sc" horiz-adv-x="1554" 
d="M823 1198h-96l207 295h147zM1184 0h-129l-277 926l-280 -926h-127l-318 1081h121l262 -923h4l271 923h133l270 -923h4l262 923h123z" />
    <glyph glyph-name="wcircumflex.sc" horiz-adv-x="1554" 
d="M1063 1198h-109l-176 236l-176 -236h-108l219 295h131zM1184 0h-129l-277 926l-280 -926h-127l-318 1081h121l262 -923h4l271 923h133l270 -923h4l262 923h123z" />
    <glyph glyph-name="wdieresis.sc" horiz-adv-x="1554" 
d="M961 1286q-37 0 -62 27t-25 63t25 62t62 26t63 -26t25 -63q1 -37 -25 -63t-63 -26zM592 1286q-37 0 -63 27q-25 27 -25 63t25 62q26 26 63 26q38 0 62 -26t24 -63t-24 -63t-62 -26zM1184 0h-129l-277 926l-280 -926h-127l-318 1081h121l262 -923h4l271 923h133l270 -923
h4l262 923h123z" />
    <glyph glyph-name="wgrave.sc" horiz-adv-x="1554" 
d="M827 1198h-96l-258 295h148zM1184 0h-129l-277 926l-280 -926h-127l-318 1081h121l262 -923h4l271 923h133l270 -923h4l262 923h123z" />
    <glyph glyph-name="yacute.sc" horiz-adv-x="921" 
d="M461 1198h-96l206 295h148zM516 0h-113v469l-395 612h137l316 -518l317 518h135l-397 -612v-469z" />
    <glyph glyph-name="ycircumflex.sc" horiz-adv-x="921" 
d="M745 1198h-108l-176 236l-176 -236h-109l219 295h131zM516 0h-113v469l-395 612h137l316 -518l317 518h135l-397 -612v-469z" />
    <glyph glyph-name="ydieresis.sc" horiz-adv-x="921" 
d="M647 1286q-37 0 -61 27t-25 63q0 36 25 62q26 26 62 26t62 -26t26 -63t-26 -63t-63 -26zM279 1286q-37 0 -63 27t-26 63t26 62t63 26t61 -26t25 -63q-1 -37 -25 -63t-61 -26zM516 0h-113v469l-395 612h137l316 -518l317 518h135l-397 -612v-469z" />
    <glyph glyph-name="ygrave.sc" horiz-adv-x="921" 
d="M555 1198h-96l-258 295h147zM516 0h-113v469l-395 612h137l316 -518l317 518h135l-397 -612v-469z" />
    <glyph glyph-name="zacute.sc" horiz-adv-x="991" 
d="M459 1198h-97l207 295h148zM889 0h-787v102l637 877h-620v102h760v-102l-639 -877h649v-102z" />
    <glyph glyph-name="zcaron.sc" horiz-adv-x="991" 
d="M571 1198h-131l-219 295h109l176 -236l176 236h109zM889 0h-787v102l637 877h-620v102h760v-102l-639 -877h649v-102z" />
    <glyph glyph-name="zdotaccent.sc" horiz-adv-x="991" 
d="M541 1376q0 -36 -26 -60q-27 -24 -59 -24t-58 25t-26 59t26 60q26 24 59 24t59 -24t25 -60zM889 0h-787v102l637 877h-620v102h760v-102l-639 -877h649v-102z" />
    <glyph glyph-name="grave.sc" 
d="M352 1198h-96l-258 295h147z" />
    <glyph glyph-name="acute.sc" 
d="M236 1198h-97l207 295h148z" />
    <glyph glyph-name="circumflex.sc" 
d="M530 1198h-108l-176 236l-176 -236h-109l219 295h131z" />
    <glyph glyph-name="caron.sc" 
d="M311 1198h-131l-219 295h109l176 -236l176 236h108z" />
    <glyph glyph-name="tilde.sc" 
d="M109 1343q-74 0 -97 -104h-71q31 193 168 193q47 0 146 -48t130 -47q71 1 94 101h72q-31 -190 -166 -191q-49 0 -147 48t-129 48z" />
    <glyph glyph-name="dieresis.sc" 
d="M430 1286q-38 0 -62 27t-24 63t25 62t61 26t63 -26q25 -26 25 -63t-26 -63t-62 -26zM61 1286q-37 0 -63 27t-25 63q0 36 26 62q27 26 63 26t61 -26t25 -63t-26 -63q-24 -26 -61 -26z" />
    <glyph glyph-name="macron.sc" 
d="M510 1284h-528v90h528v-90z" />
    <glyph glyph-name="breve.sc" 
d="M244 1311q182 0 215 176h73q-10 -125 -89 -196t-199 -71t-199 72q-78 70 -88 195h76q14 -84 72 -130t139 -46z" />
    <glyph glyph-name="ring.sc" 
d="M379 1374q0 55 -39 94t-94 39t-94 -39t-39 -94t39 -94t94 -39t94 39t39 94zM442 1374q0 -82 -58 -138t-138 -56t-138 56t-59 138q1 82 59 138t138 56t138 -56t58 -138z" />
    <glyph glyph-name="hungarumlaut.sc" 
d="M350 1198h-96l207 295h147zM35 1198h-96l206 295h148z" />
    <glyph glyph-name="dotaccent.sc" 
d="M330 1376q0 -36 -26 -60t-58 -24t-59 25q-25 25 -25 59t25 60q26 24 59 24q32 0 58 -24t26 -60z" />
    <glyph glyph-name="ordfeminine.sc" horiz-adv-x="731" 
d="M494 1087l-127 302l-129 -302h256zM676 883h-98l-60 141h-305l-59 -141h-99l264 594h99z" />
    <glyph glyph-name="fi.sc" horiz-adv-x="1456" 
d="M1264 0h-113v1081h113v-1081zM811 502h-506v-502h-112v1081h653v-102h-541v-377h506v-100z" />
    <glyph glyph-name="fl.sc" horiz-adv-x="1802" 
d="M1763 0h-612v1081h113v-979h499v-102zM811 502h-506v-502h-112v1081h653v-102h-541v-377h506v-100z" />
    <glyph glyph-name="parenleft.sc" horiz-adv-x="483" 
d="M66 542q0 186 60 365q60 180 161 316l86 -52q-89 -127 -145 -297t-56 -334t56 -332q56 -169 145 -296l-86 -53q-100 135 -161 316q-60 181 -60 367z" />
    <glyph glyph-name="parenright.sc" horiz-adv-x="483" 
d="M311 541q0 165 -55 333t-147 295l88 54q100 -137 159 -317q121 -369 0 -731q-59 -179 -159 -316l-88 51q92 127 147 297t55 334z" />
    <glyph glyph-name="bracketleft.sc" horiz-adv-x="483" 
d="M362 -133h-262v1347h262v-86h-157v-1173h157v-88z" />
    <glyph glyph-name="bracketright.sc" horiz-adv-x="483" 
d="M383 -133h-262v88h155v1173h-155v86h262v-1347z" />
    <glyph glyph-name="braceleft.sc" horiz-adv-x="483" 
d="M399 -133h-102q-172 0 -172 199v256q0 92 -29 131t-90 39v98q61 0 90 39t29 131v256q0 199 172 198h102v-86h-84q-84 0 -84 -120v-248q0 -178 -127 -217v-4q127 -39 127 -220v-245q0 -119 84 -119h84v-88z" />
    <glyph glyph-name="braceright.sc" horiz-adv-x="483" 
d="M184 -133h-100v88h84q84 0 84 119v248q0 178 127 217v4q-127 39 -127 219v246q0 121 -84 120h-84v86h100q172 0 172 -198v-256q0 -92 30 -131t91 -39v-98q-61 0 -91 -39t-30 -131v-256q0 -199 -172 -199z" />
    <glyph glyph-name="slash.sc" horiz-adv-x="591" 
d="M113 -29l-97 33l465 1108l97 -33z" />
    <glyph glyph-name="backslash.sc" horiz-adv-x="591" 
d="M578 4l-97 -33l-465 1108l95 33z" />
    <glyph glyph-name="ampersand.sc" horiz-adv-x="1165" 
d="M248 279q0 -93 61 -151t156 -58q166 -1 264 153l-293 307q-188 -94 -188 -251zM664 870q0 66 -42 105t-106 39t-109 -44q-46 -44 -46 -124t104 -195q199 96 199 219zM461 -27q-139 0 -236 84q-96 84 -96 224q0 197 240 321q-119 135 -119 252q0 116 75 184t191 68
t189 -64q72 -64 71 -170q0 -166 -244 -290l256 -267l146 260h125l-193 -335l234 -240h-158l-139 147q-133 -174 -342 -174z" />
    <glyph glyph-name="exclam.sc" horiz-adv-x="563" 
d="M282 172q40 0 66 -28t25 -64q1 -36 -25 -64t-66 -28t-65 26t-24 66t25 66t64 26zM338 309h-113v772h113v-772z" />
    <glyph glyph-name="exclamdown.sc" horiz-adv-x="563" 
d="M373 1001q1 -37 -25 -65t-66 -27q-40 0 -65 27q-25 28 -25 66t25 65t65 27t66 -28t25 -65zM338 0h-113v770h113v-770z" />
    <glyph glyph-name="question.sc" horiz-adv-x="722" 
d="M453 78q0 -36 -26 -64q-26 -26 -64 -26q-37 0 -63 26t-26 64t26 64t64 26t63 -27q26 -27 26 -63zM410 322h-111v75q0 117 102 217q0 2 23 24q24 22 50 48q64 64 64 151q1 87 -45 137t-124 50q-147 0 -183 -174l-108 18q23 123 98 190q76 66 203 66t201 -76t74 -180
q0 -102 -32 -160q-30 -58 -100 -116t-92 -104t-20 -115v-51z" />
    <glyph glyph-name="questiondown.sc" horiz-adv-x="722" 
d="M451 1020q0 -36 -25 -64q-25 -26 -63 -26q-37 0 -63 26t-26 64t25 64t63 26t64 -27q25 -27 25 -63zM346 -27q-127 0 -201 77q-73 78 -73 180t31 160q32 58 101 116t91 104q23 47 22 115v53h111v-78q0 -70 -31 -122t-101 -122q-70 -71 -90 -108q-20 -36 -20 -104t47 -119
t125 -51q148 0 183 176l108 -21q-23 -121 -99 -189t-204 -67z" />
    </font>
</defs>
</svg>
